<svg width="548" height="358" viewBox="0 0 548 358" fill="none" xmlns="http://www.w3.org/2000/svg">
<path d="M250.668 153.754H51.9479C46.4774 153.754 42.0742 149.351 42.0742 143.881V48.7903C42.0742 43.3197 46.4774 38.8721 51.9479 38.8721H250.668C256.138 38.8721 260.542 43.3197 260.542 48.7903V143.881C260.542 149.351 256.138 153.754 250.668 153.754Z" stroke="#F9CECE" stroke-width="2.1" stroke-miterlimit="10"/>
<path d="M256.539 71.2065C114.882 71.2065 0 186.044 0 327.746C0 328.072 0 328.398 0 328.724H513.078C513.108 328.398 513.123 328.072 513.123 327.746C513.123 186.044 398.24 71.2065 256.539 71.2065Z" fill="#2A2A2A"/>
<path d="M544.827 248.311C544.827 248.311 543.048 251.825 545.894 263.522C548.741 275.175 546.606 279.934 541.625 287.139C536.643 294.388 521.877 309.866 522.767 328.724H494.302C494.302 328.724 499.461 316.093 500.884 304.173C502.308 292.254 509.646 285.137 520.721 279.444C531.84 273.751 535.398 252.047 544.827 248.311Z" fill="#131313"/>
<path d="M544.827 248.311C544.827 248.311 538.245 253.96 537.355 263.522C536.465 273.04 535.042 280.334 526.681 288.518C518.319 296.701 508.356 308.977 508.356 328.724" stroke="#4A4A4A" stroke-width="2.4" stroke-miterlimit="10"/>
<path d="M544.827 161.404C544.827 161.404 542.692 165.14 544.827 174.747C546.962 184.354 548.252 196.363 543.893 201.7C539.49 207.037 532.818 213.442 530.417 224.65C528.015 235.858 533.619 243.863 527.748 253.47C521.877 263.077 516.273 264.545 515.206 277.398C514.138 290.296 524.012 302.572 500.529 328.724H447.202C447.202 328.724 463.969 297.235 468.773 280.69C473.576 264.144 469.573 256.406 477.045 245.064C484.517 233.723 494.925 237.147 499.461 226.651C503.998 216.11 503.998 207.037 510.402 200.365C516.807 193.694 527.214 191.025 531.306 180.751C535.309 170.878 541.358 163.005 544.827 161.404Z" fill="#131313"/>
<path d="M544.827 161.404C536.643 170.388 536.287 181.597 535.754 189.78C535.22 197.964 522.944 200.632 518.675 211.574C514.405 222.515 514.939 232.7 509.868 241.995C504.798 251.335 496.792 252.403 491.188 265.212C485.584 278.021 494.124 307.375 474.109 328.724" stroke="#4A4A4A" stroke-width="2.4" stroke-miterlimit="10"/>
<path d="M461.664 120.264C461.664 173.724 418.344 217.044 364.928 217.044C311.467 217.044 268.147 173.724 268.147 120.264C268.147 66.8477 311.467 23.5278 364.928 23.5278C418.344 23.5278 461.664 66.8477 461.664 120.264Z" fill="#131313"/>
<path d="M454.68 49.5022C434.666 49.5022 418.432 65.736 418.432 85.7503C418.432 89.7532 419.055 93.6226 420.256 97.2252L402.109 117.373L427.061 109.278C433.732 117.062 443.606 121.998 454.68 121.998C474.695 121.998 490.928 105.765 490.928 85.7503C490.928 65.736 474.695 49.5022 454.68 49.5022Z" fill="#FFBA19"/>
<path d="M451.122 101.94C450.411 101.94 449.699 101.673 449.121 101.095L431.553 83.5264C430.441 82.4145 430.441 80.6355 431.553 79.568C432.62 78.4561 434.399 78.4561 435.511 79.568L451.122 95.1792L473.85 72.4518C474.961 71.3399 476.696 71.3399 477.808 72.4518C478.875 73.5193 478.875 75.2983 477.808 76.4102L453.079 101.095C452.545 101.673 451.834 101.94 451.122 101.94Z" fill="#BA3E3E"/>
<path d="M23.2165 161.404C23.2165 161.404 25.3514 165.14 23.2165 174.747C21.0817 184.354 19.7474 196.363 24.1505 201.7C28.5537 207.037 35.2251 213.442 37.6268 224.65C40.0286 235.858 34.4245 243.863 40.2954 253.47C46.1663 263.077 51.7703 264.545 52.8377 277.398C53.9051 290.296 44.0314 302.572 67.5149 328.724H120.842C120.842 328.724 104.074 297.235 99.2709 280.69C94.4675 264.144 98.4703 256.406 90.9983 245.064C83.5263 233.723 73.1189 237.147 68.5823 226.651C64.0457 216.11 64.0457 207.037 57.6411 200.365C51.2366 193.694 40.8291 191.025 36.6928 180.751C32.7344 170.878 26.6857 163.005 23.2165 161.404Z" fill="#131313"/>
<path d="M52.8375 277.398C53.9049 290.296 44.0312 302.572 67.5147 328.724H120.842C120.842 328.724 104.074 297.235 99.2707 280.69C94.4673 264.144 98.4701 256.406 90.9981 245.064C83.5261 233.723 73.1187 237.147 68.5821 226.651C64.0455 216.11 64.0455 207.037 57.6409 200.366C56.7514 199.432 55.7729 198.586 54.7944 197.786C54.661 216.599 50.8805 246.977 49.1904 265.479C51.014 268.37 52.3482 271.839 52.8375 277.398Z" fill="#313131"/>
<path d="M23.2163 161.404C31.3555 170.388 31.7558 181.597 32.2895 189.78C32.8232 197.964 45.0986 200.632 49.3684 211.574C53.6381 222.515 53.1044 232.7 58.1746 241.995C63.2449 251.335 71.2507 252.403 76.8547 265.212C82.4587 278.021 73.9192 307.375 93.9335 328.724" stroke="#4A4A4A" stroke-width="2.4" stroke-miterlimit="10"/>
<path d="M303.639 277.398H66.5809C61.2883 277.398 57.0186 273.129 57.0186 267.836V78.3671C57.0186 73.0745 61.2883 68.7603 66.5809 68.7603H303.639C308.932 68.7603 313.246 73.0745 313.246 78.3671V267.836C313.246 273.129 308.932 277.398 303.639 277.398Z" fill="white"/>
<path d="M239.015 95.3125V277.398H303.639C308.932 277.398 313.246 273.129 313.246 267.836V95.3125H239.015Z" fill="#EEEEEE"/>
<path d="M252.358 153.754C252.358 155.445 250.979 156.823 249.289 156.823C247.599 156.823 246.22 155.445 246.22 153.754C246.22 152.064 247.599 150.686 249.289 150.686C250.979 150.686 252.358 152.064 252.358 153.754Z" stroke="#BA3E3E" stroke-width="2.1" stroke-miterlimit="10"/>
<path d="M256.806 153.754H302.794" stroke="#BA3E3E" stroke-width="2.1" stroke-miterlimit="10"/>
<path d="M252.358 178.528C252.358 180.218 250.979 181.596 249.289 181.596C247.599 181.596 246.22 180.218 246.22 178.528C246.22 176.838 247.599 175.459 249.289 175.459C250.979 175.459 252.358 176.838 252.358 178.528Z" stroke="#BA3E3E" stroke-width="2.1" stroke-miterlimit="10"/>
<path d="M256.806 178.528H302.794" stroke="#BA3E3E" stroke-width="2.1" stroke-miterlimit="10"/>
<path d="M252.358 203.301C252.358 204.991 250.979 206.37 249.289 206.37C247.599 206.37 246.22 204.991 246.22 203.301C246.22 201.611 247.599 200.232 249.289 200.232C250.979 200.232 252.358 201.611 252.358 203.301Z" stroke="#BA3E3E" stroke-width="2.1" stroke-miterlimit="10"/>
<path d="M256.806 203.301H302.794" stroke="#BA3E3E" stroke-width="2.1" stroke-miterlimit="10"/>
<path d="M109.1 141.167C109.1 145.571 105.542 149.129 101.139 149.129C96.7358 149.129 93.1777 145.571 93.1777 141.167C93.1777 136.809 96.7358 133.251 101.139 133.251C105.542 133.251 109.1 136.809 109.1 141.167Z" stroke="#BA3E3E" stroke-width="2" stroke-miterlimit="10"/>
<path d="M132.984 141.167C132.984 145.571 129.426 149.129 125.067 149.129C120.664 149.129 117.106 145.571 117.106 141.167C117.106 136.809 120.664 133.251 125.067 133.251C129.426 133.251 132.984 136.809 132.984 141.167Z" stroke="#BA3E3E" stroke-width="2" stroke-miterlimit="10"/>
<path d="M156.912 141.167C156.912 145.571 153.354 149.129 148.951 149.129C144.548 149.129 140.99 145.571 140.99 141.167C140.99 136.809 144.548 133.251 148.951 133.251C153.354 133.251 156.912 136.809 156.912 141.167Z" stroke="#BA3E3E" stroke-width="2" stroke-miterlimit="10"/>
<path d="M180.796 141.167C180.796 145.571 177.237 149.129 172.879 149.129C168.476 149.129 164.917 145.571 164.917 141.167C164.917 136.809 168.476 133.251 172.879 133.251C177.237 133.251 180.796 136.809 180.796 141.167Z" stroke="#BA3E3E" stroke-width="2" stroke-miterlimit="10"/>
<path d="M204.724 141.167C204.724 145.571 201.166 149.129 196.763 149.129C192.36 149.129 188.802 145.571 188.802 141.167C188.802 136.809 192.36 133.251 196.763 133.251C201.166 133.251 204.724 136.809 204.724 141.167Z" stroke="#BA3E3E" stroke-width="2" stroke-miterlimit="10"/>
<path d="M228.608 141.167C228.608 145.571 225.05 149.129 220.691 149.129C216.288 149.129 212.73 145.571 212.73 141.167C212.73 136.809 216.288 133.251 220.691 133.251C225.05 133.251 228.608 136.809 228.608 141.167Z" stroke="#BA3E3E" stroke-width="2" stroke-miterlimit="10"/>
<path d="M85.1715 168.921C85.1715 173.324 81.6134 176.882 77.2547 176.882C72.8516 176.882 69.2935 173.324 69.2935 168.921C69.2935 164.518 72.8516 160.959 77.2547 160.959C81.6134 160.959 85.1715 164.518 85.1715 168.921Z" stroke="#BA3E3E" stroke-width="2" stroke-miterlimit="10"/>
<path d="M109.1 168.921C109.1 173.324 105.542 176.882 101.139 176.882C96.7358 176.882 93.1777 173.324 93.1777 168.921C93.1777 164.518 96.7358 160.959 101.139 160.959C105.542 160.959 109.1 164.518 109.1 168.921Z" stroke="#BA3E3E" stroke-width="2" stroke-miterlimit="10"/>
<path d="M132.984 168.921C132.984 173.324 129.426 176.882 125.067 176.882C120.664 176.882 117.106 173.324 117.106 168.921C117.106 164.518 120.664 160.959 125.067 160.959C129.426 160.959 132.984 164.518 132.984 168.921Z" stroke="#BA3E3E" stroke-width="2" stroke-miterlimit="10"/>
<path d="M156.912 168.921C156.912 173.324 153.354 176.882 148.951 176.882C144.548 176.882 140.99 173.324 140.99 168.921C140.99 164.518 144.548 160.959 148.951 160.959C153.354 160.959 156.912 164.518 156.912 168.921Z" fill="#BA3E3E"/>
<path d="M180.796 168.921C180.796 173.324 177.237 176.882 172.879 176.882C168.476 176.882 164.917 173.324 164.917 168.921C164.917 164.518 168.476 160.959 172.879 160.959C177.237 160.959 180.796 164.518 180.796 168.921Z" stroke="#BA3E3E" stroke-width="2" stroke-miterlimit="10"/>
<path d="M204.724 168.921C204.724 173.324 201.166 176.882 196.763 176.882C192.36 176.882 188.802 173.324 188.802 168.921C188.802 164.518 192.36 160.959 196.763 160.959C201.166 160.959 204.724 164.518 204.724 168.921Z" stroke="#BA3E3E" stroke-width="2" stroke-miterlimit="10"/>
<path d="M228.608 168.921C228.608 173.324 225.05 176.882 220.691 176.882C216.288 176.882 212.73 173.324 212.73 168.921C212.73 164.518 216.288 160.959 220.691 160.959C225.05 160.959 228.608 164.518 228.608 168.921Z" stroke="#BA3E3E" stroke-width="2" stroke-miterlimit="10"/>
<path d="M85.1715 196.674C85.1715 201.077 81.6134 204.635 77.2547 204.635C72.8516 204.635 69.2935 201.077 69.2935 196.674C69.2935 192.271 72.8516 188.713 77.2547 188.713C81.6134 188.713 85.1715 192.271 85.1715 196.674Z" stroke="#BA3E3E" stroke-width="2" stroke-miterlimit="10"/>
<path d="M109.1 196.674C109.1 201.077 105.542 204.635 101.139 204.635C96.7358 204.635 93.1777 201.077 93.1777 196.674C93.1777 192.271 96.7358 188.713 101.139 188.713C105.542 188.713 109.1 192.271 109.1 196.674Z" stroke="#BA3E3E" stroke-width="2" stroke-miterlimit="10"/>
<path d="M132.984 196.674C132.984 201.077 129.426 204.635 125.067 204.635C120.664 204.635 117.106 201.077 117.106 196.674C117.106 192.271 120.664 188.713 125.067 188.713C129.426 188.713 132.984 192.271 132.984 196.674Z" stroke="#BA3E3E" stroke-width="2" stroke-miterlimit="10"/>
<path d="M156.912 196.674C156.912 201.077 153.354 204.635 148.951 204.635C144.548 204.635 140.99 201.077 140.99 196.674C140.99 192.271 144.548 188.713 148.951 188.713C153.354 188.713 156.912 192.271 156.912 196.674Z" stroke="#BA3E3E" stroke-width="2" stroke-miterlimit="10"/>
<path d="M180.796 196.674C180.796 201.077 177.237 204.635 172.879 204.635C168.476 204.635 164.917 201.077 164.917 196.674C164.917 192.271 168.476 188.713 172.879 188.713C177.237 188.713 180.796 192.271 180.796 196.674Z" stroke="#BA3E3E" stroke-width="2" stroke-miterlimit="10"/>
<path d="M204.724 196.674C204.724 201.077 201.166 204.635 196.763 204.635C192.36 204.635 188.802 201.077 188.802 196.674C188.802 192.271 192.36 188.713 196.763 188.713C201.166 188.713 204.724 192.271 204.724 196.674Z" stroke="#BA3E3E" stroke-width="2" stroke-miterlimit="10"/>
<path d="M228.608 196.674C228.608 201.077 225.05 204.635 220.691 204.635C216.288 204.635 212.73 201.077 212.73 196.674C212.73 192.271 216.288 188.713 220.691 188.713C225.05 188.713 228.608 192.271 228.608 196.674Z" stroke="#BA3E3E" stroke-width="2" stroke-miterlimit="10"/>
<path d="M85.1715 224.427C85.1715 228.786 81.6134 232.344 77.2547 232.344C72.8516 232.344 69.2935 228.786 69.2935 224.427C69.2935 220.024 72.8516 216.466 77.2547 216.466C81.6134 216.466 85.1715 220.024 85.1715 224.427Z" stroke="#BA3E3E" stroke-width="2" stroke-miterlimit="10"/>
<path d="M109.1 224.427C109.1 228.786 105.542 232.344 101.139 232.344C96.7358 232.344 93.1777 228.786 93.1777 224.427C93.1777 220.024 96.7358 216.466 101.139 216.466C105.542 216.466 109.1 220.024 109.1 224.427Z" stroke="#BA3E3E" stroke-width="2" stroke-miterlimit="10"/>
<path d="M132.984 224.427C132.984 228.786 129.426 232.344 125.067 232.344C120.664 232.344 117.106 228.786 117.106 224.427C117.106 220.024 120.664 216.466 125.067 216.466C129.426 216.466 132.984 220.024 132.984 224.427Z" stroke="#BA3E3E" stroke-width="2" stroke-miterlimit="10"/>
<path d="M156.912 224.427C156.912 228.786 153.354 232.344 148.951 232.344C144.548 232.344 140.99 228.786 140.99 224.427C140.99 220.024 144.548 216.466 148.951 216.466C153.354 216.466 156.912 220.024 156.912 224.427Z" stroke="#BA3E3E" stroke-width="2" stroke-miterlimit="10"/>
<path d="M180.796 224.427C180.796 228.786 177.237 232.344 172.879 232.344C168.476 232.344 164.917 228.786 164.917 224.427C164.917 220.024 168.476 216.466 172.879 216.466C177.237 216.466 180.796 220.024 180.796 224.427Z" stroke="#BA3E3E" stroke-width="2" stroke-miterlimit="10"/>
<path d="M204.724 224.427C204.724 228.786 201.166 232.344 196.763 232.344C192.36 232.344 188.802 228.786 188.802 224.427C188.802 220.024 192.36 216.466 196.763 216.466C201.166 216.466 204.724 220.024 204.724 224.427Z" stroke="#BA3E3E" stroke-width="2" stroke-miterlimit="10"/>
<path d="M228.608 224.427C228.608 228.786 225.05 232.344 220.691 232.344C216.288 232.344 212.73 228.786 212.73 224.427C212.73 220.024 216.288 216.466 220.691 216.466C225.05 216.466 228.608 220.024 228.608 224.427Z" stroke="#BA3E3E" stroke-width="2" stroke-miterlimit="10"/>
<path d="M85.1715 252.136C85.1715 256.539 81.6134 260.097 77.2547 260.097C72.8516 260.097 69.2935 256.539 69.2935 252.136C69.2935 247.777 72.8516 244.175 77.2547 244.175C81.6134 244.175 85.1715 247.777 85.1715 252.136Z" stroke="#BA3E3E" stroke-width="2" stroke-miterlimit="10"/>
<path d="M109.1 252.136C109.1 256.539 105.542 260.097 101.139 260.097C96.7358 260.097 93.1777 256.539 93.1777 252.136C93.1777 247.777 96.7358 244.175 101.139 244.175C105.542 244.175 109.1 247.777 109.1 252.136Z" stroke="#BA3E3E" stroke-width="2" stroke-miterlimit="10"/>
<path d="M132.984 252.136C132.984 256.539 129.426 260.097 125.067 260.097C120.664 260.097 117.106 256.539 117.106 252.136C117.106 247.777 120.664 244.175 125.067 244.175C129.426 244.175 132.984 247.777 132.984 252.136Z" stroke="#BA3E3E" stroke-width="2" stroke-miterlimit="10"/>
<path d="M73.9194 119.508L74.5421 118.129C75.2092 118.618 76.2322 118.93 77.1662 118.93C78.2781 118.93 78.7229 118.574 78.7229 118.085C78.7229 116.572 74.0973 117.595 74.0973 114.66C74.0973 113.326 75.1648 112.169 77.4331 112.169C78.456 112.169 79.479 112.436 80.1906 112.881L79.6569 114.304C78.9008 113.859 78.1447 113.637 77.4331 113.637C76.3211 113.637 75.9209 114.082 75.9209 114.571C75.9209 116.039 80.5464 115.016 80.5464 117.951C80.5464 119.285 79.4345 120.397 77.1662 120.397C75.9209 120.397 74.6311 120.041 73.9194 119.508Z" fill="#BA3E3E"/>
<path d="M103.896 120.264V115.505L101.539 119.419H100.694L98.3811 115.594V120.264H96.6465V112.302H98.1587L101.139 117.284L104.074 112.302H105.586L105.631 120.264H103.896Z" fill="#BA3E3E"/>
<path d="M124.133 113.815H121.554V112.302H128.536V113.815H125.957V120.264H124.133V113.815Z" fill="#BA3E3E"/>
<path d="M155.311 112.302L152.731 120.264H150.73L148.995 114.882L147.172 120.264H145.215L142.591 112.302H144.503L146.282 117.907L148.195 112.302H149.885L151.708 117.951L153.576 112.302H155.311Z" fill="#BA3E3E"/>
<path d="M171.945 113.815H169.365V112.302H176.348V113.815H173.768V120.264H171.945V113.815Z" fill="#BA3E3E"/>
<path d="M195.606 113.815V115.905H199.298V117.373H195.606V120.264H193.738V112.302H199.787V113.815H195.606Z" fill="#BA3E3E"/>
<path d="M217.355 119.508L217.978 118.129C218.645 118.618 219.668 118.93 220.602 118.93C221.714 118.93 222.158 118.574 222.158 118.085C222.158 116.572 217.533 117.595 217.533 114.66C217.533 113.326 218.6 112.169 220.869 112.169C221.892 112.169 222.915 112.436 223.626 112.881L223.092 114.304C222.336 113.859 221.58 113.637 220.869 113.637C219.757 113.637 219.356 114.082 219.356 114.571C219.356 116.039 223.982 115.016 223.982 117.951C223.982 119.285 222.87 120.397 220.602 120.397C219.356 120.397 218.067 120.041 217.355 119.508Z" fill="#BA3E3E"/>
<path d="M313.246 103.185H57.0186V78.3671C57.0186 73.0745 61.2883 68.7603 66.5809 68.7603H303.639C308.932 68.7603 313.246 73.0745 313.246 78.3671V103.185Z" fill="#FFBA19"/>
<path d="M111.635 85.2166C102.518 85.2166 95.1792 77.878 95.1792 68.7604C95.1792 59.6873 102.518 52.3042 111.635 52.3042C120.709 52.3042 128.092 59.6873 128.092 68.7604" stroke="#BA3E3E" stroke-width="4.3" stroke-linecap="round" stroke-linejoin="round"/>
<path d="M136.142 85.2166C127.024 85.2166 119.641 77.878 119.641 68.7604C119.641 59.6873 127.024 52.3042 136.142 52.3042C145.215 52.3042 152.598 59.6873 152.598 68.7604" stroke="#BA3E3E" stroke-width="4.3" stroke-linecap="round" stroke-linejoin="round"/>
<path d="M160.604 85.2166C151.531 85.2166 144.147 77.878 144.147 68.7604C144.147 59.6873 151.531 52.3042 160.604 52.3042C169.721 52.3042 177.104 59.6873 177.104 68.7604" stroke="#BA3E3E" stroke-width="4.3" stroke-linecap="round" stroke-linejoin="round"/>
<path d="M185.11 85.2166C176.037 85.2166 168.654 77.878 168.654 68.7604C168.654 59.6873 176.037 52.3042 185.11 52.3042C194.228 52.3042 201.566 59.6873 201.566 68.7604" stroke="#BA3E3E" stroke-width="4.3" stroke-linecap="round" stroke-linejoin="round"/>
<path d="M209.616 85.2166C200.499 85.2166 193.16 77.878 193.16 68.7604C193.16 59.6873 200.499 52.3042 209.616 52.3042C218.69 52.3042 226.073 59.6873 226.073 68.7604" stroke="#BA3E3E" stroke-width="4.3" stroke-linecap="round" stroke-linejoin="round"/>
<path d="M234.123 85.2166C225.005 85.2166 217.667 77.878 217.667 68.7604C217.667 59.6873 225.005 52.3042 234.123 52.3042C243.196 52.3042 250.579 59.6873 250.579 68.7604" stroke="#BA3E3E" stroke-width="4.3" stroke-linecap="round" stroke-linejoin="round"/>
<path d="M258.585 85.2166C249.511 85.2166 242.128 77.878 242.128 68.7604C242.128 59.6873 249.511 52.3042 258.585 52.3042C267.702 52.3042 275.085 59.6873 275.085 68.7604" stroke="#BA3E3E" stroke-width="4.3" stroke-linecap="round" stroke-linejoin="round"/>
<path d="M342.867 29.6212C342.867 45.9884 329.569 59.2424 313.246 59.2424C296.879 59.2424 283.625 45.9884 283.625 29.6212C283.625 13.2539 296.879 0 313.246 0C329.569 0 342.867 13.2539 342.867 29.6212Z" fill="#BA3E3E"/>
<path d="M335.84 29.6213C335.84 42.1191 325.7 52.2152 313.246 52.2152C300.748 52.2152 290.652 42.1191 290.652 29.6213C290.652 17.1679 300.748 7.02734 313.246 7.02734C325.7 7.02734 335.84 17.1679 335.84 29.6213Z" fill="white"/>
<path d="M300.659 19.3916L313.246 29.6211V49.8578" stroke="#FFBA19" stroke-width="4.3" stroke-linecap="round" stroke-linejoin="round"/>
<path d="M399.975 126.535C406.958 128.848 421.679 134.674 435.956 140.501C458.239 149.618 473.806 170.077 476.608 193.961C480.299 224.872 484.035 258.007 485.236 268.103C487.771 290.03 473.094 311.378 461.352 312.98L465.889 328.724H342.601L313.513 236.125C313.513 236.125 291.898 281.757 283.047 294.566C274.241 307.376 249.156 316.982 229.942 290.83C210.729 264.678 193.383 227.63 193.383 227.63L221.536 210.462L251.024 246.532L272.284 187.156C278.51 169.855 291.542 155.845 308.354 148.462L340.065 134.541L399.975 126.535Z" fill="#FFBA19"/>
<path d="M403.8 127.869C402.332 127.336 401.042 126.891 399.975 126.535L340.065 134.541L336.151 136.275C346.47 150.552 386.098 157.402 403.8 127.869Z" fill="#FFDC73"/>
<path d="M381.873 232.655H352.474L345.002 178.572H374.401L381.873 232.655Z" fill="white"/>
<path d="M371.421 180.751L378.27 230.298" stroke="#283847" stroke-width="2.2" stroke-miterlimit="10"/>
<path d="M351.452 183.731C351.585 184.621 350.962 185.288 350.117 185.288C349.228 185.288 348.427 184.621 348.294 183.731C348.205 182.842 348.783 182.175 349.672 182.175C350.518 182.175 351.318 182.842 351.452 183.731Z" fill="#283847"/>
<path d="M356.655 183.731C356.788 184.621 356.166 185.288 355.321 185.288C354.431 185.288 353.63 184.621 353.541 183.731C353.408 182.842 354.031 182.175 354.876 182.175C355.765 182.175 356.566 182.842 356.655 183.731Z" fill="#283847"/>
<path d="M296.746 270.104L303.061 204.19L313.513 236.124L296.746 270.104Z" fill="#FFDC73"/>
<path d="M251.024 246.532L246.22 261.476" stroke="#1A294D" stroke-width="2.1" stroke-miterlimit="10"/>
<path d="M235.102 296.879C253.426 315.248 275.041 306.264 283.047 294.567C283.403 294.062 283.759 293.529 284.114 292.965C279.044 285.849 270.46 281.224 260.764 281.224C249.378 281.224 239.594 287.628 235.102 296.879Z" fill="#FFDC73"/>
<path d="M394.371 231.321L445.874 272.684" stroke="#1A294D" stroke-width="2.1" stroke-miterlimit="10"/>
<path d="M481.544 292.387C477.141 289.14 471.448 287.139 465.266 287.139C451.078 287.139 439.559 297.546 439.559 310.356C439.559 311.779 439.707 313.158 440.003 314.492C446.408 315.248 453.702 315.07 461.352 312.98C472.293 310 478.297 300.882 481.544 292.387Z" fill="#FFDC73"/>
<path d="M370.22 242.04L395.394 233.678L375.068 250.312L370.22 242.04Z" fill="#FFDC73"/>
<path d="M220.913 211.351L204.057 185.333C204.057 185.333 198.364 174.792 192.849 170.834C190.314 169.01 184.798 163.94 183.82 162.65C183.82 162.65 180.707 163.673 182.174 166.92C183.687 170.211 188.579 175.815 188.579 175.815C188.579 175.815 175.992 173.013 171.322 171.679C166.697 170.344 158.691 167.809 158.024 170.967C157.223 174.481 175.725 178.528 175.725 178.528C175.725 178.528 171.144 179.506 172.923 184.354C169.988 185.955 169.81 189.869 173.19 191.293C171.278 193.65 173.057 197.252 178.038 197.252C182.53 199.965 186.355 202.234 193.516 199.61L203.345 223.849L220.913 211.351Z" fill="#FF6969"/>
<path d="M175.726 178.528L185.51 181.285" stroke="#B82C2C" stroke-width="2.1" stroke-miterlimit="10"/>
<path d="M172.923 184.354L184.843 187.245" stroke="#B82C2C" stroke-width="2.1" stroke-miterlimit="10"/>
<path d="M173.19 191.292L184.043 191.915" stroke="#B82C2C" stroke-width="2.1" stroke-miterlimit="10"/>
<path d="M178.038 197.253L184.131 196.674" stroke="#B82C2C" stroke-width="2.1" stroke-miterlimit="10"/>
<path d="M185.821 196.63C185.821 196.63 187.956 194.717 185.732 191.915C187.778 190.536 186.844 188.135 186.133 187.201C188.001 186.311 188.757 182.975 186.177 181.285" stroke="#B82C2C" stroke-width="2.1" stroke-miterlimit="10"/>
<path d="M187.556 185.644C187.556 185.644 189.246 192.093 196.718 193.205" stroke="#B82C2C" stroke-width="2.1" stroke-miterlimit="10"/>
<path d="M221.403 212.508L198.453 237.904L193.383 227.629L221.403 212.508Z" fill="#FFDC73"/>
<path d="M391.035 230.298L383.696 221.581C383.696 221.581 387.121 203.613 376.491 196.274C376.491 196.274 379.96 208.194 374.134 210.862C368.263 213.486 357.9 211.796 348.471 203.746L348.026 200.01C348.026 200.01 345.447 206.014 349.138 208.594C347.804 211.752 347.137 214.42 350.161 215.932C348.382 218.245 349.227 221.848 351.496 222.782C349.361 226.785 353.186 229.898 357.277 230.298C359.902 230.61 369.686 230.876 369.686 230.876L376.847 239.149L391.035 230.298Z" fill="#FF6969"/>
<path d="M313.513 205.614H339.442C339.442 205.614 349.894 237.147 334.239 237.147C318.583 237.147 313.513 205.614 313.513 205.614Z" fill="#FFDC73"/>
<path d="M380.672 93.578C380.672 93.578 387.699 82.37 389.834 75.7875C391.969 69.2051 384.852 69.4719 384.852 69.4719C385.831 62.1778 383.251 59.2424 377.558 59.0645C376.402 52.0372 368.485 48.4791 363.504 53.2826C356.388 46.1664 345.357 51.5035 345.624 61.6441C336.818 59.7761 333.616 79.568 346.425 82.6814L370.62 96.3801L380.672 93.578Z" fill="white"/>
<path d="M349.538 71.6958C349.538 71.6958 363.281 79.1678 374.356 76.8995C374.356 76.8995 373.555 81.1692 377.158 83.3041L373.155 93.845L375.023 94.3787C375.023 94.3787 379.159 85.439 384.096 87.1735C389.033 88.9081 383.296 105.587 374.489 100.65L381.695 121.331L399.974 126.535C399.974 126.535 393.303 144.414 363.949 144.414C348.738 144.414 340.065 134.541 340.065 134.541L355.276 128.67L351.006 114.927C351.006 114.927 340.999 115.016 337.93 107.455C334.817 99.8493 341.799 89.9755 341.799 89.9755L349.538 71.6958Z" fill="#FF6969"/>
<path d="M351.006 114.927C357.321 115.016 365.461 110.346 368.529 107.188C368.529 107.188 362.57 123.021 353.808 124L351.006 114.927Z" fill="#B82C2C"/>
<path d="M355.276 128.67L357.811 135.297" stroke="#B82C2C" stroke-width="2.1" stroke-miterlimit="10"/>
<path d="M352.873 94.5122C352.873 94.5122 358.566 95.891 359.456 98.2927H344.245C344.245 98.2927 345.713 95.2238 348.782 95.0904C348.782 95.0904 350.694 95.9799 352.873 94.5122Z" fill="#330909"/>
<path d="M348.204 98.2927H356.12C356.12 98.2927 356.965 108.077 354.074 108.077C351.184 108.077 348.204 98.2927 348.204 98.2927Z" fill="white"/>
<path d="M348.96 85.1723C348.96 86.5511 348.382 87.663 347.67 87.663C347.003 87.663 346.425 86.5511 346.425 85.1723C346.425 83.7935 347.003 82.6816 347.67 82.6816C348.382 82.6816 348.96 83.7935 348.96 85.1723Z" fill="#330909"/>
<path d="M360.39 86.7287C360.39 88.1075 359.812 89.2194 359.145 89.2194C358.433 89.2194 357.855 88.1075 357.855 86.7287C357.855 85.3499 358.433 84.238 359.145 84.238C359.812 84.238 360.39 85.3499 360.39 86.7287Z" fill="#330909"/>
<path d="M343.667 80.769L352.785 81.9254C352.785 81.9254 353.585 91.1765 346.647 90.3314C339.709 89.4864 343.667 80.769 343.667 80.769Z" stroke="white" stroke-width="2.1" stroke-miterlimit="10"/>
<path d="M355.721 82.2812L364.883 83.3932C364.883 83.3932 365.683 92.6887 358.745 91.8436C351.807 90.9541 355.721 82.2812 355.721 82.2812Z" stroke="white" stroke-width="2.1" stroke-miterlimit="10"/>
<path d="M352.74 84.238L355.009 84.5049" stroke="white" stroke-width="2.1" stroke-miterlimit="10"/>
<path d="M364.705 86.7288L378.67 89.086" stroke="white" stroke-width="2.1" stroke-miterlimit="10"/>
<path d="M357.855 79.568L366.572 79.2122" stroke="#330909" stroke-width="4.3" stroke-miterlimit="10"/>
<path d="M355.009 79.7015C355.009 79.7015 351.006 76.1878 347.136 77.2997" stroke="#330909" stroke-width="4.3" stroke-miterlimit="10"/>
<path d="M353.363 85.1721L348.648 95.0459C348.648 95.0459 351.095 96.0243 353.363 94.1563" stroke="#330909" stroke-width="2.1" stroke-miterlimit="10"/>
<path d="M375.735 96.3801C375.735 96.3801 378.67 97.4031 379.16 96.3801C379.649 95.3572 377.247 93.8005 377.247 93.8005C377.247 93.8005 380.049 88.6412 382.673 89.5752C385.297 90.5092 381.873 96.2467 381.873 96.2467" stroke="#330909" stroke-width="2.1" stroke-miterlimit="10"/>
<path d="M461.352 312.98C449.877 316.716 422.658 317.516 404.512 294.3C386.365 271.083 369.02 239.861 369.02 239.861" stroke="#1A294D" stroke-width="2.1" stroke-miterlimit="10"/>
<path d="M313.513 236.125L299.547 193.338" stroke="#1A294D" stroke-width="2.1" stroke-miterlimit="10"/>
<path d="M420.123 189.78L434.444 263.522" stroke="#1A294D" stroke-width="2.1" stroke-miterlimit="10"/>
<path d="M367.685 242.885L397.751 232.922L393.036 227.63L364.216 238.171L367.685 242.885Z" fill="white"/>
<path d="M193.383 229.853L224.205 210.773L220.335 204.769L189.424 223.315L193.383 229.853Z" fill="white"/>
<path d="M370.087 347.76C370.087 351.629 357.589 354.831 342.2 354.831C326.767 354.831 314.313 351.629 314.313 347.76C314.313 343.846 326.767 340.688 342.2 340.688C357.589 340.688 370.087 343.846 370.087 347.76Z" fill="#FFBA19"/>
<path d="M322.63 301.771L325.699 346.915H325.744C325.744 347.938 333.127 348.738 342.2 348.738C351.273 348.738 358.612 347.938 358.612 346.915H358.656L361.725 301.771H322.63Z" fill="#263238"/>
<path fill-rule="evenodd" clip-rule="evenodd" d="M359.19 340.688C353.186 340.688 349.895 334.328 349.895 322.809C349.895 314.892 355.632 308.398 362.748 308.398C366.395 308.398 370.087 310.133 372.577 313.068C375.068 315.915 376.136 319.473 375.602 323.076C374.268 332.282 366.44 340.688 359.19 340.688ZM362.748 312.179C357.722 312.179 353.675 316.938 353.675 322.809C353.675 326.1 354.075 336.908 359.19 336.908C363.993 336.908 370.665 330.503 371.866 322.542C372.222 320.051 371.466 317.561 369.731 315.559C367.907 313.469 365.283 312.179 362.748 312.179Z" fill="#263238"/>
<path d="M337.886 298.436C336.374 294.522 334.417 292.565 336.151 287.984C337.886 283.403 340.11 281.98 340.243 277.843C340.421 273.707 337.841 270.015 337.841 270.015C337.841 270.015 345.358 270.193 345.402 279.178C345.447 285.982 338.775 287.495 337.886 298.436Z" fill="white"/>
<path d="M347.938 298.436C346.425 294.522 344.468 292.565 346.203 287.984C347.938 283.403 350.117 281.98 350.295 277.843C350.473 273.707 347.893 270.015 347.893 270.015C347.893 270.015 355.41 270.193 355.454 279.178C355.499 285.982 348.827 287.495 347.938 298.436Z" fill="white"/>
<path d="M173.101 265.212L164.784 250.179L156.512 265.212C154.821 268.236 151.664 270.104 148.195 270.104H92.8216C87.5734 270.104 83.3481 274.374 83.3481 279.578V347.537C83.3481 352.786 87.5734 357.011 92.8216 357.011H236.747C241.995 357.011 246.22 352.786 246.22 347.537V279.578C246.22 274.374 241.995 270.104 236.747 270.104H181.374C177.949 270.104 174.747 268.236 173.101 265.212Z" fill="#263238"/>
<path d="M131.472 279.133V349.138" stroke="white" stroke-width="2.4" stroke-miterlimit="10"/>
<path fill-rule="evenodd" clip-rule="evenodd" d="M119.285 305.33C119.285 308.132 118.306 310.711 116.705 312.757C113.814 316.36 111.279 320.274 109.5 324.543L107.855 328.368C107.632 328.902 106.876 328.902 106.654 328.368L105.453 325.477C103.585 321.03 101.272 316.76 98.1143 313.069C96.0684 310.667 94.9565 307.42 95.3567 303.906C95.9794 298.436 100.427 293.988 105.898 293.366C113.147 292.565 119.285 298.213 119.285 305.33ZM111.946 305.33C111.946 302.75 109.856 300.66 107.276 300.66C104.697 300.66 102.606 302.75 102.606 305.33C102.606 307.909 104.697 309.955 107.276 309.955C109.856 309.955 111.946 307.909 111.946 305.33Z" fill="#FFBA19"/>
<path d="M224.16 312.446H146.06C144.948 312.446 144.014 311.556 144.014 310.4C144.014 309.288 144.948 308.354 146.06 308.354H224.16C225.316 308.354 226.206 309.288 226.206 310.4C226.206 311.556 225.316 312.446 224.16 312.446Z" fill="white"/>
<path d="M224.16 323.476H146.06C144.948 323.476 144.014 322.586 144.014 321.43C144.014 320.318 144.948 319.384 146.06 319.384H224.16C225.316 319.384 226.206 320.318 226.206 321.43C226.206 322.586 225.316 323.476 224.16 323.476Z" fill="white"/>
<path d="M173.012 347.36H146.06C144.948 347.36 144.014 346.426 144.014 345.314C144.014 344.157 144.948 343.268 146.06 343.268H173.012C174.169 343.268 175.058 344.157 175.058 345.314C175.058 346.426 174.169 347.36 173.012 347.36Z" fill="white"/>
<path d="M57.0186 108.077V162.65" stroke="#F9CECE" stroke-width="2.1" stroke-miterlimit="10"/>
</svg>
