<svg width="211" height="180" viewBox="0 0 211 180" fill="none" xmlns="http://www.w3.org/2000/svg">
<path d="M0.650418 143.832C-0.0216806 143.615 0.108403 144.027 0 144.07C1.14907 144.309 0.628737 143.723 0.650418 143.832Z" fill="#1F1F1F"/>
<path d="M11.7944 145.891L11.5776 145.978L13.2687 146.021L11.7944 145.891Z" fill="#1F1F1F"/>
<path d="M22.0925 148.276C21.2469 147.474 18.32 147.561 16.5422 146.91L16.2821 146.694L15.3281 146.997C17.5829 147.431 20.5531 147.778 22.0925 148.276Z" fill="#1F1F1F"/>
<path d="M27.3392 150.77C27.0357 150.466 28.575 150.813 26.0601 150.423C26.1685 150.488 26.2118 150.509 26.2769 150.531C26.4937 150.574 26.7972 150.639 27.3392 150.77Z" fill="#1F1F1F"/>
<path d="M26.2767 150.531C25.171 150.336 26.9488 150.878 26.2767 150.531V150.531Z" fill="#1F1F1F"/>
<path d="M31.3503 151.42L29.876 151.355C30.1361 151.55 31.437 151.832 30.9383 151.832C32.4343 152.005 32.1524 151.81 31.3503 151.42Z" fill="#1F1F1F"/>
<path d="M32.8028 151.225L32.0439 151.182C32.174 151.268 32.3692 151.333 32.8028 151.225Z" fill="#1F1F1F"/>
<path d="M30.418 151.073L32.044 151.181C31.8489 151.051 31.8706 150.835 31.3069 151.116C31.4803 150.965 31.1334 151.073 30.418 151.073Z" fill="#1F1F1F"/>
<path d="M29.5509 150.791C28.7704 150.509 27.7297 150.206 29.2257 150.293C26.4506 149.816 26.7758 150.314 29.5509 150.791Z" fill="#1F1F1F"/>
<path d="M22.7427 147.778L21.7237 147.366H20.748C21.225 147.366 22.786 147.973 22.7427 147.778Z" fill="#1F1F1F"/>
<path d="M40.326 153.349C40.4344 153.241 39.8924 152.937 39.8274 152.742L38.7217 152.699C39.2637 152.894 40.2827 153.154 40.326 153.349Z" fill="#1F1F1F"/>
<path d="M39.8274 152.742L41.4534 152.786C40.0225 152.526 39.7624 152.591 39.8274 152.742Z" fill="#1F1F1F"/>
<path d="M33.193 150.618L30.4829 150.574L33.6916 150.704L33.193 150.618Z" fill="#1F1F1F"/>
<path d="M46.4832 154.303L45.5293 154.477L47.2204 154.26L46.4832 154.303Z" fill="#1F1F1F"/>
<path d="M50.6026 154.802C49.8872 154.954 51.4915 155.322 50.7544 155.409C51.8818 155.496 52.8574 155.388 53.7463 155.279C52.814 155.279 51.8384 155.149 50.6026 154.802Z" fill="#1F1F1F"/>
<path d="M55.2204 155.149C54.7434 155.149 54.2664 155.214 53.7461 155.279C54.2231 155.279 54.7217 155.236 55.2204 155.149Z" fill="#1F1F1F"/>
<path d="M44.1851 153.263C44.2935 153.371 44.5103 153.61 45.3992 153.826L44.8138 153.371C44.6403 153.349 44.4019 153.306 44.1851 153.263Z" fill="#1F1F1F"/>
<path d="M44.792 153.349L44.8137 153.371C45.5075 153.48 45.9844 153.566 46.1795 153.588C46.0061 153.566 45.5942 153.48 44.792 153.349Z" fill="#1F1F1F"/>
<path d="M44.0337 153.241C44.0987 153.263 44.1421 153.263 44.1855 153.263C44.1421 153.219 44.0987 153.219 44.0337 153.241Z" fill="#1F1F1F"/>
<path d="M37.3125 151.702C38.2881 151.658 40.2827 151.767 38.4399 151.138C37.7244 151.268 38.7868 151.637 37.3125 151.702Z" fill="#1F1F1F"/>
<path d="M43.3177 152.677L41.6266 152.309C41.6482 152.417 41.9301 152.612 41.4531 152.634L43.3177 152.677Z" fill="#1F1F1F"/>
<path d="M44.1629 152.677H43.3174L43.9461 152.786L44.1629 152.677Z" fill="#1F1F1F"/>
<path d="M52.2938 154.477C53.0526 154.412 53.8765 154.499 54.787 154.564C53.8114 154.39 52.7924 154.238 51.8385 154.13C51.6867 154.217 51.2314 154.368 52.2938 154.477Z" fill="#1F1F1F"/>
<path d="M48.6513 153.935C48.6947 153.935 48.7597 153.935 48.8247 153.935C48.7163 153.891 48.6296 153.87 48.6513 153.935Z" fill="#1F1F1F"/>
<path d="M63.9144 155.214C63.8493 155.192 63.806 155.171 63.7626 155.149C63.7481 155.164 63.7337 155.178 63.7192 155.192L63.9144 155.214Z" fill="#1F1F1F"/>
<path d="M51.6861 154.043C50.949 153.87 50.4937 153.913 50.0601 153.978C50.6093 154.007 51.2019 154.058 51.8379 154.13C51.9029 154.087 51.9246 154.043 51.6861 154.043Z" fill="#1F1F1F"/>
<path d="M57.7787 155.214C57.3884 155.084 56.9548 154.997 56.4995 154.889C56.8681 155.041 57.6269 155.279 57.7787 155.214Z" fill="#1F1F1F"/>
<path d="M49.0632 154.065C49.0198 154.065 48.9765 154.065 48.9331 154.065C49.1716 154.173 49.1499 154.13 49.0632 154.065Z" fill="#1F1F1F"/>
<path d="M49.0632 154.065C49.4318 154.065 49.757 154.022 50.0605 153.978C49.6052 153.935 49.1933 153.935 48.8247 153.935C48.9114 153.978 48.9982 154.022 49.0632 154.065Z" fill="#1F1F1F"/>
<path d="M66.711 152.894C66.5809 153.241 64.6297 153.545 62.9819 153.089C61.3125 153.263 62.3315 154.434 63.7624 155.149C63.8275 154.997 63.8275 154.846 65.5402 154.715C65.2584 154.607 64.3045 154.477 63.6107 154.304C62.9386 154.152 62.505 154 63.2204 153.87C65.4969 153.783 65.0633 154.065 66.169 154.282C65.7137 154.043 66.4291 153.913 67.2096 153.74C67.9685 153.566 68.7923 153.35 68.5538 153.024C67.9034 153.111 67.2458 153.183 66.5809 153.241C66.5592 153.154 67.2747 153.003 66.711 152.894Z" fill="#1F1F1F"/>
<path d="M60.4889 154.932H59.7734C60.5756 155.041 61.1393 155.214 62.2017 155.539C63.3941 155.431 63.6326 155.322 63.7193 155.192C62.563 155.134 61.4067 155.062 60.2504 154.975L60.4889 154.932Z" fill="#1F1F1F"/>
<path d="M56.63 154.672C57.2153 154.347 58.9064 154.325 57.9091 153.848C55.8495 153.696 56.4348 154.022 55.199 154.065C58.5162 154.303 54.2234 154.195 56.6083 154.629C55.9362 154.629 55.3508 154.585 54.7871 154.564C55.3942 154.65 55.9579 154.78 56.4999 154.889C56.471 154.874 56.4493 154.867 56.4348 154.867H56.4132C56.4132 154.853 56.4132 154.845 56.4132 154.845C56.2831 154.802 56.2397 154.759 56.3915 154.802C56.3915 154.802 56.4348 154.802 56.4565 154.802C56.4782 154.759 56.5432 154.715 56.63 154.672C57.5839 154.845 56.76 154.78 56.4565 154.802C56.4565 154.824 56.4132 154.824 56.4132 154.845C56.4132 154.845 56.4204 154.853 56.4348 154.867C57.5478 154.896 58.6607 154.918 59.7736 154.932C59.0799 154.824 58.191 154.78 56.63 154.672Z" fill="#1F1F1F"/>
<path d="M40.3257 150.639C40.4124 150.683 40.4124 150.726 40.4124 150.748C40.6292 150.726 40.7159 150.726 40.3257 150.639Z" fill="#1F1F1F"/>
<path d="M41.6268 151.095C41.3883 151.095 41.1715 151.203 40.391 151.051C39.7406 150.835 40.4344 150.878 40.4127 150.748C39.9357 150.769 38.7433 150.726 40.1742 151.16H40.4127C41.7135 151.485 43.3396 152.222 43.1011 152.222C42.7542 151.832 42.4507 151.55 41.6268 151.095Z" fill="#1F1F1F"/>
<path d="M49.1934 152.916L51.9468 153.089L50.6026 152.591L50.646 152.786C49.085 152.526 49.3885 152.808 49.1934 152.916Z" fill="#1F1F1F"/>
<path d="M64.2179 155.409L63.8276 155.8L65.4754 155.279L64.2179 155.409Z" fill="#1F1F1F"/>
<path d="M67.8822 155.431L67.7305 155.778L68.7061 155.561L67.8822 155.431Z" fill="#1F1F1F"/>
<path d="M80.0234 43.2988L80.7606 43.6674C80.4354 43.4723 80.1969 43.3639 80.0234 43.2988Z" fill="#1F1F1F"/>
<path d="M75.0581 40.0685L74.8413 40.1335C75.1232 40.1986 75.2532 40.1986 75.0581 40.0685Z" fill="#1F1F1F"/>
<path d="M62.5699 91.8852C62.0062 90.8011 61.4859 89.4786 61.3124 89.8472L61.269 90.3675C61.8761 90.9312 62.2663 91.4299 62.5699 91.8852Z" fill="#1F1F1F"/>
<path d="M33.3016 42.4316C33.2438 42.5328 33.1787 42.634 33.1064 42.7352C33.1354 43.0531 33.1643 43.3422 33.1932 43.6024C33.2365 43.2555 33.2799 42.8436 33.3016 42.4316Z" fill="#1F1F1F"/>
<path d="M32.1738 41.0874C32.4774 40.6104 32.7158 40.1335 33.0411 39.6565C32.7809 39.96 32.5424 40.4153 32.1738 41.0874Z" fill="#1F1F1F"/>
<path d="M106.322 61.7708L107.297 62.0309C106.127 61.142 106.517 61.6841 106.322 61.7708Z" fill="#1F1F1F"/>
<path d="M93.0531 133.794C92.923 132.688 92.6628 131.864 92.4243 131.127C92.5544 131.777 92.6195 132.384 92.7062 132.861C92.7712 133.338 92.8579 133.664 93.0531 133.794Z" fill="#1F1F1F"/>
<path d="M75.9035 45.3586C76.3588 45.5754 76.5756 45.6404 76.619 45.5537C76.1637 45.3369 75.8818 45.2285 75.9035 45.3586Z" fill="#1F1F1F"/>
<path d="M91.1885 128.265C91.2318 128.438 91.2969 128.634 91.3402 128.807C91.7522 129.501 92.0774 130.216 92.4243 131.127C92.3159 130.65 92.1858 130.151 91.9906 129.653C91.7955 129.154 91.5354 128.677 91.1885 128.265Z" fill="#1F1F1F"/>
<path d="M187.58 75.9065C187.602 75.8197 187.58 75.7113 187.58 75.6463C187.537 75.6246 187.559 75.733 187.58 75.9065Z" fill="#1F1F1F"/>
<path d="M178.02 43.624C178.215 43.8842 178.518 44.3612 178.8 44.7948C178.692 44.5563 178.453 44.2094 178.02 43.624Z" fill="#1F1F1F"/>
<path d="M82.8198 153.913C82.0177 154.173 82.6898 154 82.8198 153.913V153.913Z" fill="#1F1F1F"/>
<path d="M78.7007 153.328C78.8524 153.263 78.9609 153.176 78.9825 153.089C78.9175 153.198 78.8308 153.263 78.7007 153.328Z" fill="#1F1F1F"/>
<path d="M85.3564 122.693C85.3419 122.679 85.3274 122.657 85.313 122.628C85.378 122.867 85.378 122.823 85.3564 122.693Z" fill="#1F1F1F"/>
<path d="M81.584 154.065C81.8875 154.043 82.2344 154 82.6246 153.913C82.4512 153.935 82.126 154 81.584 154.065Z" fill="#1F1F1F"/>
<path d="M81.7791 154.217C81.4973 154.26 81.2805 154.303 81.0854 154.347C80.9986 154.433 81.0854 154.455 81.7791 154.217Z" fill="#1F1F1F"/>
<path d="M83.9037 153.566C83.4484 153.718 83.0364 153.826 82.6245 153.913C82.7763 153.892 82.8413 153.892 82.8196 153.913C83.0364 153.848 83.3617 153.761 83.9037 153.566Z" fill="#1F1F1F"/>
<path d="M149.791 93.1425C149.813 93.1858 149.878 93.2075 149.899 93.2509C150.658 93.4677 150.355 93.3376 149.791 93.1425Z" fill="#1F1F1F"/>
<path d="M46.6133 79.5705C46.635 79.5921 46.6566 79.5921 46.6783 79.6138C46.6566 79.5921 46.635 79.5488 46.6133 79.5271V79.5705Z" fill="#1F1F1F"/>
<path d="M44.6621 77.5975C45.7461 78.2263 46.1147 78.79 46.6134 79.5271L46.8735 78.1395L44.6621 77.5975Z" fill="#1F1F1F"/>
<path fill-rule="evenodd" clip-rule="evenodd" d="M89.8009 49.9981C91.557 51.8626 93.8335 52.7732 95.1126 53.3152C95.8064 54.0307 93.9852 53.5971 96.3051 55.0497C99.5571 57.1744 96.24 53.9223 98.1913 55.2014L99.1669 56.6974C101.834 58.1066 103.351 59.776 105.302 61.337C105.801 61.6189 106.061 61.749 106.213 61.7707C108.164 63.5918 111.026 64.6542 112.5 66.02C112.045 65.8249 113.194 66.9957 113.281 67.2775L116.36 69.0987C115.037 68.3182 114.864 68.6217 114.452 68.7301C115.362 69.3589 115.904 69.5323 116.555 69.9442C116.099 69.7708 115.644 69.5973 116.034 70.0743L119.417 71.8521C119.286 71.6787 118.94 71.3968 118.658 71.18C119.417 71.7437 121.194 72.7844 122.127 73.8034C121.953 73.8467 121.498 73.6733 121.324 73.7166C120.631 72.7193 119.915 72.6109 119.286 72.4592C121.433 73.9768 119.763 72.9361 120.631 73.8684C122.127 74.9524 123.016 75.0175 122.799 74.4972C124.403 75.8197 124.88 76.2966 126.81 77.2289L126.203 77.3807L127.894 78.3997L126.268 77.9444C129.129 80.3726 127.287 77.6842 130.539 80.2859L130.3 80.6328C131.709 81.4133 132.555 81.1314 133.292 82.2588C134.723 82.9092 131.449 80.2859 134.506 82.2588C134.918 82.7791 135.959 83.6897 136.804 84.3185C137.802 84.7738 136.501 83.603 135.807 83.1477C138.04 84.5136 138.539 85.2724 139.016 85.9228C139.514 86.6166 139.948 87.2453 142.181 88.286C140.924 87.1369 143.786 88.3294 140.425 86.248C142.159 87.0502 143.265 88.7196 145.195 89.3267L143.829 89.1315C144.436 89.5001 145.216 89.7603 145.585 89.8904L145.238 90.1722C146.474 90.4541 147.406 91.0828 148.273 91.6248C149.119 92.1668 149.878 92.6221 150.745 92.5354C149.509 92.7305 152.371 93.3159 153.087 93.988C152.089 93.7929 150.81 93.1424 149.726 92.5788C148.642 92.0151 147.753 91.5815 147.471 91.7983C148.187 92.4487 149.097 92.5354 149.791 93.1425C149.184 92.9257 148.295 92.6655 148.013 92.6655C148.642 93.1208 149.227 93.4677 149.813 93.7495C150.376 94.0097 150.918 94.2048 151.417 94.3782C152.436 94.7034 153.368 94.8552 154.257 95.1804C153.238 94.7685 152.219 94.3349 151.222 93.8796C151.764 93.3809 152.61 94.4433 153.672 94.3566C154.322 94.8769 154.994 95.1587 155.666 95.3756C156.317 95.5924 156.946 95.8092 157.509 96.1561C157.249 96.0476 157.162 96.0693 156.967 95.9826C158.507 96.6547 159.417 97.3051 160.133 97.8255C160.501 98.1073 160.805 98.3675 161.087 98.5843C161.39 98.8011 161.672 98.9745 162.019 99.0829C162.344 99.213 162.756 99.3431 163.19 99.4298C163.602 99.5165 164.035 99.6033 164.404 99.6249C165.119 99.7117 165.553 99.6466 165.141 99.3865C165.705 99.4515 164.556 99.1913 163.537 98.8661C162.518 98.5409 161.672 98.1073 162.756 97.9989C162.958 98.2012 163.175 98.3675 163.406 98.4976C163.638 98.6276 163.883 98.7288 164.144 98.8011C164.664 98.9745 165.249 99.0829 165.921 99.148C166.572 99.213 167.309 99.3214 168.133 99.4081C168.545 99.4732 168.957 99.5599 169.434 99.6466C169.911 99.7117 170.409 99.8418 170.93 99.9718C169 100.145 172.014 100.666 170.279 100.774C171.342 100.839 171.884 100.774 172.295 100.731C172.686 100.644 172.946 100.536 173.401 100.405C173.618 100.521 173.828 100.629 174.03 100.731C175.396 100.34 175.526 100.145 175.829 99.9935C175.981 99.9285 176.198 99.8851 176.588 99.755C176.783 99.69 177.044 99.6249 177.369 99.5599C177.672 99.4732 178.041 99.3431 178.518 99.213C177.911 99.4515 178.301 99.4949 178.756 99.5165C179.19 99.5165 179.689 99.4949 179.233 99.7333C179.775 99.6249 180.274 99.4081 180.729 99.213C180.968 99.1046 181.163 98.9745 181.358 98.8444C181.56 98.7288 181.734 98.606 181.878 98.4759L181.77 98.5843C182.204 98.3241 182.572 98.1507 182.854 97.9339C183.013 97.8471 183.157 97.7676 183.288 97.6954C183.418 97.6087 183.533 97.5292 183.634 97.4569C184.09 97.175 184.393 96.9366 184.718 96.7197C184.87 96.6114 185 96.4813 185.152 96.3512C185.304 96.2211 185.477 96.091 185.629 95.8959C185.954 95.5273 186.323 95.0287 186.713 94.2265L186.366 94.3999C187.429 92.3836 188.187 89.847 188.491 87.1369C188.816 84.4269 188.686 81.5867 188.274 79.0718C188.274 79.6138 188.296 80.1775 188.296 80.7195C188.274 80.3509 188.144 79.6138 187.992 78.7899C187.797 77.8143 187.602 76.7086 187.58 75.9064C187.667 76.2099 187.862 76.7303 187.884 77.0338C188.079 76.9471 188.296 76.275 188.122 75.0392L187.689 74.6489L187.84 74.1069C187.407 72.2424 187.494 74.7356 187.06 72.8928C187.407 72.2424 186.93 70.2478 186.301 68.2098C185.672 66.1718 184.914 64.1121 184.979 63.2016C184.437 62.7029 184.74 63.5701 185.044 64.394C185.326 65.2395 185.607 66.0851 185.087 65.4997C184.979 64.936 185.022 64.6325 184.61 63.4401L184.393 64.0037C183.461 61.2503 182.789 59.3641 182.073 57.5646C181.358 55.7651 180.599 54.074 179.342 51.7976L179.515 51.9493C178.756 50.2583 178.193 49.4127 177.477 48.8924C177.434 48.4588 178.193 49.5645 177.976 48.849C176.718 47.7216 176.025 46.2474 175.417 44.8815C174.81 43.5373 174.268 42.3015 173.401 41.6944C173.813 41.5643 173.553 40.5237 173.38 39.6348C173.184 38.7459 173.076 38.0087 173.878 38.5507C173.589 38.2039 173.286 37.857 172.968 37.5101C173.336 37.5318 173.987 38.3773 174.659 39.2662C175.331 40.1551 176.003 41.1091 176.48 41.2825C177.13 42.5833 177.759 43.8842 178.366 45.2067C178.474 44.9682 179.103 45.4235 178.8 44.7948C179.385 45.7053 179.884 46.4858 179.407 45.12C181.531 49.9114 183.938 54.5293 186.041 59.3207C187.082 61.7056 188.079 64.1122 188.881 66.5837C189.683 69.0553 190.312 71.5703 190.681 74.1069C190.876 74.779 190.962 74.3454 191.049 74.0635C190.897 76.0148 191.656 75.798 191.916 76.817C191.815 77.7854 191.685 78.7393 191.526 79.6788C191.851 80.7845 192.003 79.8956 192.177 79.939C192.328 81.2832 192.372 82.6057 192.35 83.9282C192.285 85.2507 192.155 86.5516 191.938 87.809C191.483 90.324 190.746 92.6872 189.857 94.8119C189.401 95.3972 189.315 95.2238 189.206 95.1371C189.098 95.0503 188.99 95.0287 188.469 95.7875C188.968 95.3539 189.055 95.4406 188.924 95.7875C188.881 95.9826 188.751 96.2211 188.578 96.5029C188.404 96.7848 188.187 97.0883 187.949 97.3918C187.082 98.5626 185.868 99.5599 186.431 99.3865C185.954 99.5599 185.391 99.8634 184.805 100.167C184.48 100.34 184.133 100.514 183.808 100.687C183.461 100.817 183.136 100.969 182.811 101.121C181.531 101.62 180.512 101.75 180.708 101.099C180.209 101.251 179.84 101.359 179.602 101.468C179.363 101.576 179.255 101.685 179.212 101.771C179.147 101.923 179.428 102.031 179.754 101.988C179.45 102.075 179.147 102.147 178.843 102.205C178.54 102.263 178.243 102.313 177.954 102.357C177.39 102.443 176.827 102.552 176.285 102.595C175.764 102.66 175.222 102.747 174.702 102.812C174.182 102.877 173.683 102.964 173.163 103.029C172.469 102.899 169.607 102.877 166.659 102.313C165.943 102.14 165.206 101.988 164.512 101.815C163.818 101.598 163.168 101.403 162.561 101.186C161.455 100.774 160.566 100.384 160.089 99.9935C161.108 100.904 159.742 100.145 158.333 99.8851L159.396 100.796L157.856 100.21L156.36 99.5599C155.732 99.3648 155.558 99.2781 155.58 99.2347C155.081 98.9745 155.818 99.0179 154.582 98.3241C153.585 97.8688 153.043 97.6737 152.588 97.5653C152.133 97.4569 151.786 97.4352 151.179 97.2834L151.439 97.5003C150.983 97.3051 150.528 97.0883 150.095 96.8715C149.596 96.6113 150.528 96.9582 151.179 97.11C151.851 97.2618 152.241 97.2618 150.702 96.3295C150.593 96.4379 148.403 96.0693 147.731 95.2888C149.314 96.1777 149.292 95.7441 148.75 95.3105L146.539 94.053L146.973 95.0287C140.533 91.4514 134.42 86.9201 128.024 82.519C128.414 82.1287 123.536 79.3319 124.598 79.0501L124.793 79.2886C126.398 80.3292 124.707 78.4647 123.406 77.6192C124.577 78.7899 120.566 76.5785 123.688 78.985L120.999 77.5107C118.701 77.7926 114.517 72.6109 110.528 70.2478C110.831 70.3995 110.961 70.3778 111.004 70.3562C107.427 68.2965 103.915 64.5024 103.004 64.1338L102.983 63.5701C99.7956 62.0091 99.4271 61.7923 96.24 59.0823C96.3267 59.0606 96.782 59.2557 96.3051 58.8004C95.3077 58.4535 94.3104 58.1066 92.0773 56.3505L92.2508 56.3071L88.6084 53.7488C88.9987 53.2068 87.3293 52.2529 85.5298 51.2122C83.7086 50.1715 81.7791 49.0441 81.6273 48.0685C80.695 47.8951 77.9199 46.1823 76.6191 45.5536C76.6408 45.5102 76.5974 45.4018 76.424 45.2067C75.5134 45.0549 74.5161 44.3611 73.5188 43.559C72.5215 42.8001 71.5675 41.9329 70.722 41.4993C69.5729 41.0223 69.9198 41.4993 70.2667 41.9546C69.3778 41.0874 67.8385 40.4153 66.4509 39.8733C65.7571 39.6348 65.1067 39.3963 64.5864 39.2012C64.066 39.006 63.6758 38.8543 63.5023 38.7025C61.963 37.857 63.1338 37.9437 62.8302 37.4667C61.6378 36.9681 61.5944 37.2933 61.5077 37.4884C61.421 37.6835 61.2692 37.7486 59.795 36.8163C60.1852 36.903 60.879 37.1849 60.6405 36.9897C60.0551 36.6645 59.383 35.9274 58.6459 35.2553C57.9087 34.6049 57.1282 33.9545 56.4345 33.8894C56.6946 34.0629 56.9548 34.2363 57.1933 34.4098C56.5862 34.2797 55.9792 34.0629 55.3721 33.781C54.7651 33.4992 54.158 33.239 53.5943 32.9788C53.0523 32.7187 52.5536 32.5669 52.1417 32.4585C51.7515 32.3718 51.4479 32.3935 51.3179 32.6103L51.4696 33.0439C49.4967 32.4368 49.0197 32.5019 48.5861 32.5235C48.3693 32.5235 48.1525 32.5235 47.7189 32.5235C47.3069 32.5235 46.6782 32.4368 45.6375 32.4585L45.6809 32.3935C45.4641 32.4151 45.2473 32.4368 45.0522 32.4585C44.8643 32.4874 44.6764 32.5163 44.4885 32.5452C44.1416 32.5886 43.8164 32.6103 43.5345 32.6753C42.9925 32.8271 42.5372 32.9788 42.277 33.4558C42.4505 33.3908 42.6673 33.3908 42.8624 33.3474C42.7323 33.3908 42.6095 33.4341 42.4938 33.4775C42.3854 33.5209 42.2987 33.5642 42.1903 33.6076C42.0024 33.7088 41.829 33.7955 41.67 33.8677C41.511 33.94 41.3665 34.0051 41.2364 34.0629C41.1063 34.1496 40.9762 34.2291 40.8461 34.3014C40.586 34.4531 40.3475 34.6049 40.0439 34.8C39.7404 35.0168 39.4152 35.277 38.9816 35.6022C38.8298 35.8407 38.1794 36.6429 37.8542 36.7946C38.0493 37.0331 37.2688 38.0087 36.5534 39.2012C36.3582 39.5047 36.1848 39.8299 36.033 40.1334C35.8596 40.437 35.6862 40.7405 35.5344 41.0007C35.2742 41.5643 35.0574 42.0413 34.949 42.2581C35.5561 40.567 35.0141 41.2608 34.6238 41.6511C34.6238 41.9546 34.6021 42.2148 34.5804 42.4533C34.5515 42.5833 34.5226 42.7062 34.4937 42.8218C34.4793 42.9374 34.4576 43.0531 34.4287 43.1687C34.3203 43.6457 34.0601 44.1227 33.7783 44.8164C34.0818 44.9899 34.407 45.185 34.6021 45.6403C34.7105 45.8788 34.7972 46.1823 34.8189 46.5942C34.8334 46.7966 34.8551 47.0279 34.884 47.288C34.9057 47.5482 34.884 47.83 34.884 48.1552C34.7972 47.765 34.7756 47.1146 34.6238 47.3747C34.4504 47.6349 34.5804 48.2636 34.6672 48.4805C34.5371 48.7623 34.3853 47.8734 34.1685 48.1769C34.342 48.6539 34.4287 49.0658 34.5154 49.4994C34.6021 49.9331 34.6238 50.3667 34.6672 50.822C34.7322 51.2773 34.7756 51.7542 34.8623 52.2962C34.9201 52.5709 34.9924 52.8527 35.0791 53.1418C35.1225 53.3008 35.1658 53.4525 35.2092 53.5971C35.267 53.7561 35.3248 53.9151 35.3826 54.074C34.9273 53.2935 35.0141 54.0524 34.884 54.4426C35.1008 54.4426 35.2309 54.6811 35.3176 55.028C35.4043 55.3749 35.5127 55.8085 35.5777 56.2204C35.6428 56.6324 35.7078 57.0009 35.8162 57.1744C35.903 57.3478 36.0114 57.3261 36.1414 57.0009C36.51 58.3451 37.1387 59.8411 37.8542 61.337C38.613 62.8113 39.4586 64.3073 40.3258 65.6732C42.0169 68.4049 43.6646 70.6597 44.0765 71.7654C44.2066 72.4375 45.5508 73.4565 46.2012 74.237L45.8327 74.3454C48.0874 76.1882 47.372 75.9498 49.9736 78.1395C48.7812 77.3156 48.998 77.8793 49.6484 79.1585L51.6647 80.4593L51.5563 81.1531C52.3152 81.7385 52.9439 82.5623 53.5509 83.4079C54.5916 83.7331 56.9331 86.4432 57.5619 86.66C57.7136 87.9174 59.5348 88.6112 59.5348 89.6085C59.8383 89.8036 60.1852 90.0638 60.5538 90.3673C60.4671 89.8036 60.5971 89.4134 61.1175 90.2156C61.1608 90.2806 61.2042 90.324 61.2692 90.3673L61.2259 90.9527C61.9413 91.5814 62.6134 92.2752 63.047 92.7305C62.8953 92.492 62.7218 92.2102 62.5701 91.885C62.7869 92.2319 62.982 92.5571 63.1771 92.8606C63.2639 92.969 63.3506 93.0557 63.4156 93.1208C63.3578 93.0919 63.3 93.0485 63.2422 92.9907C63.5674 93.4893 63.9359 93.9663 64.608 94.465C66.3642 97.3702 70.2233 99.3648 72.0011 102.704C71.6976 102.227 71.2206 101.62 70.9605 101.555C73.0418 103.831 74.6028 106.519 76.1204 107.799L76.3156 107.452C77.9199 109.056 79.134 110.313 80.2614 111.766L80.6734 111.571C81.4539 112.655 82.8631 114.238 84.0989 115.799C85.313 117.36 86.3537 118.921 86.4404 119.875C87.1125 120.222 88.4133 123.04 89.2805 124.341L89.1938 124.861C89.6274 125.772 90.0394 126.465 90.3863 127.116C90.5597 127.419 90.7259 127.709 90.8849 127.983C91.0439 128.272 91.1957 128.547 91.3402 128.807C91.9039 130.845 92.5977 132.731 93.1397 134.639C93.7034 136.547 94.1153 138.52 94.0069 140.493L93.9202 140.536C93.8985 141.859 93.8118 143.225 93.4649 144.547C93.4649 143.42 93.4866 145.393 92.8578 146.52C92.7711 146.824 92.5543 147.236 92.3592 147.626C92.1641 148.038 91.8388 148.406 91.557 148.797C91.2318 149.165 90.8849 149.512 90.538 149.815C90.1695 150.097 89.8226 150.379 89.4757 150.574C89.1071 150.834 88.7602 151.116 88.3916 151.355C88.0231 151.572 87.6545 151.81 87.2642 152.027C88.4567 151.181 88.3266 151.095 87.893 151.203C87.6762 151.268 87.3726 151.333 87.1125 151.42C86.8523 151.463 86.6355 151.463 86.5488 151.398L85.9201 151.897L85.2696 152.352C84.6192 152.417 86.0718 151.68 84.9878 152.049C84.771 152.2 84.4241 152.374 84.0338 152.547C83.8315 152.634 83.6147 152.728 83.3834 152.829C83.1666 152.916 82.9354 153.003 82.6897 153.089C82.2344 153.263 81.7791 153.436 81.3671 153.588C80.9769 153.74 80.63 153.891 80.4349 154.043C80.5866 154.108 80.9769 154.13 81.4322 154.087C81.5406 154.022 81.5406 154.043 81.4755 154.087C81.4972 154.087 81.5406 154.087 81.5839 154.065C81.5189 154.087 81.4972 154.087 81.4539 154.087C81.3238 154.152 81.1503 154.282 81.0853 154.347C79.1991 154.65 79.9145 154.65 80.0229 154.824C79.4592 154.78 78.9823 154.78 78.527 154.78C78.0934 154.802 77.7031 154.824 77.3129 154.845C76.9443 154.867 76.5757 154.867 76.1855 154.845C75.9036 154.824 75.6218 154.78 75.2966 154.694C75.9036 154.932 74.8196 155.062 73.6488 155.127C72.3697 155.214 70.9821 155.236 71.6542 155.604C70.0932 155.041 70.5919 155.604 69.5946 155.106C71.7626 155.257 73.909 154.564 75.6001 154.108C75.0364 154.043 74.451 153.978 73.8873 153.891C74.4077 153.501 75.3399 153.48 76.2939 153.501C76.7709 153.501 77.2478 153.501 77.6598 153.501C78.0717 153.48 78.4403 153.436 78.6787 153.328C78.0717 153.61 76.6624 153.653 76.4456 153.545L76.9226 153.978C79.3942 153.87 81.2804 153.024 82.8631 152.265C82.0392 152.417 82.4945 152.2 82.9932 151.94C83.4918 151.658 84.0122 151.333 83.3834 151.355C83.0149 151.528 82.6029 151.658 82.2127 151.81C81.8875 151.788 82.0392 151.658 82.3211 151.485C82.6029 151.333 83.0365 151.116 83.3401 150.921C84.294 150.704 85.4214 150.249 86.5271 149.664C87.6111 149.057 88.6735 148.211 89.454 147.257C89.6419 147.011 89.8226 146.766 89.996 146.52C90.1478 146.282 90.2779 146.021 90.4296 145.761C90.6681 145.263 90.8632 144.764 91.0583 144.352C91.2101 143.897 91.3402 143.506 91.4703 143.181C91.5787 142.856 91.6654 142.596 91.7521 142.422C91.6871 142.618 91.622 142.856 91.557 143.116C91.492 143.376 91.4052 143.658 91.3402 143.94C91.2318 144.504 91.0584 145.024 90.9933 145.393L91.4703 144.547L91.8389 143.658C91.7305 144.027 91.622 144.395 91.4486 144.721C91.2535 145.046 91.08 145.371 90.8849 145.718C90.4296 146.39 89.9526 147.127 89.2155 148.016C89.4757 147.973 89.4106 148.363 89.454 148.623C89.4757 148.883 89.6491 149.078 90.4947 148.493C90.7331 148.276 90.9066 148.038 91.1017 147.843C91.2535 147.626 91.4486 147.431 91.557 147.214C91.6726 147.011 91.781 146.816 91.8822 146.628C91.9834 146.441 92.0557 146.267 92.099 146.108C92.2941 145.458 92.4242 144.937 92.4242 144.374C92.4459 144.092 92.4459 143.81 92.4676 143.485C92.4893 143.181 92.4676 142.834 92.4893 142.444C92.5326 142.076 92.5326 141.62 92.5543 141.122C92.5977 140.623 92.576 140.038 92.5977 139.365C92.5326 139.105 92.6844 139.387 92.8145 139.365C92.8578 139.365 92.9446 139.279 92.9662 139.019C92.9662 138.758 92.9446 138.303 92.8362 137.588C92.4676 135.766 91.7521 134.357 91.1234 133.403C90.473 132.493 89.9093 132.037 89.5624 132.168C89.9093 132.796 90.4296 133.772 90.7331 134.661C90.9066 135.116 90.9933 135.55 91.0367 135.897C91.1017 136.243 91.08 136.525 90.9499 136.655C90.7115 135.983 90.4296 135.051 90.1044 134.336C89.8009 133.577 89.4323 133.035 89.2589 133.035C89.3022 132.233 89.5624 132.84 89.8009 133.403C89.931 133.685 90.0177 133.967 90.0827 134.054C90.1478 134.119 90.1911 134.01 90.1695 133.512C89.8226 132.558 89.4973 132.233 89.2155 131.842C89.7142 132.363 89.2805 130.845 89.2805 130.52C88.9337 129.761 88.6735 129.089 88.37 128.46C88.2254 128.142 88.0809 127.831 87.9364 127.528C87.7918 127.224 87.6473 126.921 87.5027 126.617C86.939 125.425 86.2886 124.211 85.3564 122.693C85.3347 122.476 85.2696 122.043 85.4431 122.064C84.3591 120.677 82.1693 119.203 82.2344 119.961C81.0202 118.335 81.1937 118.075 80.0013 116.796C81.237 119.333 79.7628 116.319 79.1124 116.449C77.9633 115.105 78.9606 115.799 78.5487 115.062C78.3319 114.888 77.7248 114.454 77.573 114.52C77.2478 113.392 79.8061 115.43 79.4159 114.108C79.134 113.219 77.1611 109.858 77.0093 109.641C76.0771 109.316 74.6678 110.834 74.9714 112.221C74.6028 112.33 74.1692 110.704 73.6922 110.097C72.6732 108.015 71.1339 107.777 70.0716 106.238L71.2423 107.105C71.1556 106.78 69.2043 104.828 68.749 104.633C68.8574 104.46 70.4401 105.045 70.0499 104.243C67.9035 101.663 64.9549 100.015 64.6514 100.557L68.5539 103.983C68.3154 104.438 65.7571 101.598 65.4536 102.14L62.3966 98.4976C62.8086 98.9312 64.1528 100.21 63.8709 99.4949C62.4833 97.9989 63.2205 98.6493 62.4617 97.4786C64.4996 98.8011 68.5539 100.926 70.1366 101.576L68.2504 99.9501L68.0336 99.2997C65.6054 97.1967 62.2665 96.3295 61.3126 96.0476C60.1635 94.595 61.3776 94.3782 61.8112 94.5734C59.4264 91.8633 58.3207 92.904 56.0009 90.0855L56.738 91.2562C56.0876 90.6925 54.158 88.1993 54.2447 88.5895C53.9846 87.9174 54.0062 87.0719 54.5483 87.3321L51.8599 85.6627C52.2284 85.8578 52.6404 85.1423 52.8789 85.1857C52.0767 84.2317 50.8192 84.145 51.0794 84.7737C49.9303 82.5623 50.0821 83.2127 49.2799 81.1964C48.7595 80.6761 48.6511 81.8252 48.933 82.3022C47.6755 81.1531 47.1118 80.3075 46.6782 79.6138C48.7379 81.565 48.5861 79.0284 49.4316 79.0284C47.5237 78.0094 45.5942 76.9904 43.708 75.8847C43.9465 75.9497 44.8787 75.8414 44.9221 75.7546C44.4885 75.798 43.1659 74.4538 41.7567 72.7193C40.3475 70.9849 38.8949 68.8168 38.0277 67.3426L38.2878 67.7762C38.8732 68.2098 37.4856 65.6298 36.6618 64.7192C36.9003 64.8059 36.987 65.0661 37.2688 65.5214C37.0954 64.9577 36.8569 64.5458 36.5751 64.2206C36.3149 63.8737 36.0114 63.6135 35.7078 63.3533C35.1008 62.833 34.5371 62.2476 34.2986 61.0552C35.1875 63.0064 35.6861 63.2232 35.8813 62.9848C35.3609 62.291 34.6888 60.9901 34.1685 59.9928C33.8867 59.5159 33.6699 59.0823 33.4531 58.8438C33.2579 58.627 33.0845 58.5836 32.9761 58.8654C32.6725 57.7597 32.2606 56.8058 32.6942 56.7408C32.3473 56.112 32.0872 55.4182 31.7836 54.7461C31.6319 54.3993 31.5235 54.0524 31.3717 53.7055C31.2633 53.3369 31.1115 52.99 31.0031 52.6431C31.1549 52.9467 31.4584 53.1635 31.285 51.8843C31.3284 52.1878 31.3862 52.4914 31.4584 52.7949C31.5235 53.0984 31.6102 53.3803 31.7186 53.6621C31.8053 53.9512 31.8993 54.2258 32.0004 54.486C32.1161 54.7461 32.2245 54.9991 32.3257 55.2448C32.7376 56.2421 33.1278 57.0443 33.0845 57.7381C33.6048 57.608 33.5615 56.6757 34.3853 57.5646C33.4314 55.505 32.6942 53.8789 32.0221 52.383C31.8631 52.0072 31.7114 51.6386 31.5668 51.2772C31.4368 50.9014 31.3067 50.5329 31.1766 50.1715C31.0248 49.8247 30.9381 49.4561 30.8297 49.0658C30.743 48.6973 30.6346 48.307 30.5479 47.9168C30.6563 47.1796 30.7213 46.4642 30.9164 45.7487C31.0465 45.0116 31.2633 44.3178 31.5018 43.624L31.285 43.3855C31.5596 43.1976 31.8342 43.0169 32.1089 42.8435C32.1305 42.2798 32.1305 41.9112 32.2389 41.8245C32.3257 41.7595 32.3473 41.9112 32.3473 42.128C32.4774 41.7161 32.5858 41.3259 32.6075 41.1091C32.781 41.1091 32.8894 41.3042 32.9544 41.6077C33.0194 41.9112 33.0411 42.3015 33.1062 42.7351C32.8894 43.0386 32.6509 43.3638 32.4341 43.7107C32.5641 44.5779 32.7593 45.1633 33.1929 44.166C33.1712 44.0143 33.1712 43.7974 33.1929 43.6023C33.2796 44.1227 33.4314 44.4695 33.5831 44.1443C33.6482 43.6674 33.7783 43.1904 33.865 42.6917C33.9951 42.2148 34.1468 41.7378 34.2986 41.2391C34.0818 41.5427 33.7132 41.9329 33.3013 42.4316C33.388 41.9546 33.4747 41.4559 33.5615 41.0007C33.6265 40.5237 33.6699 40.1117 33.7132 39.8082C33.7783 39.1795 33.6482 38.941 33.0411 39.6565C33.5398 38.9844 33.9734 38.2906 34.5371 37.6835C35.0141 36.2743 35.3826 35.754 35.7078 35.1252C35.7946 34.9735 35.903 34.8217 36.033 34.6482C36.1631 34.4965 36.2932 34.3014 36.445 34.1062C36.6184 33.8894 36.7919 33.6509 37.0303 33.3908C37.2688 33.1306 37.5724 32.8271 37.8976 32.4802C38.1794 32.5452 37.529 33.304 38.1361 33.0005C38.2517 32.8704 38.3673 32.7331 38.4829 32.5886C38.613 32.4802 38.7648 32.3718 38.9166 32.2634C39.2201 32.0466 39.5453 31.8298 39.8705 31.6563C40.2174 31.4829 40.586 31.3745 40.9329 31.2444C41.1063 31.1866 41.2797 31.136 41.4532 31.0926C41.6483 31.0493 41.8218 31.0276 41.9952 30.9842C42.3276 30.9264 42.6456 30.8758 42.9491 30.8325C43.2527 30.7674 43.5345 30.7891 43.7513 30.7457C44.2283 30.7024 44.5535 30.6157 44.6836 30.4205C45.7026 30.2254 45.9194 30.0736 46.0278 29.9219C46.0928 29.8568 46.1362 29.7918 46.2229 29.7051C46.3313 29.64 46.5048 29.575 46.8516 29.5316C46.7866 29.5967 46.6782 29.7267 47.0685 29.7267C47.5888 29.5967 48.1525 29.4015 48.6945 29.3148C49.3232 29.5316 47.2202 29.5099 48.998 29.8352C49.3883 29.8207 49.7568 29.8135 50.1037 29.8135C50.4506 29.8279 50.7831 29.8352 51.101 29.8352C51.419 29.8496 51.7298 29.8713 52.0333 29.9002C52.3224 29.9436 52.6115 29.9797 52.9005 30.0086C54.0279 30.1604 55.0686 30.4639 56.2393 30.9192C57.9304 31.4178 57.6486 31.0926 57.28 30.7674C56.9114 30.4422 56.4561 30.117 57.9087 30.6373C58.2123 31.1143 58.4291 31.6563 60.1202 32.3718C61.1175 32.5235 61.1175 32.1983 62.7002 32.7187L62.3966 33.1956C63.0904 33.4992 63.7191 33.7593 64.1528 33.9978C64.608 34.2146 64.8465 34.4314 64.7598 34.6266C65.9739 34.9735 66.7111 35.3854 67.2314 35.7756C69.3995 36.5995 66.2775 33.9761 65.8655 33.5642C66.7978 34.258 67.6216 34.735 68.3371 35.2119C69.0309 35.6672 69.6163 36.1008 70.0065 36.7079C69.3995 36.4261 68.7924 36.1442 68.1853 35.884C71.5892 38.5291 72.0878 37.1849 73.1936 39.2012C71.9794 38.4207 70.3317 37.7919 70.9171 38.4857L72.8683 39.3096C72.9984 39.5481 71.7843 38.7892 72.5215 39.418C73.0852 39.6131 74.2776 40.025 74.8413 40.1334L74.7979 40.1551C75.7952 40.7188 76.7492 41.3259 77.7248 41.9112C77.3779 41.7378 77.3129 41.8462 77.7898 42.1714L80.0229 43.2988C79.3075 42.9953 79.8712 43.559 80.7384 44.2527C83.2967 46.1606 83.5569 44.643 85.2913 46.5075C84.9878 46.2907 84.9011 46.3124 84.6192 46.0956L85.5081 47.0279C85.9634 46.6376 87.5244 47.6783 89.0637 48.7406C90.6031 49.803 92.1207 50.8653 92.5977 50.4751C93.7684 51.9277 92.5326 50.7786 90.3212 49.868L91.6871 51.2772C91.015 50.8436 90.538 50.3883 89.8009 49.9981ZM78.05 42.1064C77.9488 42.0341 77.8404 41.9691 77.7248 41.9112C77.826 41.9546 77.9344 42.0196 78.05 42.1064ZM51.8165 85.641L51.8599 85.6627C51.8454 85.6482 51.831 85.641 51.8165 85.641ZM54.6783 87.4188C54.635 87.3899 54.5916 87.361 54.5483 87.3321L54.6783 87.4188ZM76.4023 153.501C76.4023 153.516 76.4095 153.53 76.424 153.545L76.4023 153.501ZM75.0364 154.585C75.1231 154.629 75.2099 154.657 75.2966 154.672C75.2388 154.643 75.152 154.614 75.0364 154.585ZM53.5509 83.4079C53.2474 83.061 53.3775 83.2778 53.3341 83.3645C53.4064 83.3645 53.4787 83.379 53.5509 83.4079ZM159.981 99.8851C160.01 99.914 160.046 99.9502 160.089 99.9935C160.06 99.9646 160.024 99.9285 159.981 99.8851ZM186.561 99.3431C186.503 99.3576 186.46 99.372 186.431 99.3865C186.475 99.372 186.518 99.3576 186.561 99.3431ZM156.816 95.9176C156.873 95.9465 156.924 95.9682 156.967 95.9826C156.91 95.9537 156.859 95.932 156.816 95.9176ZM116.403 69.1204L116.36 69.077C116.374 69.0915 116.389 69.1059 116.403 69.1204ZM69.1826 36.6862C68.9442 36.2743 67.8168 35.9924 67.2964 35.7973C68.0769 36.361 68.4021 36.7946 69.1826 36.6862ZM31.827 45.5102C31.8559 45.3657 31.8776 45.2211 31.892 45.0766C31.921 44.9321 31.9426 44.7875 31.9571 44.643C31.7836 45.0116 31.6969 45.3584 31.6319 45.662C31.5885 45.9655 31.5668 46.2474 31.6102 46.4858C31.6969 46.139 31.7692 45.8137 31.827 45.5102ZM91.5136 148.211C91.5353 148.168 91.5136 148.211 91.4052 148.32C91.3185 148.428 91.1451 148.623 90.8632 148.862C90.8488 148.89 90.8343 148.912 90.8199 148.927C91.2101 148.58 91.4486 148.254 91.5136 148.211ZM88.435 150.813C88.2182 151.03 88.2616 151.073 88.3916 151.051C88.4567 150.943 88.6084 150.791 88.8469 150.618C89.0637 150.423 89.3673 150.227 89.6708 149.967C89.5407 149.989 89.4106 150.076 89.2155 150.206C88.9987 150.314 88.7602 150.509 88.435 150.813ZM155.493 98.8878C155.623 98.989 155.76 99.0902 155.905 99.1913C156.252 99.1913 156.599 99.213 155.493 98.8878Z" fill="#1F1F1F"/>
<path d="M32.3042 41.2609C32.4343 41.1308 32.521 41.1091 32.6077 41.1091C32.6294 40.8706 32.5644 40.8489 32.3042 41.2609Z" fill="#1F1F1F"/>
<path d="M106.126 61.7274L106.213 61.7708C106.257 61.7852 106.293 61.7852 106.322 61.7708L106.126 61.7274Z" fill="#1F1F1F"/>
<path d="M78.0502 115.43C77.7683 114.997 77.6382 114.715 77.5732 114.52C77.4865 114.563 77.5732 114.801 78.0502 115.43Z" fill="#1F1F1F"/>
<path d="M74.6465 155.539L76.3376 155.257C75.5137 155.366 75.2102 155.301 74.7766 155.279C74.8416 155.366 75.1668 155.474 74.6465 155.539Z" fill="#1F1F1F"/>
<path d="M60.1636 152.916C59.9034 152.938 59.6433 152.873 59.4048 152.916L59.4481 153.111C60.4888 153.176 61.2043 153.046 60.1636 152.916Z" fill="#1F1F1F"/>
<path d="M72.977 154.26C72.8252 153.913 71.7845 154.087 70.6138 154.195C70.686 154.195 70.7583 154.195 70.8306 154.195C70.4837 154.694 71.7412 154.498 72.977 154.26Z" fill="#1F1F1F"/>
<path d="M70.3538 154.217C69.9853 154.238 69.6167 154.26 69.2698 154.238C69.1397 154.455 69.7034 154.282 70.3538 154.217Z" fill="#1F1F1F"/>
<path d="M85.2913 152.764C84.706 152.916 85.1179 153.328 84.7276 153.306C84.6192 153.458 84.7927 153.436 85.0529 153.306C85.313 153.176 85.6816 152.938 85.9634 152.721C86.267 152.526 86.4621 152.309 86.397 152.287C86.3754 152.265 86.2886 152.287 86.1152 152.374C85.9201 152.439 85.6599 152.569 85.2913 152.764Z" fill="#1F1F1F"/>
<path d="M71.958 153.154L72.4133 153.566C72.6156 153.436 72.8252 153.306 73.042 153.176C72.6735 153.176 72.3266 153.154 71.958 153.154Z" fill="#1F1F1F"/>
<path d="M81.0635 152.266C80.4347 152.396 79.8277 152.461 79.2206 152.547C79.264 152.612 79.0255 152.721 78.7437 152.786C79.329 152.699 79.9144 152.591 80.348 152.504C80.8033 152.417 81.0852 152.331 81.0635 152.266Z" fill="#1F1F1F"/>
<path d="M78.7436 152.786C78.1582 152.873 77.6162 152.981 77.291 153.089C77.6162 153.046 78.2883 152.916 78.7436 152.786Z" fill="#1F1F1F"/>
<path d="M74.4731 152.851L75.0152 152.894C75.4488 152.851 75.8824 152.829 76.316 152.786C75.7089 152.829 75.0802 152.829 74.4731 152.851Z" fill="#1F1F1F"/>
<path d="M92.1861 137.913C92.1427 137.566 92.056 137.241 91.9909 136.894C91.9259 136.569 91.8609 136.243 91.7525 135.918C91.5573 135.745 91.6007 136.287 91.7741 137.024C91.8609 137.262 91.9476 137.566 92.0126 137.761C92.0777 137.956 92.1427 138.065 92.1861 137.913Z" fill="#1F1F1F"/>
<path d="M90.4951 143.723C90.7336 143.268 90.842 143.246 91.0588 143.008L90.5385 142.813C90.5385 143.116 90.5168 143.42 90.4951 143.723Z" fill="#1F1F1F"/>
<path d="M90.9069 138.26C90.8635 138.216 90.7985 138.021 90.7335 137.783C90.6467 137.566 90.56 137.328 90.495 137.154C90.3432 136.807 90.2782 136.764 90.4733 137.935C90.6467 138.108 90.9069 139.994 90.9069 138.26Z" fill="#1F1F1F"/>
<path d="M77.248 112.113L77.5733 112.503L78.2237 111.875L77.248 112.113Z" fill="#1F1F1F"/>
<path d="M57.9954 93.5544C59.448 95.4623 58.7759 93.5978 60.0334 95.3756C60.5537 95.6574 59.0144 93.923 59.5347 94.2265C58.4073 93.3159 57.9737 92.6655 57.9954 93.5544Z" fill="#1F1F1F"/>
<path d="M59.5352 94.2266C59.7086 94.3856 59.9037 94.5373 60.1205 94.6818C59.7953 94.4217 59.6436 94.2916 59.5352 94.2266Z" fill="#1F1F1F"/>
<path d="M175.136 38.6375L174.333 37.2716L174.724 38.2689L175.136 38.6375Z" fill="#1F1F1F"/>
<path d="M172.773 36.6646L172.99 36.0142L171.992 35.6023C172.231 35.8625 172.708 36.3611 172.773 36.6646Z" fill="#1F1F1F"/>
<path d="M63.8707 32.8489L63.6973 32.9139C63.8707 33.1524 64.1959 33.3042 64.868 33.6511C64.5428 33.3692 64.1959 33.109 63.8707 32.8489Z" fill="#1F1F1F"/>
<path d="M81.9525 43.9058L81.6489 43.7107L81.9308 44.4912L81.9525 43.9058Z" fill="#1F1F1F"/>
<path d="M96.6518 53.5539C96.0881 53.0986 95.3293 52.7083 94.7656 52.2531C96.0881 53.0986 96.4133 54.1826 96.6518 53.5539Z" fill="#1F1F1F"/>
<path d="M192.155 159.745C192.155 159.745 191.049 167.312 183.526 174.9H177.108V170.325C177.108 170.325 179.537 166.9 183.938 163.799L185.672 165.36L185 163.062C187.038 161.74 189.445 160.547 192.155 159.745Z" fill="#40624A"/>
<path d="M178.149 175.377C178.149 175.377 185.629 165.881 191.158 160.829" stroke="#0F0E13" stroke-linecap="round" stroke-linejoin="round"/>
<path d="M102.614 170.867C102.614 170.867 98.1045 169.241 91.4702 168.764C91.4702 168.764 94.5055 172.71 100.598 174.9H107.145L102.614 170.867Z" fill="#181820"/>
<path d="M22.7645 171.019C22.7645 171.019 18.2983 165.556 12.748 164.146C12.748 164.146 13.5069 170.911 18.6018 174.9H26.4285C26.4285 174.9 30.1576 170.087 30.4394 166.076C26.7971 166.553 22.7645 171.019 22.7645 171.019Z" fill="#181820"/>
<path d="M119.525 167.767V174.9H106.69C106.69 174.9 99.991 172.19 94.7443 164.515L97.3677 162.585L93.6603 162.802C92.186 160.33 90.8852 157.425 89.9746 154C89.9746 154 98.0832 155.387 105.281 161.761L104.566 165.425L106.82 163.192C108.1 164.493 109.335 165.946 110.463 167.615C109.726 166.401 104.587 155.192 105.758 149.078C105.758 149.078 108.143 150.076 112.631 155.062L111.07 157.816L114.018 156.71C115.991 159.29 118.008 162.867 119.525 167.767Z" fill="#40624A"/>
<path d="M92.4458 156.341L112.804 175.377" stroke="#0F0E13" stroke-linecap="round" stroke-linejoin="round"/>
<path d="M106.994 151.506L118.614 175.203" stroke="#0F0E13" stroke-linecap="round" stroke-linejoin="round"/>
<path d="M167.548 174.9H116.1V149.425H167.548V174.9Z" fill="#BA3E3E"/>
<path d="M165.705 173.144H117.964V169.155V152.829H165.705V173.144Z" stroke="#181820" stroke-miterlimit="10"/>
<path d="M167.548 174.9H178.54V149.425H167.548V174.9Z" fill="#181820"/>
<path d="M127.287 149.425H125.487V141.924H127.287V149.425Z" fill="#181820"/>
<path d="M125.921 149.425H124.122V141.924H125.921V149.425Z" fill="#BA3E3E"/>
<path d="M172.187 149.425H170.388V141.924H172.187V149.425Z" fill="#E58DB3"/>
<path d="M172.187 149.425H170.388V141.924H172.187V149.425Z" fill="#181820"/>
<path d="M170.821 149.425H169.022V141.924H170.821V149.425Z" fill="#BA3E3E"/>
<path d="M176.415 141.924H119.894V138.953H176.415V141.924Z" fill="#BA3E3E"/>
<path d="M134.723 161.371C134.723 165.447 131.406 168.764 127.33 168.764C123.254 168.764 119.959 165.447 119.959 161.371C119.959 157.295 123.254 154 127.33 154C131.406 154 134.723 157.295 134.723 161.371Z" fill="#181820"/>
<path d="M133.726 161.371C133.726 164.905 130.864 167.767 127.33 167.767C123.796 167.767 120.935 164.905 120.935 161.371C120.935 157.837 123.796 154.975 127.33 154.975C130.864 154.975 133.726 157.837 133.726 161.371Z" stroke="#E58DB3" stroke-width="1.5" stroke-miterlimit="10"/>
<path d="M163.71 161.371C163.71 165.447 160.393 168.764 156.317 168.764C152.241 168.764 148.946 165.447 148.946 161.371C148.946 157.295 152.241 154 156.317 154C160.393 154 163.71 157.295 163.71 161.371Z" fill="#181820"/>
<path d="M117.964 169.827H165.705" stroke="#181820" stroke-miterlimit="10"/>
<path d="M162.735 161.371C162.735 164.905 159.851 167.767 156.317 167.767C152.783 167.767 149.921 164.905 149.921 161.371C149.921 157.837 152.783 154.975 156.317 154.975C159.851 154.975 162.735 157.837 162.735 161.371Z" stroke="#E58DB3" stroke-width="1.5" stroke-miterlimit="10"/>
<path d="M147.124 169.827V164.797H136.891V169.827" fill="#181820"/>
<path d="M135.547 173.144H134.116V170.651H135.547V173.144Z" fill="#181820"/>
<path d="M137.607 173.144H136.154V170.651H137.607V173.144Z" fill="#181820"/>
<path d="M139.645 173.144H138.214V170.651H139.645V173.144Z" fill="#181820"/>
<path d="M141.704 173.144H140.273V170.651H141.704V173.144Z" fill="#181820"/>
<path d="M143.764 173.144H142.333V170.651H143.764V173.144Z" fill="#181820"/>
<path d="M145.802 173.144H144.371V170.651H145.802V173.144Z" fill="#181820"/>
<path d="M147.862 173.144H146.431V170.651H147.862V173.144Z" fill="#181820"/>
<path d="M149.921 173.144H148.49V170.651H149.921V173.144Z" fill="#181820"/>
<path d="M154.149 151.832H129.867V150.292H154.149V151.832Z" fill="#181820"/>
<path d="M128.804 26.1711C130.886 24.5017 130.929 19.732 131.146 18.3661C131.363 17.0219 132.859 11.2549 131.233 10.9947C130.43 10.9513 130.3 12.6424 129.867 14.16C129.476 15.5693 128.978 17.1953 128.978 17.1953C128.544 16.6316 127.438 16.8918 126.983 17.0002C126.875 16.8051 126.701 16.6533 126.484 16.6316C126.094 16.61 125.444 16.8268 125.01 17.0002C124.967 16.5666 124.273 12.057 123.471 10.2575C122.929 9.04343 120.999 8.80495 121.324 10.3659C121.585 11.515 123.037 20.0138 122.625 19.9704C122.192 19.9488 121.801 19.1899 121.801 19.1899C120.371 17.4121 118.029 17.3037 118.181 18.5612C118.311 19.8404 120.869 21.7266 121.281 22.919C121.65 23.938 121.997 24.5884 122.278 25.022C122.799 25.8459 123.059 26.7781 122.972 27.7321L121.259 47.5698L114.213 47.2446L112.392 60.5782C112.392 60.5782 129.91 60.253 132.121 56.5022C134.723 52.1011 129.65 29.7267 128.804 26.1711Z" fill="#AA5939"/>
<path d="M128.306 138.693H120.045C118.181 126.097 114.278 114.823 117.379 107.386C117.379 107.386 110.202 106.086 103.373 104.221L114.3 88.6978C117.812 90.0853 128.631 94.4214 129.888 95.809C133.075 99.3646 128.306 138.693 128.306 138.693Z" fill="#AA5939"/>
<path d="M66.4941 121.479C66.4941 121.479 66.4725 124.232 73.0634 123.538C81.1285 122.693 90.7547 120.091 90.4512 116.861C90.1477 113.717 86.3752 111.094 78.5485 112.373C73.8655 113.132 66.7326 116.406 66.4941 121.479Z" fill="#181820"/>
<path d="M103.807 84.5134C109.292 86.5948 119.352 89.9986 119.352 89.9986C122.43 94.2046 113.888 106.476 108.078 110.313C108.078 110.313 98.5167 105.175 89.2158 101.619C89.7361 109.923 90.4516 116.861 90.4516 116.861C89.9529 114.433 85.465 113.63 81.5625 114.129C73.8009 115.083 66.4945 119.181 66.4945 121.479C66.4945 121.479 64.5216 103.159 64.8034 98.8009C65.3455 91.0826 67.2967 88.8495 67.2967 88.8495L103.807 84.5134Z" fill="#4B8590"/>
<path d="M66.9497 117.49C66.9497 117.49 73.1503 113.132 80.7602 112.221C83.5787 111.896 87.4595 112.048 89.1723 113.262" stroke="white" stroke-miterlimit="10" stroke-linecap="round"/>
<path d="M107.492 108.405C107.492 108.405 119.59 97.0231 117.964 90.3021" stroke="white" stroke-miterlimit="10" stroke-linecap="round"/>
<path d="M95.1778 87.0501C89.9311 89.6518 84.2942 96.8931 74.5162 98.0855C69.8766 98.6492 66.2776 97.6953 64.9551 97.24C65.6055 90.7792 67.2966 88.8496 67.2966 88.8496L95.2645 85.5325C96.1318 85.9878 96.2618 86.5081 95.1778 87.0501Z" fill="#181820"/>
<path d="M105.324 45.6402C102.462 45.2066 90.0608 42.7134 84.0119 40.632C77.9847 38.5507 76.3153 37.4883 74.6676 37.8569C69.2474 39.0927 60.1416 57.4345 60.1416 57.4345C60.1416 57.4345 61.2907 59.299 65.8653 62.1608C66.7325 62.7028 68.8789 63.2449 70.57 63.6134C67.3395 73.0228 64.9113 82.8007 65.6268 92.1884C65.6268 92.1884 75.2963 99.4731 91.3183 89.0448C99.4919 83.733 107.535 85.9011 107.535 85.9011C109.053 83.2344 105.627 82.3671 105.367 81.6734C104.804 80.1557 106.104 79.0934 105.627 78.0093C104.869 76.2099 103.026 76.6435 102.592 74.8657C101.508 70.3127 101.682 65.1311 102.007 60.0361C104.5 61.0551 111.329 63.6785 115.839 63.5484C117.964 56.1336 119.546 49.3476 117.465 47.0495C114.278 46.8543 110.831 46.4858 105.324 45.6402Z" fill="#ECB041"/>
<path d="M75.145 63.3099C75.145 63.3099 76.6627 58.3884 78.3754 55.158C78.3754 55.158 77.4648 60.4263 78.4188 63.6784" fill="#181820"/>
<path d="M103.481 81.9552C103.481 81.9552 100.078 81.3699 95.1994 82.4756C90.3213 83.5813 84.5976 88.1776 81.2588 87.9608" stroke="#181820" stroke-width="1.5" stroke-miterlimit="10" stroke-linecap="round"/>
<path d="M102.463 78.3346C102.463 78.3346 97.3893 77.7925 93.0099 80.2858C88.4786 82.8441 87.7849 86.0745 83.2319 87.6572" stroke="#181820" stroke-width="1.5" stroke-miterlimit="10" stroke-linecap="round"/>
<path d="M102.311 28.6427C101.443 26.4096 99.7088 21.423 94.7873 20.6209C90.7114 19.9488 85.378 22.5071 85.0961 28.9679C84.9877 31.3094 86.2886 34.323 88.6084 36.7295L86.8306 43.5589L93.7684 50.8653L97.2589 45.9871L96.912 40.8705C97.2589 40.8994 97.613 40.9139 97.9744 40.9139C103.004 40.8272 104.262 33.6726 102.311 28.6427Z" fill="#AA5939"/>
<path d="M90.6032 129.089C90.3864 134.249 67.4266 164.146 67.4266 164.146H58.4292C58.4292 164.146 62.7653 144.547 72.6517 129.761L71.2641 122.151C75.9038 114.975 89.5625 113.804 89.866 117.121C90.2563 122.216 90.6465 127.853 90.6032 129.089Z" fill="#AA5939"/>
<path d="M98.9283 105.76C95.9581 104.395 92.5759 102.899 89.2154 101.62C89.2154 101.62 89.0203 97.9338 89.4756 97.0666C90.3645 95.3321 92.3808 96.156 94.0502 98.9745C95.7196 101.793 96.9554 104.525 98.9283 105.76Z" fill="#181820"/>
<path d="M126.94 17.5637C127.157 19.6234 127.59 21.5313 126.788 21.8565C126.441 21.9866 125.639 22.0733 125.357 21.8998C124.859 21.5746 124.685 20.2088 124.577 19.2548" stroke="#0F0E13" stroke-linecap="round" stroke-linejoin="round"/>
<path d="M129.238 17.7806C129.238 17.7806 129.801 20.0571 129.801 20.946C129.78 21.8783 127.915 22.0517 127.612 21.488C127.438 21.1628 127.135 19.1465 127.135 19.1465" stroke="#0F0E13" stroke-linecap="round" stroke-linejoin="round"/>
<path d="M123.406 21.0327C123.406 21.0327 125.986 21.3579 126.745 24.133" stroke="#0F0E13" stroke-linecap="round" stroke-linejoin="round"/>
<path d="M76.3589 166.098C73.2369 165.599 70.5918 166.423 70.5918 166.423L70.1365 166.076C70.7436 165.361 72.3913 163.258 72.2396 161.848C71.8927 158.921 65.5836 158.314 62.9819 159.637C61.486 160.396 61.2041 162.499 61.2258 164.147H58.429C58.429 164.147 56.2826 165.144 55.4154 168.353C54.5265 171.561 55.1553 174.9 55.1553 174.9H80.76C82.0175 170.109 80.0446 166.661 76.3589 166.098Z" fill="#E58DB3"/>
<path d="M81.1504 173.036H59.3614C56.6947 172.645 55.6757 169.567 55.0469 170.152C54.4182 170.737 54.5049 172.819 54.5916 173.664C54.635 174.163 54.7868 174.9 54.7868 174.9H81.3238C81.3238 174.9 81.584 174.185 81.6056 173.838C81.649 173.079 81.1504 173.036 81.1504 173.036Z" fill="#181820"/>
<path d="M70.1369 166.076C70.1369 166.076 68.7711 165.447 66.4946 165.491C63.3943 165.512 61.3346 165.989 61.3346 165.989L61.2262 164.147C61.2045 162.499 61.4864 160.396 62.9823 159.637C65.584 158.314 71.8931 158.921 72.24 161.848C72.3917 163.258 70.744 165.361 70.1369 166.076Z" fill="#181820"/>
<path d="M124.772 138.693C124.772 138.693 124.924 134.444 127.157 133.967C129.759 133.403 132.512 136.07 132.729 136.937C132.946 137.826 130.387 139.539 130.387 139.539L133.834 140.883C133.834 140.883 137.325 139.04 140.642 139.756C146.127 140.97 144.588 149.425 144.588 149.425H118.506C118.506 149.425 116.252 141.859 120.046 138.693H124.772Z" fill="#E58DB3"/>
<path d="M144.762 147.561H126.225C125.184 147.561 122.799 145.978 122.344 145.674C120.566 144.438 118.506 143.203 117.899 143.723C117.162 144.352 117.899 148.276 117.943 148.471V148.493C118.029 148.948 118.224 149.425 118.224 149.425H144.957C144.957 149.425 145.217 148.71 145.238 148.363C145.282 147.604 144.762 147.561 144.762 147.561Z" fill="#181820"/>
<path d="M130.387 139.539C126.68 139.084 124.772 140.037 124.772 140.037C124.75 139.452 124.772 138.693 124.772 138.693C124.772 138.693 124.924 134.444 127.157 133.967C129.758 133.403 132.512 136.07 132.729 136.937C132.945 137.826 130.387 139.539 130.387 139.539Z" fill="#181820"/>
<path d="M72.9116 129.544C72.9116 129.544 75.6867 126.032 79.3941 125.967" stroke="#0F0E13" stroke-linecap="round" stroke-linejoin="round"/>
<path d="M117.596 107.256C117.596 107.256 119.113 106.281 120.609 105.457" stroke="#0F0E13" stroke-linecap="round" stroke-linejoin="round"/>
<path d="M97.0852 43.3638C92.2288 42.2581 90.2559 38.1388 90.2559 38.1388C92.1421 39.6131 94.4185 40.6754 96.9118 40.8705L97.0852 43.3638Z" fill="#181820"/>
<path d="M65.9524 136.243L64.9551 135.788L105.411 45.8785L106.43 46.3338L65.9524 136.243Z" fill="#252A2A"/>
<path d="M106.279 48.979L103.547 47.7432L104.978 44.5562L107.71 45.7919L106.279 48.979Z" fill="#252A2A"/>
<path fill-rule="evenodd" clip-rule="evenodd" d="M113.824 39.6996L111.265 45.3799C110.463 47.1577 108.338 47.9599 106.561 47.1577L104.718 46.3339C102.918 45.5317 102.116 43.407 102.94 41.6292L105.498 35.9489C106.3 34.1494 108.403 33.3472 110.203 34.171L112.024 34.9949C113.824 35.7971 114.626 37.9001 113.824 39.6996ZM111.027 42.1061C111.157 41.8243 111.027 41.4991 110.745 41.369L106.279 39.3527C105.997 39.2226 105.672 39.3527 105.542 39.6346C105.411 39.9164 105.542 40.2416 105.823 40.3717L110.29 42.388C110.571 42.5181 110.897 42.388 111.027 42.1061ZM111.981 39.9598C112.111 39.6779 111.981 39.3527 111.699 39.2226L107.233 37.2063C106.951 37.0762 106.626 37.2063 106.495 37.4882C106.365 37.77 106.495 38.0952 106.777 38.2253L111.244 40.2416C111.525 40.3717 111.872 40.2416 111.981 39.9598ZM112.956 37.8351C113.086 37.5532 112.956 37.2063 112.674 37.0762L108.208 35.0816C107.926 34.9516 107.579 35.0816 107.471 35.3418C107.341 35.6453 107.471 35.9705 107.753 36.1006L112.219 38.0952C112.501 38.2253 112.826 38.1169 112.956 37.8351Z" fill="#252A2A"/>
<path d="M112.848 46.3122L101.184 41.0655L101.682 39.9598L113.346 45.2065L112.848 46.3122Z" fill="#252A2A"/>
<path d="M103.416 51.6891L99.9692 45.315L102.007 40.7621L102.419 40.9572L100.446 45.315L103.633 51.1904L110.159 49.6728L112.11 45.315L112.501 45.4885L110.463 50.0414L103.416 51.6891Z" fill="#252A2A"/>
<path d="M104.63 57.2392C104.63 57.2392 104.977 57.9113 104.826 58.4099C104.63 59.0387 103.72 59.7541 103.72 59.7541C103.72 59.7541 103.763 60.2528 103.698 60.7081C103.669 60.8526 103.626 60.9827 103.568 61.0983C103.308 61.662 102.354 62.1607 101.682 62.4642C101.183 63.158 100.62 63.6783 100.034 63.8084C97.4109 64.4371 94.6357 63.6349 94.6357 63.6349C68.1854 79.8303 58.1907 74.1934 57.3451 71.1798C56.4562 68.1228 60.0119 60.1444 60.8574 58.3015C61.6379 59.1254 63.1555 60.4696 65.8656 62.1607C66.2342 62.3991 66.8196 62.616 67.4917 62.8328H67.5133C69.6814 62.5943 71.9362 62.2907 74.1476 61.9872C82.1044 60.8815 89.6926 59.4939 92.8796 58.8869C93.8986 58.6918 94.4623 58.5834 94.4623 58.5834C94.4623 58.5834 95.3729 58.2365 96.0016 57.6294C97.3675 56.3069 99.2103 54.1388 100.489 54.0521C100.518 54.0521 100.547 54.0521 100.576 54.0521C100.685 54.0521 100.836 54.0738 100.988 54.0955C100.988 54.0955 105.173 54.6375 105.303 55.4614C105.454 56.3503 104.63 57.2392 104.63 57.2392Z" fill="#AA5939"/>
<path d="M104.262 57.1092C104.262 57.1092 103.308 56.9358 102.072 56.6973" stroke="#0F0E13" stroke-linecap="round" stroke-linejoin="round"/>
<path d="M103.481 59.7109C103.481 59.7109 102.289 59.4941 101.443 59.299" stroke="#0F0E13" stroke-linecap="round" stroke-linejoin="round"/>
<path d="M101.595 62.3559L100.554 62.1608" stroke="#0F0E13" stroke-linecap="round" stroke-linejoin="round"/>
<path d="M67.4914 62.8329L64.3911 63.093C64.3911 63.093 64.3838 63.093 64.3694 63.093C64.1092 62.8979 62.0062 61.2936 60.7271 58.5835C60.7849 58.4679 60.8282 58.3739 60.8571 58.3016C61.6376 59.1255 63.1553 60.4697 65.8654 62.1608C66.2339 62.3993 66.8193 62.6161 67.4914 62.8329Z" fill="#181820"/>
<path d="M93.6602 13.5312C91.6439 13.748 93.1832 16.4364 93.1832 16.4364C93.1832 16.4364 89.8661 14.2683 86.9176 15.4391C83.6221 16.7399 87.6547 19.4283 87.6547 19.4283C87.6547 19.4283 83.6004 18.1925 82.9717 19.4717C82.343 20.7725 85.7251 22.4636 85.7251 22.4636C85.7251 22.4636 79.6112 24.4582 80.6952 29.1846C81.7576 33.9109 88.1534 38.4855 88.1534 38.4855L89.2374 34.2795C89.2374 34.2795 86.3539 32.957 86.5923 31.1141C86.9609 28.4474 90.6683 29.6832 90.6683 29.6832L91.2537 27.6452C93.7903 27.4501 98.2999 25.3905 99.3839 22.5286C101.313 17.412 95.6765 13.3144 93.6602 13.5312Z" fill="#181820"/>
<path d="M91.4271 35.7104C89.9312 37.0763 87.4162 36.7294 85.7902 34.9516C84.1641 33.1738 84.0557 30.6372 85.5517 29.2713C87.026 27.9271 89.5626 28.2523 91.1887 30.0301C92.793 31.8079 92.9231 34.3662 91.4271 35.7104Z" fill="#E58DB3"/>
<path d="M90.7552 34.9733C89.6062 36.0139 87.6549 35.7538 86.4191 34.3879C85.1617 33.022 85.0749 31.0708 86.224 30.0301C87.3731 28.9677 89.3026 29.2279 90.5601 30.6155C91.8176 31.9813 91.9043 33.9326 90.7552 34.9733Z" fill="#181820"/>
<path d="M89.9525 35.7972C88.8034 36.8596 86.8522 36.5994 85.6164 35.2118C84.3589 33.846 84.2722 31.8947 85.4213 30.854C86.5703 29.8134 88.4999 30.0735 89.7574 31.4394C91.0149 32.8053 91.0799 34.7565 89.9525 35.7972Z" fill="white"/>
<path d="M81.9959 25.8024C82.2344 26.9732 83.9472 29.4014 85.1396 30.5505L87.3727 28.5125C87.3727 28.5125 84.9012 25.5206 84.7494 24.5233C84.6627 23.9162 85.2047 23.0707 85.725 22.4636C85.725 22.4636 85.2697 22.2251 84.8578 21.965C83.7954 22.5937 81.6924 24.4582 81.9959 25.8024Z" fill="#E58DB3"/>
<path d="M85.4864 41.9545L85.0962 43.5588L93.8335 53.2934L98.1696 46.5724" stroke="white" stroke-width="1.5" stroke-miterlimit="10" stroke-linecap="round"/>
<path d="M191.223 104.373L175.938 93.8147C174.355 92.709 172.187 93.8581 172.187 95.7876V116.905C172.187 118.834 174.355 119.983 175.938 118.877L191.223 108.319C192.61 107.365 192.61 105.327 191.223 104.373Z" fill="#C85342"/>
<path d="M206.898 49.4561L195.906 41.8462C194.757 41.0657 193.217 41.8895 193.217 43.2771V58.4752C193.217 59.8627 194.757 60.6649 195.906 59.8844L206.898 52.2745C207.895 51.6024 207.895 50.1282 206.898 49.4561Z" stroke="#C85342" stroke-width="6" stroke-miterlimit="10"/>
<path d="M68.2069 15.7427L60.467 10.4093C59.6648 9.84562 58.5591 10.431 58.5591 11.4066V22.0951C58.5591 23.0708 59.6648 23.6345 60.467 23.0925L68.2069 17.7374C68.9007 17.2604 68.9007 16.2414 68.2069 15.7427Z" stroke="#181820" stroke-width="4" stroke-miterlimit="10"/>
<path d="M48.6725 157.49L39.9786 151.463C39.0247 150.791 37.7021 151.485 37.7021 152.656V164.688C37.7021 165.859 39.0247 166.531 39.9786 165.881L48.6725 159.854C49.5181 159.29 49.5181 158.054 48.6725 157.49Z" fill="#ECB041"/>
<path d="M20.5963 71.0066L15.5447 67.4944C14.981 67.1041 14.2222 67.516 14.2222 68.1881V75.191C14.2222 75.8631 14.981 76.2533 15.5447 75.8847L20.5963 72.3725C21.0732 72.0473 21.0732 71.3318 20.5963 71.0066Z" fill="#181820"/>
<path fill-rule="evenodd" clip-rule="evenodd" d="M153.476 56.1772C153.541 55.6568 153.346 55.4834 152.869 55.3533C150.419 54.7246 148.143 53.6622 146.365 51.841C144.132 49.5863 143.72 46.8112 144.479 43.8409C145.086 41.4777 146.625 39.7216 148.36 38.1389C150.116 36.5129 152.24 35.4505 154.322 34.3448C154.755 34.1063 154.929 33.8678 154.994 33.3909C155.211 31.548 155.883 26.7349 156.273 24.9354C156.663 23.0059 157.747 20.1874 160.045 19.7104C161.845 19.3635 165.444 21.1197 164.143 27.2336C163.384 30.7242 161.541 34.6267 156.793 37.727C156.62 37.8354 156.468 38.1172 156.446 38.3341C156.36 38.9628 156.295 39.5698 156.273 40.2419C156.251 40.7189 156.403 40.9574 156.858 41.1308C157.574 41.4127 158.311 41.7162 158.961 42.1282C162.3 44.1661 163.319 47.7651 161.563 51.2774C160.436 53.5321 158.615 54.9197 156.1 55.375C155.124 55.5701 155.167 55.5918 155.102 56.5891C155.016 58.0634 154.929 59.5593 154.712 61.0553C154.062 65.4565 149.899 66.5622 146.452 64.5892C144.739 63.6136 143.763 62.1176 143.85 60.0797C143.915 58.2585 145.585 56.459 147.297 56.3073C149.617 56.0904 151.503 58.3669 150.94 60.6434C150.723 61.4889 150.289 62.1827 149.682 62.7897C149.075 63.3318 149.791 63.5702 150.007 63.5919C151.33 63.6787 152.782 62.5729 153.021 61.2287C153.151 60.3832 153.368 57.001 153.476 56.1772ZM153.736 38.9194C152.609 39.4614 151.482 40.0251 150.463 40.7623C148.707 42.0414 147.384 43.6675 146.755 45.8139C146.473 46.8545 146.495 47.8735 146.885 48.8708C148.034 51.6893 150.398 52.86 153.173 53.4237C153.563 53.5105 153.693 53.2503 153.736 52.9251C153.932 50.2367 154.127 47.5483 154.322 44.8599C154.365 44.448 154.148 44.2745 153.801 44.2745C152.826 44.2962 151.959 44.513 151.243 45.2285C149.747 46.7244 149.921 49.3478 151.655 50.8654C151.85 51.0389 152.067 51.234 152.284 51.3858C152.717 51.6893 152.717 52.3397 151.959 52.1663C151.547 52.0362 151.113 51.9061 150.766 51.6893C149.444 50.8437 148.858 49.5429 148.728 48.0469C148.425 44.9683 150.658 41.8897 153.78 41.0658C154.43 40.8924 154.604 38.5292 153.736 38.9194ZM155.362 52.7733C155.341 53.272 155.558 53.4454 156.035 53.2937C159.243 52.1012 159.829 49.7597 159.742 48.2204C159.482 46.2691 157.986 45.1634 156.468 44.5347C156.186 44.4263 155.97 44.5347 155.926 44.8816C155.904 45.1634 155.471 51.0606 155.362 52.7733ZM156.988 30.5724C156.88 31.4613 156.837 33.2391 157.357 33.0223C159.395 32.1334 161.238 27.6672 161.693 25.4558C161.888 24.5452 161.953 22.7891 161.108 22.5072C157.964 21.4449 157.184 29.5101 156.988 30.5724Z" fill="black"/>
<path fill-rule="evenodd" clip-rule="evenodd" d="M48.8457 127.42C48.7807 127.138 48.6506 127.073 48.3688 127.094C46.9162 127.159 45.5069 126.964 44.2278 126.292C42.6234 125.425 41.9296 123.994 41.8429 122.238C41.7779 120.85 42.2982 119.636 42.9703 118.465C43.6641 117.295 44.6397 116.341 45.572 115.387C45.7671 115.192 45.8321 115.018 45.7888 114.758C45.5936 113.717 45.1384 110.986 45.0299 109.923C44.9215 108.818 45.0299 107.105 46.2007 106.454C47.1113 105.934 49.3877 106.281 49.713 109.837C49.9081 111.875 49.5612 114.303 47.5015 116.818C47.4148 116.904 47.3931 117.078 47.4148 117.208C47.4799 117.555 47.5449 117.902 47.6533 118.27C47.7183 118.53 47.8267 118.639 48.1086 118.661C48.5639 118.682 49.0192 118.726 49.4311 118.834C51.5992 119.398 52.7699 121.176 52.423 123.365C52.1845 124.796 51.4257 125.859 50.1466 126.552C49.6262 126.812 49.6696 126.812 49.7997 127.376C49.9948 128.2 50.2116 129.024 50.3417 129.869C50.7536 132.384 48.6723 133.707 46.4609 133.208C45.3552 132.97 44.5747 132.319 44.2494 131.192C43.9893 130.195 44.5963 128.937 45.5069 128.547C46.721 128.048 48.152 128.959 48.217 130.303C48.2604 130.802 48.1303 131.235 47.9135 131.669C47.675 132.081 48.0869 132.081 48.217 132.059C48.9541 131.886 49.5612 131.018 49.4528 130.26C49.3877 129.783 48.9325 127.896 48.8457 127.42ZM46.0489 117.988C45.5286 118.465 45.0083 118.986 44.5747 119.549C43.8375 120.547 43.3822 121.652 43.4256 122.932C43.4256 123.539 43.6207 124.102 44.011 124.579C45.1167 125.924 46.6126 126.14 48.217 125.989C48.4338 125.967 48.4772 125.793 48.4338 125.62C48.0725 124.117 47.7183 122.614 47.3714 121.11C47.3281 120.894 47.1763 120.829 46.9812 120.894C46.4609 121.067 46.0273 121.327 45.7671 121.848C45.2034 122.91 45.7454 124.319 46.9378 124.84C47.0896 124.905 47.2197 124.97 47.3714 125.035C47.6533 125.121 47.7617 125.468 47.3281 125.49C47.0896 125.512 46.8294 125.512 46.591 125.447C45.7454 125.208 45.2034 124.601 44.8565 123.821C44.1844 122.195 44.8565 120.135 46.4392 119.138C46.7644 118.942 46.4392 117.62 46.0489 117.988ZM49.301 125.251C49.3588 125.541 49.5034 125.598 49.7346 125.425C51.2956 124.211 51.2089 122.845 50.9054 122.021C50.4284 121.002 49.4311 120.655 48.4988 120.59C48.3037 120.568 48.217 120.655 48.2604 120.85C48.282 121.024 49.0625 124.298 49.301 125.251ZM46.3958 112.872C46.4825 113.371 46.7644 114.368 47.0029 114.151C47.9785 113.305 48.1953 110.574 48.0652 109.295C48.0219 108.753 47.7617 107.799 47.263 107.777C45.3552 107.734 46.3091 112.265 46.3958 112.872Z" fill="black"/>
<path d="M17.0404 30.6374C17.0404 33.0656 15.0675 35.0169 12.6609 35.0169C10.2327 35.0169 8.25977 33.0656 8.25977 30.6374C8.25977 28.2092 10.2327 26.2579 12.6609 26.2579C15.0675 26.2579 17.0404 28.2092 17.0404 30.6374Z" fill="#BA3E3E"/>
<path d="M151.547 122.65C151.547 124.232 150.246 125.512 148.663 125.512C147.102 125.512 145.801 124.232 145.801 122.65C145.801 121.067 147.102 119.788 148.663 119.788C150.246 119.788 151.547 121.067 151.547 122.65Z" fill="#BA3E3E"/>
<path d="M184.306 27.1034C184.306 28.2091 183.396 29.1197 182.268 29.1197C181.141 29.1197 180.23 28.2091 180.23 27.1034C180.23 25.976 181.141 25.0654 182.268 25.0654C183.396 25.0654 184.306 25.976 184.306 27.1034Z" fill="#ECB041"/>
<path d="M91.3179 3.03798C91.3179 4.16537 90.4074 5.07595 89.28 5.07595C88.1743 5.07595 87.2637 4.16537 87.2637 3.03798C87.2637 1.91058 88.1743 1 89.28 1C90.4074 1 91.3179 1.91058 91.3179 3.03798Z" stroke="#ECB041" stroke-width="2" stroke-miterlimit="10"/>
<path d="M17.4526 52.7516H6.6123" stroke="#0F0E13" stroke-width="2" stroke-linecap="round" stroke-linejoin="round"/>
<path d="M42.7318 52.7516H21.5933" stroke="#0F0E13" stroke-width="2" stroke-linecap="round" stroke-linejoin="round"/>
<path d="M183.309 5.07593H144.609" stroke="#0F0E13" stroke-width="2" stroke-linecap="round" stroke-linejoin="round"/>
<path d="M194.062 129.544H171.818" stroke="#0F0E13" stroke-width="2" stroke-linecap="round" stroke-linejoin="round"/>
<path d="M72.8032 27.1034H60.1851" stroke="#0F0E13" stroke-width="2" stroke-linecap="round" stroke-linejoin="round"/>
<path d="M176.219 78.2913H155.926" stroke="#0F0E13" stroke-width="2" stroke-linecap="round" stroke-linejoin="round"/>
<path d="M36.6612 131.365H12.7476" stroke="#0F0E13" stroke-width="2" stroke-linecap="round" stroke-linejoin="round"/>
<path d="M185.846 154H176.415" stroke="#0F0E13" stroke-width="2" stroke-linecap="round" stroke-linejoin="round"/>
<path d="M153.433 78.2913H146.517" stroke="#0F0E13" stroke-width="2" stroke-linecap="round" stroke-linejoin="round"/>
<path d="M210.345 175.876H0.693848V174.9H210.345V175.876Z" fill="#181820"/>
<path d="M135.048 178.998H162.192V179.995H135.048V178.998Z" fill="#181820"/>
<path d="M49.1714 178.998H85.1828V179.995H49.1714V178.998Z" fill="#181820"/>
<path d="M87.5029 178.998H97.3676V179.995H87.5029V178.998Z" fill="#181820"/>
</svg>
