<svg width="298" height="130" viewBox="0 0 298 130" fill="none" xmlns="http://www.w3.org/2000/svg">
<path d="M265.581 34.7301L270.283 40.3322L260.464 39.5282L265.581 34.7301Z" fill="#FFC057"/>
<path d="M289.639 22.7151L279.462 49.1429C279.21 49.7975 278.348 49.9414 277.897 49.4041L265.58 34.73L289.639 22.7151Z" fill="#FDF6EC"/>
<path d="M260.463 39.528L262.495 29.6847L289.64 22.715L260.463 39.528Z" fill="#FCD7A7"/>
<path d="M262.494 29.6849L262.067 31.7521L283.393 26.3144L289.639 22.7153L262.494 29.6849Z" fill="#FFC057"/>
<path d="M289.639 22.7151L254.889 18.0761C254.057 17.965 253.522 18.9347 254.06 19.5795L262.495 29.6849L289.639 22.7151Z" fill="#FDF6EC"/>
<path d="M254.06 19.5795L254.617 20.2475C254.709 20.2316 254.804 20.2295 254.905 20.2426L284.095 24.1392L289.639 22.7154L254.89 18.0766C254.057 17.9649 253.522 18.9345 254.06 19.5795Z" fill="#FEF1DB"/>
<path d="M260.518 27.4321C260.239 27.0978 260.283 26.6003 260.618 26.3212C260.952 26.0421 261.45 26.087 261.729 26.4213L263.216 28.2031L270.254 26.3961L285.94 22.3685L255.223 18.2678C255.198 18.2645 255.133 18.2559 255.089 18.3351C255.046 18.4142 255.088 18.4646 255.104 18.4836L259.378 23.6053C259.658 23.9396 259.613 24.4371 259.278 24.7162C258.944 24.9953 258.446 24.9504 258.167 24.6161L253.893 19.4944C253.438 18.9492 253.365 18.1952 253.708 17.5733C254.051 16.9514 254.728 16.6104 255.431 16.7043L290.17 21.3417C290.208 21.3467 290.245 21.3548 290.281 21.3652C290.322 21.3769 290.364 21.3927 290.402 21.4109C290.404 21.4115 290.405 21.412 290.407 21.4131C290.675 21.5496 290.842 21.7934 290.853 22.0951C290.857 22.2012 290.84 22.3079 290.802 22.4069C290.801 22.4081 287.717 30.4163 287.717 30.4163C287.561 30.8227 287.104 31.0254 286.698 30.8689C286.291 30.7124 286.089 30.2559 286.245 29.8494L288.529 23.9194L268.269 35.5941L269.877 37.5092L278.931 48.2966C278.996 48.3731 279.12 48.3535 279.156 48.259C279.167 48.2302 284.921 33.2874 284.921 33.2874C285.078 32.881 285.534 32.6783 285.941 32.8348C286.347 32.9917 286.55 33.4478 286.393 33.8543L280.628 48.8259C280.408 49.3964 279.917 49.7971 279.314 49.8978C278.852 49.9749 278.395 49.8642 278.03 49.5979C277.918 49.5164 277.815 49.4204 277.723 49.3107L270.323 40.4938C269.71 40.4436 260.835 39.7169 260.835 39.7169C260.617 39.6991 260.401 39.5807 260.269 39.4057C260.136 39.2286 260.082 38.9889 260.126 38.7715C260.127 38.7692 261.71 31.0968 262.08 29.3042L260.518 27.4321ZM268.896 38.7944L266.881 36.3939L263.484 38.3514L268.896 38.7944ZM262.026 37.3711L284.668 24.3238L263.603 29.7325L262.026 37.3711Z" fill="#2A3349"/>
<path d="M254.907 27.3653C255.255 27.103 255.749 27.1726 256.011 27.5202C256.274 27.8681 256.204 28.3626 255.856 28.6247C254.475 29.6665 252.639 30.0759 250.946 29.7199C250.833 29.6962 250.731 29.6495 250.644 29.5858C250.4 29.4085 250.27 29.0993 250.336 28.7859C250.426 28.3597 250.844 28.0867 251.27 28.1763C252.524 28.4399 253.884 28.1367 254.907 27.3653Z" fill="#2A3349"/>
<path d="M253.28 23.7432C253.673 23.5556 254.144 23.7222 254.331 24.1155C254.519 24.5086 254.352 24.9794 253.959 25.1669C251.885 26.1564 249.387 26.2026 247.277 25.2904C247.222 25.2666 247.171 25.2374 247.125 25.2035C246.834 24.991 246.717 24.5983 246.866 24.2535C247.039 23.8537 247.503 23.6697 247.903 23.8427C249.601 24.5766 251.611 24.5395 253.28 23.7432Z" fill="#2A3349"/>
<path d="M269.542 45.1121C269.79 45.4701 269.701 45.9615 269.343 46.2096C268.29 46.9395 267.576 48.1354 267.434 49.4088C267.385 49.8417 266.995 50.1533 266.562 50.1048C266.421 50.0889 266.293 50.0369 266.186 49.9588C265.964 49.7973 265.833 49.525 265.866 49.2332C266.059 47.5136 267.023 45.8986 268.445 44.9129C268.803 44.6649 269.294 44.7541 269.542 45.1121Z" fill="#2A3349"/>
<path d="M272.249 47.775C272.563 48.0762 272.574 48.5756 272.273 48.8902C270.994 50.2257 270.329 52.1227 270.494 53.9648C270.533 54.3986 270.213 54.7819 269.779 54.8207C269.581 54.8386 269.393 54.7813 269.244 54.6726C269.067 54.5434 268.944 54.3412 268.923 54.1056C268.718 51.8163 269.544 49.4588 271.134 47.799C271.435 47.4845 271.934 47.4733 272.249 47.775Z" fill="#2A3349"/>
<path opacity="0.6" d="M6.00038 30.5C-12.4996 48.6667 18.8548 106.7 104.855 95.5C212.355 81.5 183.355 12.5 129.855 42.5C76.3548 72.5 165.855 136.5 210.855 128.5C255.855 120.5 221.355 62.0001 257.355 42.5" stroke="#DDDDDD" stroke-dasharray="3 3"/>
</svg>
