<svg width="1600" height="44" viewBox="0 0 1600 44" fill="none" xmlns="http://www.w3.org/2000/svg">
<path d="M-105.39 33.9231C-124.816 33.9231 -136.641 44 -151 44V0H800.9V44C778.939 44 778.939 33.9231 756.134 33.9231C733.329 33.9231 731.64 44 708.835 44C686.03 44 677.584 33.9231 657.313 33.9231C637.041 33.9231 635.352 44 608.324 44C591.431 44 582.14 33.9231 561.869 33.9231C541.598 33.9231 537.938 44 517.115 44C490.938 44 486.697 33.9231 463.892 33.9231C448.689 33.9231 440.242 44 418.282 44C396.321 44 395.477 33.9231 370.982 33.9231C346.488 33.9231 340.366 44 318.406 44C296.445 44 294.121 33.9231 273.005 33.9231C260.336 33.9231 245.977 44 227.395 44C208.813 44 198.678 33.9231 180.94 33.9231C163.203 33.9231 150.534 44 131.952 44C113.37 44 99.011 33.9231 82.963 33.9231C66.915 33.9231 53.4009 44 34.819 44C16.2371 44 9.48003 33.9231 -10.7911 33.9231C-31.0623 33.9231 -38.664 44 -61.469 44C-75.8278 44 -85.9634 33.9231 -105.39 33.9231Z" fill="#FFBA19"/>
<path d="M845.71 33.9231C826.284 33.9231 814.459 44 800.1 44V0H1752V44C1730.04 44 1730.04 33.9231 1707.23 33.9231C1684.43 33.9231 1682.74 44 1659.94 44C1637.13 44 1628.68 33.9231 1608.41 33.9231C1588.14 33.9231 1586.45 44 1559.42 44C1542.53 44 1533.24 33.9231 1512.97 33.9231C1492.7 33.9231 1489.04 44 1468.21 44C1442.04 44 1437.8 33.9231 1414.99 33.9231C1399.79 33.9231 1391.34 44 1369.38 44C1347.42 44 1346.58 33.9231 1322.08 33.9231C1297.59 33.9231 1291.47 44 1269.51 44C1247.55 44 1245.22 33.9231 1224.11 33.9231C1211.44 33.9231 1197.08 44 1178.49 44C1159.91 44 1149.78 33.9231 1132.04 33.9231C1114.3 33.9231 1101.63 44 1083.05 44C1064.47 44 1050.11 33.9231 1034.06 33.9231C1018.02 33.9231 1004.5 44 985.919 44C967.337 44 960.58 33.9231 940.309 33.9231C920.038 33.9231 912.436 44 889.631 44C875.272 44 865.137 33.9231 845.71 33.9231Z" fill="#FFBA19"/>
</svg>
