<svg width="1600" height="840" viewBox="0 0 1600 840" fill="none" xmlns="http://www.w3.org/2000/svg">
<rect width="1600" height="840" fill="#141414"/>
<g opacity="0.3">
<path d="M1428.65 653.976C1427.96 654.93 1427.15 655.778 1426.25 656.497L1426.87 659.664L1421.99 661.829L1420.06 659.235C1418.92 659.421 1417.75 659.454 1416.57 659.324L1414.77 662.006L1409.79 660.084L1410.26 656.885C1409.3 656.19 1408.46 655.382 1407.74 654.477L1404.57 655.099L1402.4 650.212L1405 648.281C1404.81 647.142 1404.78 645.97 1404.91 644.799L1402.23 642.997L1404.15 638.005L1407.35 638.473C1408.04 637.52 1408.85 636.672 1409.76 635.953L1409.13 632.786L1414.02 630.621L1415.95 633.214C1417.09 633.028 1418.26 632.996 1419.43 633.125L1421.24 630.443L1426.22 632.366L1425.75 635.565C1426.71 636.26 1427.55 637.068 1428.27 637.972L1431.44 637.35L1433.6 642.238L1431.01 644.169C1431.2 645.308 1431.23 646.479 1431.1 647.651L1433.78 649.452L1431.86 654.437L1428.66 653.968L1428.65 653.976ZM1423.26 648.523C1424.39 645.566 1422.92 642.246 1419.97 641.107C1417.01 639.968 1413.69 641.438 1412.55 644.395C1411.41 647.352 1412.88 650.672 1415.84 651.811C1418.8 652.95 1422.12 651.48 1423.26 648.523Z" fill="#F0EADA"/>
<path d="M1423.26 648.523C1423.26 648.523 1423.14 649.032 1422.63 649.8C1422.13 650.559 1421.14 651.585 1419.53 652.07C1418.74 652.304 1417.8 652.409 1416.84 652.231C1415.88 652.045 1414.88 651.633 1414.05 650.898C1413.63 650.543 1413.25 650.107 1412.94 649.622C1412.62 649.137 1412.37 648.588 1412.22 648.006C1411.89 646.843 1411.95 645.534 1412.4 644.338C1412.87 643.151 1413.7 642.133 1414.72 641.503C1415.23 641.171 1415.78 640.937 1416.34 640.784C1416.9 640.63 1417.47 640.557 1418.02 640.582C1419.13 640.59 1420.15 640.961 1420.99 641.47C1421.83 641.987 1422.45 642.69 1422.88 643.393C1423.74 644.831 1423.79 646.261 1423.65 647.158C1423.51 648.071 1423.26 648.523 1423.26 648.523C1423.21 648.515 1423.43 648.038 1423.53 647.142C1423.63 646.261 1423.54 644.88 1422.68 643.514C1422.25 642.844 1421.65 642.181 1420.85 641.697C1420.05 641.22 1419.07 640.881 1418.02 640.881C1417.5 640.864 1416.95 640.937 1416.43 641.083C1415.9 641.228 1415.38 641.454 1414.9 641.769C1413.93 642.375 1413.15 643.328 1412.7 644.451C1412.28 645.582 1412.22 646.818 1412.53 647.917C1412.67 648.467 1412.9 648.984 1413.2 649.444C1413.49 649.905 1413.84 650.325 1414.24 650.664C1415.02 651.367 1415.98 651.771 1416.89 651.957C1417.81 652.142 1418.7 652.053 1419.47 651.843C1421.02 651.407 1422.01 650.438 1422.53 649.719C1423.05 648.984 1423.21 648.499 1423.26 648.515V648.523Z" fill="#F0EADA"/>
<path d="M1428.65 653.976C1428.65 653.976 1428.72 653.976 1428.85 653.992C1429 654.009 1429.2 654.033 1429.46 654.065C1430.02 654.138 1430.82 654.251 1431.86 654.388L1431.8 654.421C1432.29 653.144 1432.93 651.456 1433.69 649.42L1433.73 649.517C1432.91 648.976 1432 648.37 1431.03 647.731L1430.99 647.699V647.643C1431.11 646.56 1431.09 645.397 1430.9 644.185V644.12L1430.94 644.08C1431.75 643.474 1432.62 642.82 1433.52 642.141L1433.48 642.286C1432.8 640.751 1432.07 639.12 1431.3 637.407L1431.45 637.48C1430.47 637.673 1429.39 637.892 1428.28 638.11L1428.2 638.126L1428.15 638.061C1427.48 637.229 1426.63 636.389 1425.65 635.686L1425.57 635.638L1425.59 635.549C1425.74 634.555 1425.89 633.464 1426.05 632.35L1426.14 632.511C1424.57 631.913 1422.88 631.259 1421.15 630.597L1421.33 630.54C1420.77 631.372 1420.16 632.293 1419.54 633.222L1419.48 633.303H1419.39C1418.31 633.174 1417.12 633.19 1415.94 633.384L1415.85 633.4L1415.79 633.319C1415.18 632.511 1414.52 631.623 1413.86 630.726L1414.05 630.774C1412.51 631.461 1410.85 632.196 1409.17 632.947L1409.26 632.77C1409.46 633.771 1409.67 634.854 1409.88 635.937L1409.9 636.033L1409.82 636.098C1408.96 636.785 1408.14 637.633 1407.45 638.586C1407.37 638.619 1407.6 638.522 1407.29 638.651H1407.28H1407.25H1407.2L1407.11 638.627L1406.9 638.594L1406.5 638.538L1405.7 638.417C1405.17 638.336 1404.63 638.263 1404.11 638.182L1404.29 638.077C1403.64 639.766 1402.99 641.43 1402.36 643.062L1402.3 642.868C1403.2 643.474 1404.09 644.072 1404.98 644.67L1405.06 644.726V644.823C1404.92 645.978 1404.96 647.142 1405.13 648.265L1405.15 648.362L1405.07 648.418C1404.19 649.073 1403.33 649.711 1402.48 650.349L1402.53 650.163C1403.26 651.835 1403.99 653.459 1404.69 655.051L1404.52 654.962C1405.6 654.752 1406.65 654.542 1407.7 654.34L1407.78 654.324L1407.84 654.396C1408.58 655.317 1409.42 656.117 1410.33 656.78L1410.4 656.828L1410.39 656.917C1410.22 658.016 1410.07 659.074 1409.92 660.108L1409.83 659.963C1411.58 660.641 1413.24 661.287 1414.81 661.893L1414.66 661.942C1415.3 660.997 1415.89 660.116 1416.46 659.26L1416.5 659.203H1416.57C1417.8 659.349 1418.95 659.3 1420.03 659.13H1420.1L1420.14 659.171C1420.83 660.116 1421.46 660.964 1422.06 661.772L1421.94 661.74C1423.84 660.908 1425.45 660.197 1426.83 659.591L1426.79 659.672C1426.55 658.403 1426.36 657.361 1426.19 656.497V656.465L1426.2 656.448C1427.12 655.713 1427.71 655.067 1428.09 654.631C1428.26 654.413 1428.4 654.251 1428.5 654.13C1428.59 654.017 1428.64 653.96 1428.64 653.968C1428.64 653.968 1428.6 654.033 1428.52 654.146C1428.44 654.259 1428.31 654.437 1428.13 654.663C1427.76 655.115 1427.18 655.778 1426.27 656.529L1426.28 656.481C1426.46 657.345 1426.67 658.379 1426.93 659.648V659.704L1426.89 659.728C1425.51 660.35 1423.9 661.069 1422.01 661.918L1421.94 661.95L1421.89 661.885C1421.29 661.086 1420.65 660.237 1419.95 659.3L1420.06 659.341C1418.97 659.518 1417.79 659.575 1416.54 659.437L1416.65 659.389C1416.08 660.245 1415.49 661.134 1414.86 662.079L1414.8 662.16L1414.71 662.128C1413.13 661.522 1411.47 660.892 1409.72 660.213L1409.61 660.173L1409.63 660.068C1409.78 659.034 1409.93 657.967 1410.09 656.868L1410.14 657.006C1409.21 656.327 1408.34 655.519 1407.59 654.582L1407.74 654.631C1406.7 654.833 1405.64 655.043 1404.57 655.261L1404.45 655.285L1404.4 655.172C1403.7 653.58 1402.97 651.957 1402.23 650.284L1402.18 650.171L1402.27 650.099C1403.12 649.46 1403.99 648.822 1404.87 648.168L1404.8 648.321C1404.62 647.174 1404.59 645.978 1404.71 644.791L1404.79 644.944C1403.9 644.355 1403.01 643.749 1402.11 643.151L1402 643.078L1402.05 642.957C1402.68 641.317 1403.32 639.653 1403.97 637.964L1404.02 637.843L1404.15 637.859C1404.67 637.94 1405.21 638.013 1405.74 638.094L1406.54 638.207L1406.94 638.263L1407.15 638.296L1407.24 638.312H1407.29L1407.32 638.32H1407.33C1407.02 638.449 1407.24 638.36 1407.18 638.384C1407.89 637.399 1408.74 636.534 1409.61 635.832L1409.55 635.993C1409.34 634.902 1409.13 633.82 1408.93 632.826L1408.91 632.697L1409.03 632.64C1410.71 631.897 1412.36 631.162 1413.92 630.475L1414.04 630.427L1414.12 630.532C1414.78 631.429 1415.44 632.309 1416.05 633.125L1415.9 633.061C1417.11 632.867 1418.32 632.85 1419.42 632.972L1419.27 633.036C1419.89 632.107 1420.52 631.194 1421.07 630.354L1421.14 630.249L1421.25 630.29C1422.98 630.96 1424.67 631.614 1426.24 632.22L1426.35 632.261L1426.33 632.374C1426.17 633.489 1426.01 634.579 1425.86 635.565L1425.81 635.428C1426.81 636.155 1427.67 637.003 1428.35 637.859L1428.22 637.811C1429.33 637.593 1430.41 637.383 1431.4 637.189L1431.5 637.173L1431.54 637.27C1432.3 638.982 1433.02 640.622 1433.7 642.157L1433.74 642.246L1433.67 642.303C1432.76 642.981 1431.88 643.627 1431.08 644.225L1431.12 644.12C1431.31 645.348 1431.32 646.536 1431.2 647.635L1431.16 647.546C1432.12 648.2 1433.02 648.806 1433.83 649.355L1433.89 649.396L1433.86 649.46C1433.07 651.488 1432.41 653.16 1431.91 654.437L1431.89 654.477H1431.85C1430.82 654.308 1430.03 654.186 1429.48 654.097C1429.23 654.057 1429.02 654.017 1428.87 653.992C1428.73 653.968 1428.66 653.952 1428.66 653.952L1428.65 653.976Z" fill="#F0EADA"/>
<path fill-rule="evenodd" clip-rule="evenodd" d="M1453.87 608.097C1452.78 609.608 1451.5 610.941 1450.08 612.08L1451.07 617.081L1443.36 620.498L1440.32 616.41C1438.52 616.701 1436.67 616.75 1434.82 616.548L1431.99 620.781L1424.12 617.743L1424.85 612.702C1423.34 611.612 1422.01 610.327 1420.87 608.913L1415.87 609.899L1412.45 602.192L1416.54 599.146C1416.25 597.353 1416.2 595.503 1416.4 593.653L1412.17 590.817L1415.2 582.948L1420.24 583.684C1421.33 582.173 1422.62 580.84 1424.03 579.701L1423.05 574.7L1430.75 571.283L1433.8 575.371C1435.59 575.08 1437.44 575.031 1439.29 575.233L1442.13 571L1450 574.03L1449.26 579.071C1450.77 580.161 1452.1 581.446 1453.24 582.86L1458.24 581.874L1461.66 589.581L1457.57 592.627C1457.86 594.42 1457.91 596.27 1457.71 598.12L1461.94 600.956L1458.91 608.824L1453.87 608.089V608.097ZM1445.36 599.502C1447.15 594.84 1444.83 589.605 1440.17 587.804C1435.51 586.01 1430.28 588.329 1428.47 592.99C1426.68 597.652 1429 602.887 1433.66 604.688C1438.32 606.482 1443.56 604.163 1445.36 599.502Z" fill="#F0EADA"/>
</g>
</svg>
