<svg width="70" height="60" viewBox="0 0 70 60" fill="none" xmlns="http://www.w3.org/2000/svg">
<circle opacity="0.7" cx="42" cy="28" r="28" fill="url(#paint0_linear_4048_4)"/>
<path d="M0.661221 60H49.4753C49.6172 60 49.7533 59.9436 49.8537 59.8433C49.9541 59.7429 50.0105 59.6068 50.0105 59.4648V45.4612C50.0098 45.3854 49.9934 45.3106 49.9623 45.2416C49.9482 45.1976 46.5219 39.1787 46.5001 39.1341V33.2989C46.5003 33.2261 46.4857 33.1539 46.4572 33.0869L45.132 29.932C45.0912 29.8348 45.0226 29.7519 44.9349 29.6936C44.8471 29.6353 44.7441 29.6041 44.6387 29.6041H43.0102C42.9927 29.4414 43.0534 28.1362 42.9673 28.022L41.412 24.3182C41.3711 24.2211 41.3024 24.1382 41.2146 24.08C41.1267 24.0217 41.0236 23.9907 40.9183 23.9908H37.5563C36.8545 24.0031 36.8516 25.0486 37.5563 25.0612H40.5624L41.6698 27.6971H35.8441V19.3986C35.8422 19.3408 35.8319 19.2835 35.8135 19.2286C35.7753 19.0983 32.8068 13.1968 32.7614 13.0852V10.5352C32.7614 10.3932 32.705 10.2571 32.6046 10.1567C32.5043 10.0564 32.3681 10 32.2262 10C32.0843 10 31.9481 10.0564 31.8478 10.1567C31.7474 10.2571 31.691 10.3932 31.691 10.5352V13.0852L28.6646 19.1599C28.6485 19.1979 28.6348 19.2368 28.6238 19.2765C28.616 19.3168 28.6109 19.3577 28.6085 19.3988V26.1468C28.323 26.1399 27.9702 26.1147 27.8134 26.4096L26.6513 28.3758C26.6004 28.4615 26.5281 28.5326 26.4416 28.582C26.355 28.6314 26.2571 28.6574 26.1574 28.6576C26.0155 28.6576 25.8793 28.714 25.779 28.8144C25.6786 28.9148 25.6222 29.0509 25.6222 29.1928C25.7553 30.2479 27.2803 29.548 27.5725 28.9203L28.5793 27.2171H34.7735V38.2263C34.7735 38.3682 34.8298 38.5044 34.9302 38.6047C35.0306 38.7051 35.1667 38.7615 35.3086 38.7615C35.4506 38.7615 35.5867 38.7051 35.687 38.6047C35.7874 38.5044 35.8438 38.3682 35.8438 38.2263V28.7668H41.9403V37.0497C41.9403 37.1916 41.9967 37.3278 42.097 37.4281C42.1974 37.5285 42.3335 37.5849 42.4754 37.5849C42.6174 37.5849 42.7535 37.5285 42.8539 37.4281C42.9542 37.3278 43.0106 37.1916 43.0106 37.0497V33.8316H45.4302V38.7399H37.4079C37.3338 38.7412 37.2607 38.7568 37.1926 38.7858C37.1116 38.8247 37.04 38.8807 36.9828 38.9498L33.2094 43.8809V37.5979C33.2091 37.519 33.1912 37.4413 33.1568 37.3703C33.1658 37.3586 29.891 30.8895 29.8936 30.8775C29.8491 30.7889 29.7808 30.7144 29.6964 30.6624C29.6119 30.6103 29.5147 30.5828 29.4155 30.5828C29.3163 30.5828 29.2191 30.6103 29.1347 30.6624C29.0502 30.7144 28.9819 30.7889 28.9374 30.8775L25.678 37.3575C25.6417 37.4325 25.6222 37.5145 25.621 37.5979V41.1651C25.0276 41.2225 24.4493 41.3853 23.9132 41.646V39.641C23.8098 36.7303 19.6176 36.7309 19.5147 39.641V44.7899C19.4168 44.8895 19.3244 44.9942 19.2378 45.1038C19.1181 44.682 18.8722 44.3069 18.5331 44.0289C18.194 43.7509 17.778 43.5833 17.3409 43.5486V39.641C17.2377 36.7304 13.0456 36.7307 12.9426 39.641V46.4373C12.2418 47.2609 11.9887 47.9664 11.08 48.4C10.0112 48.8339 9.12988 49.4777 8.68783 50.5752C7.95144 50.3791 7.06474 50.428 6.0366 50.7239C5.27758 50.1849 4.34177 49.9553 3.41948 50.0816L3.7889 47.1395C3.86642 46.5136 4.18145 45.9414 4.66887 45.5413L6.57345 43.9729C6.95695 43.6555 7.27407 43.2656 7.50664 42.8255C7.73921 42.3853 7.88267 41.9036 7.9288 41.408C7.97972 40.1408 8.51718 39.5518 9.46963 38.8061V46.9769C9.46963 47.1188 9.52601 47.255 9.62638 47.3553C9.72674 47.4557 9.86286 47.5121 10.0048 47.5121C10.1467 47.5121 10.2829 47.4557 10.3832 47.3553C10.4836 47.255 10.54 47.1188 10.54 46.9769V30.5462H12.8236V34.5757C12.8236 34.7176 12.88 34.8537 12.9804 34.9541C13.0807 35.0545 13.2168 35.1109 13.3588 35.1109H25.6036C25.7455 35.1109 25.8816 35.0545 25.982 34.9541C26.0824 34.8537 26.1387 34.7176 26.1387 34.5757C26.1387 34.4338 26.0824 34.2976 25.982 34.1973C25.8816 34.0969 25.7455 34.0405 25.6036 34.0405H24.5285V22.8295C24.5285 22.6876 24.4721 22.5515 24.3718 22.4511C24.2714 22.3507 24.1353 22.2943 23.9933 22.2943H15.8741C15.7851 22.2943 15.6975 22.3165 15.6192 22.3589C15.541 22.4013 15.4745 22.4625 15.4259 22.537L12.9105 26.389C12.8952 26.4196 12.877 26.448 12.8634 26.4797C12.8392 26.5444 12.8257 26.6125 12.8233 26.6815V29.4758H10.0053C9.86332 29.4758 9.7272 29.5322 9.62684 29.6326C9.52647 29.733 9.47009 29.8691 9.47009 30.011V37.405C8.05709 38.5917 6.95877 39.2875 6.86351 41.3115C6.83042 41.6661 6.72773 42.0106 6.5613 42.3255C6.39488 42.6403 6.16799 42.9193 5.89364 43.1463L3.9889 44.7151C3.2905 45.2886 2.83903 46.1084 2.72774 47.0052L2.30281 50.3888C2.2991 50.4207 2.29828 50.4528 2.30036 50.4849C0.285992 51.5925 0.34486 53.8052 1.11306 55.072C0.56168 55.6777 -0.344895 57.0976 0.135992 59.5664C0.15957 59.6884 0.22488 59.7984 0.320717 59.8775C0.416554 59.9566 0.536942 59.9999 0.661221 60ZM32.2259 14.4113L34.443 18.8635H30.008L32.2259 14.4113ZM29.6788 26.1468V19.9338H34.773V26.1468H29.6788ZM13.8939 34.0405V27.2171H23.4582V34.041L13.8939 34.0405ZM16.1634 23.3647H23.4582V26.1468H14.3478L16.1634 23.3647ZM18.3845 56.8917H22.2709C22.4128 56.8917 22.5489 56.8354 22.6493 56.735C22.7496 56.6346 22.806 56.4985 22.806 56.3566V54.3618H25.6221V56.3566C25.6221 56.4985 25.6785 56.6346 25.7788 56.735C25.8792 56.8354 26.0153 56.8917 26.1572 56.8917H28.9502V58.9297H17.834C16.7484 58.6352 15.7739 58.0267 15.0328 57.1806V54.3618H17.8493V56.3566C17.8493 56.4985 17.9057 56.6346 18.006 56.735C18.1064 56.8354 18.2425 56.8917 18.3845 56.8917ZM32.6742 53.6697H35.8106C35.9525 53.6697 36.0887 53.6133 36.189 53.513C36.2894 53.4126 36.3458 53.2765 36.3458 53.1346V51.4679H38.4378V58.9297H36.3202V57.4635C36.3226 57.1874 36.2703 56.9137 36.1663 56.658C36.0623 56.4023 35.9087 56.1697 35.7143 55.9737C35.52 55.7777 35.2887 55.6221 35.0339 55.5159C34.7791 55.4097 34.5058 55.3551 34.2298 55.3551C33.9538 55.3551 33.6805 55.4097 33.4257 55.5159C33.1709 55.6221 32.9396 55.7777 32.7453 55.9737C32.5509 56.1697 32.3973 56.4023 32.2933 56.658C32.1893 56.9137 32.137 57.1874 32.1394 57.4635V58.9297H30.0205V51.4679H32.1384V53.1346C32.1384 53.2049 32.1523 53.2745 32.1792 53.3395C32.2062 53.4045 32.2456 53.4635 32.2954 53.5132C32.3452 53.5629 32.4042 53.6023 32.4692 53.6292C32.5342 53.656 32.6039 53.6698 32.6742 53.6697ZM35.2499 58.9297H33.2094V57.4635C33.2077 57.3284 33.2329 57.1944 33.2834 57.0692C33.3339 56.944 33.4088 56.8301 33.5037 56.734C33.5986 56.638 33.7116 56.5617 33.8362 56.5096C33.9608 56.4576 34.0945 56.4308 34.2295 56.4308C34.3645 56.4308 34.4982 56.4576 34.6228 56.5096C34.7474 56.5617 34.8604 56.638 34.9553 56.734C35.0502 56.8301 35.125 56.944 35.1756 57.0692C35.2261 57.1944 35.2513 57.3284 35.2496 57.4635L35.2499 58.9297ZM48.9404 58.9297H39.5082V54.3618H41.1673V56.3566C41.1673 56.4985 41.2237 56.6346 41.3241 56.735C41.4244 56.8354 41.5606 56.8917 41.7025 56.8917H45.5889C45.7308 56.8917 45.867 56.8354 45.9673 56.735C46.0677 56.6346 46.1241 56.4985 46.1241 56.3566V54.3618H48.9401L48.9404 58.9297ZM43.0102 30.6745H44.2829L45.1597 32.7613H43.0102V30.6745ZM37.3413 40.2427L39.9991 44.926H33.7576L37.3413 40.2427ZM29.4155 32.3089L31.806 37.0625H27.0248L29.4155 32.3089ZM20.5863 39.641C20.6339 38.1489 22.7968 38.1494 22.8441 39.641V42.3723C22.4543 42.7242 22.125 43.1378 21.8696 43.5966C21.4248 43.6803 20.9932 43.8232 20.5863 44.0214V39.641ZM22.3079 44.6067C22.3991 44.5925 22.4853 44.5552 22.558 44.4982C22.6307 44.4412 22.6876 44.3666 22.7233 44.2813C22.9944 43.7239 23.4026 43.2444 23.9096 42.8878C24.4167 42.5312 25.0059 42.3092 25.6222 42.2427V51.3974C25.6222 51.5393 25.6786 51.6755 25.779 51.7758C25.8793 51.8762 26.0155 51.9326 26.1574 51.9326C26.2993 51.9326 26.4355 51.8762 26.5358 51.7758C26.6362 51.6755 26.6926 51.5393 26.6926 51.3974V38.133H32.1397V48.8838C32.1397 49.0257 32.196 49.1618 32.2964 49.2622C32.3968 49.3626 32.5329 49.419 32.6748 49.419C32.8168 49.419 32.9529 49.3626 33.0533 49.2622C33.1536 49.1618 33.21 49.0257 33.21 48.8838V45.9963H40.3837V51.6029C40.3949 52.3034 41.4417 52.3087 41.454 51.6029V45.4612C41.453 45.4216 41.4483 45.3823 41.4401 45.3436C41.4285 45.2923 41.4097 45.243 41.3843 45.1969L38.3274 39.8105H45.6539L48.5569 44.926H43.0274C42.8855 44.926 42.7494 44.9824 42.649 45.0827C42.5486 45.1831 42.4923 45.3192 42.4923 45.4612C42.4923 45.6031 42.5486 45.7392 42.649 45.8396C42.7494 45.9399 42.8855 45.9963 43.0274 45.9963H48.9401V53.2914H45.5889C45.447 53.2914 45.3108 53.3478 45.2105 53.4482C45.1101 53.5485 45.0537 53.6847 45.0537 53.8266V55.8214H42.2377V53.8266C42.2377 53.6847 42.1813 53.5485 42.0809 53.4482C41.9806 53.3478 41.8444 53.2914 41.7025 53.2914H39.5082V50.9327C39.5082 50.7908 39.4518 50.6547 39.3514 50.5543C39.2511 50.4539 39.1149 50.3976 38.973 50.3976H35.8106C35.6687 50.3976 35.5326 50.4539 35.4322 50.5543C35.3318 50.6547 35.2754 50.7908 35.2754 50.9327V52.5994H33.2094V50.9327C33.2094 50.7908 33.153 50.6547 33.0526 50.5543C32.9523 50.4539 32.8162 50.3976 32.6742 50.3976H29.4854C29.3434 50.3976 29.2073 50.4539 29.107 50.5543C29.0066 50.6547 28.9502 50.7908 28.9502 50.9327V55.8208H26.692V53.8266C26.692 53.6847 26.6356 53.5485 26.5352 53.4482C26.4348 53.3478 26.2987 53.2914 26.1568 53.2914H23.3345L22.842 50.7696C22.7586 50.3469 22.5903 49.9456 22.347 49.59C22.1038 49.2344 21.7908 48.932 21.4271 48.7011C20.192 47.9864 20.1415 47.7018 19.6976 46.4011C20.1383 45.405 21.0144 44.8012 22.3072 44.6067H22.3079ZM14.0143 39.641C14.0617 38.1491 16.2245 38.1492 16.2718 39.641V43.5575C15.2771 43.6304 14.6297 44.4657 14.0143 45.1532V39.641ZM10.9643 49.6367C11.7173 49.3182 12.4698 48.8931 12.9435 48.2041C13.762 47.0718 14.6584 45.9979 15.6262 44.9902C15.7436 44.8713 15.8834 44.7768 16.0374 44.712C16.1915 44.6472 16.3568 44.6135 16.5239 44.6127C17.2127 44.5995 17.8805 44.5427 18.1774 45.3141L18.9967 47.6286C19.2346 48.2974 19.6894 48.8673 20.2887 49.2477L20.8545 49.6057C21.0952 49.7585 21.3023 49.9587 21.4633 50.194C21.6242 50.4294 21.7356 50.695 21.7907 50.9748L22.2436 53.294C22.1066 53.3004 21.9773 53.3593 21.8826 53.4585C21.7878 53.5576 21.7348 53.6894 21.7346 53.8266V55.8214H18.9196V53.8266C18.9196 53.6847 18.8632 53.5485 18.7629 53.4482C18.6625 53.3478 18.5264 53.2914 18.3845 53.2914H14.4976C14.3557 53.2914 14.2196 53.3478 14.1192 53.4482C14.0188 53.5485 13.9624 53.6847 13.9624 53.8266V55.3722C12.9719 53.0372 11.5236 52.6569 10.7192 52.6469C10.5532 52.0063 10.1785 51.4392 9.65434 51.0352C9.8953 50.4181 10.3643 49.9174 10.9643 49.6367ZM2.11046 55.5963C2.226 55.5127 2.30372 55.3867 2.32664 55.2459C2.34956 55.1051 2.31582 54.9609 2.23278 54.845C0.399448 52.2976 3.50434 49.9948 5.5788 51.7209C5.64839 51.781 5.73221 51.8221 5.82225 51.8404C5.91228 51.8588 6.00551 51.8537 6.09303 51.8257C8.12162 51.1291 9.5551 51.6661 9.75128 53.2569C9.75593 53.3374 9.77877 53.4158 9.81809 53.4862C9.85741 53.5567 9.91219 53.6172 9.9783 53.6634C10.0444 53.7096 10.1201 53.7403 10.1998 53.753C10.2794 53.7657 10.3609 53.7602 10.4381 53.7369C10.502 53.7188 11.9978 53.3344 13.0345 55.9283C13.5086 57.1355 14.324 58.1784 15.3813 58.9297H1.11673C0.819631 56.5853 2.05862 55.6344 2.11046 55.5963Z" fill="white"/>
<path d="M28.2735 44.7722H30.5575C30.6994 44.7722 30.8355 44.7158 30.9359 44.6155C31.0363 44.5151 31.0926 44.379 31.0926 44.2371V42.3104C31.0141 40.0913 27.817 40.091 27.7384 42.3104V44.2371C27.7384 44.379 27.7947 44.5151 27.8951 44.6155C27.9955 44.7158 28.1316 44.7722 28.2735 44.7722ZM28.8087 42.3104C28.8298 41.5104 30.0014 41.5104 30.0223 42.3104V43.7019H28.8087V42.3104ZM44.0726 51.9326H46.2989C46.4409 51.9326 46.577 51.8762 46.6773 51.7759C46.7777 51.6755 46.8341 51.5394 46.8341 51.3975V48.0452C46.8341 47.9032 46.7777 47.7671 46.6773 47.6667C46.577 47.5664 46.4409 47.51 46.2989 47.51H44.0726C43.9307 47.51 43.7946 47.5664 43.6942 47.6667C43.5938 47.7671 43.5374 47.9032 43.5374 48.0452V51.3975C43.5374 51.5394 43.5938 51.6755 43.6942 51.7759C43.7946 51.8762 43.9307 51.9326 44.0726 51.9326ZM44.6078 48.5803H45.7637V50.8623H44.6078V48.5803ZM17.5404 28.6572H15.5122C15.3703 28.6572 15.2342 28.7136 15.1338 28.814C15.0334 28.9143 14.9771 29.0505 14.9771 29.1924V31.9447C14.9771 32.0866 15.0334 32.2228 15.1338 32.3231C15.2342 32.4235 15.3703 32.4799 15.5122 32.4799H17.5404C17.6823 32.4799 17.8184 32.4235 17.9188 32.3231C18.0191 32.2228 18.0755 32.0866 18.0755 31.9447V29.1924C18.0755 29.0505 18.0191 28.9143 17.9188 28.814C17.8184 28.7136 17.6823 28.6572 17.5404 28.6572ZM17.0052 31.4095H16.0474V29.7276H17.0052V31.4095ZM21.8402 28.6572H19.8118C19.6698 28.6572 19.5337 28.7136 19.4333 28.814C19.333 28.9143 19.2766 29.0505 19.2766 29.1924V31.9447C19.2766 32.0866 19.333 32.2228 19.4333 32.3231C19.5337 32.4235 19.6698 32.4799 19.8118 32.4799H21.8402C21.9821 32.4799 22.1183 32.4235 22.2186 32.3231C22.319 32.2228 22.3754 32.0866 22.3754 31.9447V29.1924C22.3754 29.0505 22.319 28.9143 22.2186 28.814C22.1183 28.7136 21.9821 28.6572 21.8402 28.6572ZM21.305 31.4095H20.3471V29.7276H21.305V31.4095ZM33.1986 21.1069H31.2533C31.1114 21.1069 30.9753 21.1633 30.8749 21.2637C30.7746 21.364 30.7182 21.5002 30.7182 21.6421V24.3944C30.7182 24.5363 30.7746 24.6725 30.8749 24.7728C30.9753 24.8732 31.1114 24.9296 31.2533 24.9296H33.1986C33.3405 24.9296 33.4767 24.8732 33.577 24.7728C33.6774 24.6725 33.7338 24.5363 33.7338 24.3944V21.6421C33.7338 21.5002 33.6774 21.364 33.577 21.2637C33.4767 21.1633 33.3405 21.1069 33.1986 21.1069ZM32.6634 23.8592H31.7885V22.1773H32.6634V23.8592ZM37.7966 35.8401H40.1494C40.2913 35.8401 40.4274 35.7837 40.5278 35.6834C40.6282 35.583 40.6845 35.4469 40.6845 35.3049V31.9445C40.6845 31.8026 40.6282 31.6665 40.5278 31.5661C40.4274 31.4658 40.2913 31.4094 40.1494 31.4094H37.7966C37.6547 31.4094 37.5186 31.4658 37.4182 31.5661C37.3178 31.6665 37.2615 31.8026 37.2615 31.9445V35.3049C37.2615 35.4469 37.3178 35.583 37.4182 35.6834C37.5186 35.7837 37.6547 35.8401 37.7966 35.8401ZM38.3318 32.4797H39.6142V34.7698H38.3318V32.4797Z" fill="white"/>
<defs>
<linearGradient id="paint0_linear_4048_4" x1="56" y1="-52.7692" x2="21" y2="56" gradientUnits="userSpaceOnUse">
<stop stop-color="#FFDC73"/>
<stop offset="1" stop-color="#FFDC73" stop-opacity="0"/>
</linearGradient>
</defs>
</svg>
