<svg width="66" height="60" viewBox="0 0 66 60" fill="none" xmlns="http://www.w3.org/2000/svg">
<circle opacity="0.7" cx="38" cy="28" r="28" fill="url(#paint0_linear_4048_3)"/>
<path d="M30.6956 27.4818C30.915 27.5084 31.136 27.4466 31.3099 27.3102C31.4838 27.1738 31.5964 26.9739 31.6229 26.7545C32.42 20.1572 27.2591 14.375 20.6614 14.375C14.5729 14.375 9.61963 19.3284 9.61963 25.4168C9.61963 31.5052 14.5729 36.4586 20.6614 36.4586C24.2765 36.4586 27.6681 34.6842 29.734 31.7121C29.8601 31.5306 29.909 31.3065 29.8699 31.0889C29.8307 30.8714 29.7068 30.6783 29.5253 30.5522C29.3438 30.426 29.1197 30.3772 28.9021 30.4163C28.6846 30.4554 28.4915 30.5794 28.3654 30.7608C26.6109 33.2849 23.731 34.7919 20.6614 34.7919C15.492 34.7919 11.2863 30.5863 11.2863 25.4168C11.2863 20.2474 15.492 16.0417 20.6614 16.0417C26.2494 16.0417 30.6477 20.9377 29.9683 26.5545C29.9418 26.7739 30.0035 26.9949 30.1399 27.1688C30.2763 27.3427 30.4762 27.4553 30.6956 27.4818Z" fill="white"/>
<path d="M25.7051 48.331H25.5273V40.0496C31.5921 38.028 36.0784 32.3057 36.0784 25.4169C36.0784 16.916 29.1623 10 20.6615 10C12.1607 10 5.24463 16.916 5.24463 25.4169C5.24463 33.7708 11.8845 40.5844 20.2039 40.8271C20.665 40.8413 21.0479 40.4784 21.0612 40.0184C21.0676 39.7975 20.9861 39.5831 20.8344 39.4223C20.6828 39.2615 20.4735 39.1676 20.2525 39.1611C12.7716 38.9428 6.91142 32.9056 6.91142 25.4169C6.91142 17.835 13.0797 11.6667 20.6616 11.6667C28.2435 11.6667 34.4118 17.835 34.4118 25.4169C34.4118 31.5177 30.3211 36.9531 24.464 38.6348C24.2902 38.6847 24.1373 38.7898 24.0284 38.9343C23.9196 39.0788 23.8607 39.2548 23.8607 39.4357V49.1644C23.8607 49.3854 23.9485 49.5973 24.1048 49.7536C24.2611 49.9099 24.473 49.9977 24.694 49.9977H25.7052C26.087 49.9977 26.3124 50.4243 26.0971 50.7397L21.0536 58.127C20.8656 58.4024 20.4586 58.4033 20.2699 58.127L15.2264 50.7397C15.0112 50.4244 15.2363 49.9977 15.6183 49.9977H16.6295C16.8505 49.9977 17.0624 49.9099 17.2187 49.7536C17.375 49.5973 17.4628 49.3854 17.4628 49.1644V43.9755C17.4628 43.7545 17.375 43.5426 17.2187 43.3863C17.0624 43.23 16.8505 43.1422 16.6295 43.1422C16.4084 43.1422 16.1965 43.23 16.0402 43.3863C15.8839 43.5426 15.7961 43.7545 15.7961 43.9755V48.331H15.6183C13.8998 48.331 12.8804 50.2593 13.8499 51.6795L18.8935 59.0668C19.7416 60.3091 21.5792 60.3131 22.4301 59.0668L27.4736 51.6795C28.4424 50.2602 27.4248 48.331 25.7051 48.331Z" fill="white"/>
<path d="M9.27709 44.6754V39.5884C9.27709 39.3673 9.18929 39.1554 9.03301 38.9991C8.87673 38.8428 8.66476 38.755 8.44375 38.755C8.22273 38.755 8.01077 38.8428 7.85448 38.9991C7.6982 39.1554 7.6104 39.3673 7.6104 39.5884V45.4309C7.6104 45.652 7.6982 45.8639 7.85448 46.0202C8.01077 46.1765 8.22273 46.2643 8.44375 46.2643H8.71104C9.04626 46.2643 9.24428 46.6389 9.05511 46.9158L5.74194 51.7686C5.57621 52.0113 5.21964 52.0116 5.0537 51.7686L1.74053 46.9158C1.55157 46.6391 1.74918 46.2643 2.0846 46.2643H2.3519C2.57291 46.2643 2.78488 46.1765 2.94116 46.0202C3.09744 45.8639 3.18524 45.652 3.18524 45.4309V31.667C3.18524 31.446 3.09744 31.234 2.94116 31.0777C2.78488 30.9215 2.57291 30.8337 2.3519 30.8337C2.13088 30.8337 1.91892 30.9215 1.76263 31.0777C1.60635 31.234 1.51855 31.446 1.51855 31.667V44.6754C0.15916 45.0576 -0.443765 46.6725 0.364058 47.8557L3.67723 52.7084C4.50234 53.9171 6.29049 53.921 7.11842 52.7084L10.4316 47.8557C11.2391 46.6729 10.6371 45.0577 9.27709 44.6754ZM39.8043 44.6754V31.667C39.8043 31.446 39.7165 31.234 39.5602 31.0777C39.4039 30.9215 39.1919 30.8337 38.9709 30.8337C38.7499 30.8337 38.5379 30.9215 38.3817 31.0777C38.2254 31.234 38.1376 31.446 38.1376 31.667V45.4309C38.1376 45.652 38.2254 45.8639 38.3817 46.0202C38.5379 46.1765 38.7499 46.2643 38.9709 46.2643H39.2382C39.5733 46.2643 39.7714 46.6389 39.5823 46.9158L36.2691 51.7686C36.1034 52.0113 35.7468 52.0116 35.5809 51.7686L32.2677 46.9158C32.0786 46.639 32.2763 46.2643 32.6118 46.2643H32.8791C33.1001 46.2643 33.312 46.1765 33.4683 46.0202C33.6246 45.8639 33.7124 45.652 33.7124 45.4309V39.5884C33.7124 39.3673 33.6246 39.1554 33.4683 38.9991C33.312 38.8428 33.1001 38.755 32.8791 38.755C32.658 38.755 32.4461 38.8428 32.2898 38.9991C32.1335 39.1554 32.0457 39.3673 32.0457 39.5884V44.6754C30.6829 45.0585 30.0851 46.6749 30.8912 47.8557L34.2044 52.7084C35.0296 53.9173 36.8178 53.9209 37.6456 52.7084L40.9588 47.8557C41.7679 46.6704 41.1617 45.057 39.8043 44.6754ZM20.6615 33.3337C20.8825 33.3337 21.0945 33.2459 21.2508 33.0896C21.4071 32.9333 21.4949 32.7214 21.4949 32.5004V31.3847C23.3322 31.0695 24.7159 29.739 24.7159 28.1499C24.7159 25.6501 22.4659 25.1938 20.8231 24.8606C18.8728 24.465 18.2656 24.1851 18.2656 23.2047C18.2656 22.3162 19.361 21.5654 20.6574 21.5654C21.5426 21.5654 22.3553 21.9084 22.7786 22.4606C22.9136 22.6345 23.1119 22.7479 23.3302 22.776C23.5485 22.8042 23.7691 22.7448 23.9438 22.6109C24.1185 22.477 24.2331 22.2794 24.2626 22.0613C24.2921 21.8431 24.2342 21.6222 24.1013 21.4467C23.5084 20.6732 22.5684 20.1496 21.4949 19.9691V18.8543C21.4949 18.6333 21.4071 18.4214 21.2508 18.2651C21.0945 18.1088 20.8825 18.021 20.6615 18.021C20.4405 18.021 20.2285 18.1088 20.0722 18.2651C19.916 18.4214 19.8282 18.6333 19.8282 18.8543V19.9684C17.9867 20.2811 16.599 21.6133 16.599 23.2047C16.599 25.7045 18.849 26.1608 20.4918 26.494C22.4421 26.8895 23.0492 27.1694 23.0492 28.1499C23.0492 29.0384 21.9539 29.7892 20.6574 29.7892C19.7723 29.7892 18.9596 29.4461 18.5363 28.8939C18.4013 28.7201 18.203 28.6067 17.9847 28.5786C17.7664 28.5504 17.5458 28.6098 17.3711 28.7437C17.1964 28.8776 17.0818 29.0752 17.0523 29.2933C17.0228 29.5115 17.0807 29.7324 17.2135 29.9079C17.8079 30.6833 18.7512 31.2077 19.8282 31.387V32.5004C19.8282 32.7214 19.916 32.9333 20.0722 33.0896C20.2285 33.2459 20.4405 33.3337 20.6615 33.3337Z" fill="white"/>
<defs>
<linearGradient id="paint0_linear_4048_3" x1="52" y1="-52.7692" x2="17" y2="56" gradientUnits="userSpaceOnUse">
<stop stop-color="#FFDC73"/>
<stop offset="1" stop-color="#FFDC73" stop-opacity="0"/>
</linearGradient>
</defs>
</svg>
