<svg width="69" height="62" viewBox="0 0 69 62" fill="none" xmlns="http://www.w3.org/2000/svg">
<circle opacity="0.7" cx="41" cy="28" r="28" fill="url(#paint0_linear_4048_5)"/>
<path d="M15.2044 37.7875C15.8775 37.1143 15.8615 36.2565 15.622 35.6782C15.3825 35.1 14.7872 34.4823 13.8351 34.4823C13.0116 34.4823 12.3417 33.8123 12.3417 32.9888V30.599C12.3417 29.7755 13.0116 29.1056 13.8351 29.1056C14.7872 29.1056 15.3825 28.4878 15.622 27.9096C15.8615 27.3314 15.8775 26.4736 15.2043 25.8002C14.622 25.2179 14.622 24.2705 15.2043 23.6883L16.8942 21.9983C17.1762 21.7162 17.5513 21.5608 17.9503 21.5608C18.3493 21.5608 18.7243 21.7162 19.0064 21.9982C19.6797 22.6716 20.5373 22.6558 21.1157 22.4161C21.6938 22.1766 22.3116 21.5814 22.3116 20.6293C22.3116 19.8057 22.9816 19.1357 23.8051 19.1357H26.1948C27.0183 19.1357 27.6883 19.8057 27.6883 20.6293C27.6883 21.5814 28.3061 22.1766 28.8842 22.4161C29.4624 22.6554 30.3201 22.6715 30.9935 21.9982C31.5758 21.4159 32.5234 21.4161 33.1057 21.9982L34.7957 23.6883C35.3779 24.2705 35.3779 25.2179 34.7957 25.8003C34.1224 26.4736 34.1384 27.3314 34.3779 27.9096C34.6174 28.4878 35.2126 29.1056 36.1648 29.1056C36.9883 29.1056 37.6582 29.7755 37.6582 30.599V32.9888C37.6582 33.8123 36.9883 34.4823 36.1648 34.4823C35.2126 34.4823 34.6174 35.1001 34.3779 35.6782C34.1384 36.2565 34.1224 37.1143 34.7957 37.7875C34.9348 37.9259 35.0451 38.0905 35.1202 38.2718C35.1953 38.453 35.2337 38.6474 35.2331 38.8436C35.2331 39.2425 35.0777 39.6176 34.7957 39.8998L33.1057 41.5897C32.5233 42.172 31.5758 42.1721 30.9935 41.5896C30.5299 41.126 29.9009 40.9312 29.2673 41.0561C29.0829 41.0923 28.8917 41.0539 28.7357 40.9491C28.5797 40.8444 28.4717 40.6819 28.4354 40.4976C28.3992 40.3132 28.4376 40.122 28.5424 39.966C28.6471 39.8099 28.8096 39.7019 28.9939 39.6657C30.0985 39.4485 31.1923 39.7846 31.9955 40.5876C32.0026 40.5947 32.0111 40.6003 32.0204 40.6042C32.0296 40.608 32.0396 40.61 32.0496 40.61C32.0597 40.61 32.0697 40.608 32.0789 40.6042C32.0882 40.6003 32.0966 40.5947 32.1037 40.5876L33.7937 38.8977C33.8009 38.8907 33.8066 38.8822 33.8105 38.8729C33.8143 38.8637 33.8162 38.8537 33.8161 38.8436C33.8162 38.8336 33.8143 38.8236 33.8105 38.8144C33.8067 38.8051 33.801 38.7967 33.7938 38.7897C32.8175 37.8134 32.5397 36.4134 33.0687 35.136C33.5978 33.8588 34.7841 33.0653 36.1647 33.0653C36.185 33.0653 36.2044 33.0572 36.2187 33.0428C36.233 33.0285 36.2411 33.009 36.2411 32.9888V30.599C36.2411 30.5787 36.233 30.5593 36.2187 30.545C36.2044 30.5307 36.1849 30.5226 36.1647 30.5226C34.7841 30.5226 33.5978 29.729 33.0687 28.4518C32.5396 27.1745 32.8174 25.7745 33.7937 24.7982C33.808 24.7838 33.816 24.7644 33.816 24.7441C33.816 24.7239 33.808 24.7044 33.7937 24.6901L32.1037 23.0001C32.0893 22.9858 32.0699 22.9779 32.0496 22.9779C32.0294 22.9779 32.0099 22.9859 31.9955 23.0002C31.0192 23.9764 29.6192 24.2543 28.342 23.7251C27.0648 23.1961 26.2714 22.0098 26.2714 20.6291C26.2714 20.6089 26.2633 20.5894 26.249 20.5751C26.2347 20.5607 26.2152 20.5527 26.1949 20.5526H23.8052C23.7849 20.5527 23.7654 20.5607 23.7511 20.5751C23.7368 20.5894 23.7287 20.6089 23.7287 20.6291C23.7287 22.0098 22.9353 23.1961 21.658 23.7251C20.3807 24.2544 18.9806 23.9764 18.0045 23.0001C17.9901 22.9859 17.9706 22.9779 17.9504 22.9779C17.9302 22.9779 17.9107 22.9859 17.8964 23.0001L16.2064 24.6901C16.1921 24.7044 16.1841 24.7239 16.1841 24.7441C16.1841 24.7644 16.1921 24.7838 16.2064 24.7982C17.1827 25.7745 17.4604 27.1745 16.9313 28.4518C16.4022 29.7292 15.2159 30.5226 13.8353 30.5226C13.8151 30.5226 13.7956 30.5307 13.7813 30.545C13.767 30.5593 13.7589 30.5787 13.7589 30.599V32.9888C13.7589 33.031 13.7932 33.0653 13.8353 33.0653C15.2159 33.0653 16.4022 33.8587 16.9313 35.136C17.4604 36.4134 17.1826 37.8133 16.2064 38.7896C16.1992 38.7966 16.1935 38.805 16.1896 38.8143C16.1858 38.8236 16.1839 38.8336 16.184 38.8436C16.184 38.8647 16.1916 38.8829 16.2064 38.8977L17.8964 40.5876C17.9107 40.6019 17.9302 40.61 17.9505 40.61C17.9707 40.61 17.9902 40.6019 18.0046 40.5876C18.8182 39.7741 19.9248 39.44 21.0404 39.6707C21.1315 39.6896 21.218 39.7262 21.295 39.7785C21.3719 39.8308 21.4379 39.8977 21.489 39.9754C21.5401 40.0532 21.5753 40.1403 21.5928 40.2317C21.6103 40.323 21.6095 40.417 21.5907 40.5081C21.5113 40.8912 21.1365 41.138 20.7533 41.0583C20.1133 40.9261 19.4767 41.1194 19.0066 41.5895C18.7245 41.8716 18.3495 42.0269 17.9505 42.0269C17.5515 42.0269 17.1765 41.8716 16.8944 41.5895L15.2046 39.8997C15.0654 39.7613 14.9551 39.5967 14.88 39.4154C14.8049 39.2341 14.7666 39.0397 14.7671 38.8435C14.7665 38.6473 14.8048 38.453 14.8798 38.2717C14.9549 38.0904 15.0652 37.9259 15.2044 37.7875ZM18.7096 50.879C18.7096 50.6911 18.635 50.5109 18.5021 50.3781C18.3692 50.2452 18.189 50.1705 18.0011 50.1705H0.708502C0.520596 50.1705 0.340385 50.2452 0.207515 50.3781C0.0746456 50.5109 0 50.6911 0 50.879C0 51.067 0.0746456 51.2472 0.207515 51.38C0.340385 51.5129 0.520596 51.5876 0.708502 51.5876H18.0011C18.189 51.5876 18.3692 51.5129 18.5021 51.38C18.635 51.2472 18.7096 51.067 18.7096 50.879ZM25 26.7606C27.7753 26.7606 30.0332 29.0185 30.0332 31.7938C30.0332 33.1027 29.5332 34.3426 28.6252 35.2851C28.5599 35.352 28.5084 35.4311 28.4738 35.5179C28.4392 35.6047 28.4221 35.6976 28.4235 35.791C28.4249 35.8845 28.4448 35.9767 28.4821 36.0625C28.5193 36.1482 28.5731 36.2257 28.6404 36.2906C28.7077 36.3554 28.7872 36.4063 28.8743 36.4403C28.9614 36.4743 29.0543 36.4907 29.1478 36.4886C29.2412 36.4865 29.3333 36.466 29.4188 36.4281C29.5043 36.3903 29.5814 36.3359 29.6458 36.2681C30.8093 35.0601 31.4502 33.4711 31.4502 31.7937C31.4502 28.237 28.5567 25.3435 25 25.3435C21.4433 25.3435 18.5498 28.237 18.5498 31.7937C18.5498 33.4905 19.2033 35.0926 20.3899 36.305C20.4558 36.3725 20.5346 36.4261 20.6215 36.4627C20.7085 36.4992 20.8019 36.518 20.8963 36.5179C21.0357 36.5179 21.1721 36.4767 21.2883 36.3995C21.4044 36.3223 21.4952 36.2126 21.5493 36.084C21.6033 35.9555 21.6182 35.8138 21.5921 35.6768C21.566 35.5398 21.5001 35.4135 21.4025 35.3139C20.4767 34.3679 19.9668 33.1178 19.9668 31.7938C19.9668 29.0185 22.2247 26.7606 25 26.7606ZM49.7925 50.378L46.796 47.3816C46.6631 47.2487 46.4829 47.1741 46.295 47.1741C46.107 47.1741 45.9268 47.2488 45.794 47.3816C45.6611 47.5145 45.5865 47.6947 45.5865 47.8826C45.5865 48.0705 45.6612 48.2507 45.794 48.3836L47.5811 50.1705H41.7386C41.5507 50.1705 41.3704 50.2452 41.2376 50.3781C41.1047 50.5109 41.0301 50.6911 41.0301 50.879C41.0301 51.067 41.1047 51.2472 41.2376 51.38C41.3704 51.5129 41.5507 51.5876 41.7386 51.5876H47.5812L45.7941 53.3746C45.6613 53.5075 45.5866 53.6877 45.5866 53.8756C45.5867 54.0635 45.6613 54.2437 45.7942 54.3766C45.9271 54.5094 46.1073 54.5841 46.2952 54.5841C46.4831 54.584 46.6633 54.5094 46.7962 54.3765L49.7927 51.3801C49.8585 51.3143 49.9107 51.2361 49.9463 51.1502C49.9819 51.0642 50.0002 50.9721 50.0002 50.879C50.0001 50.786 49.9818 50.6938 49.9462 50.6079C49.9105 50.5219 49.8583 50.4438 49.7925 50.378ZM44.2241 27.0757L45.8622 28.0215C45.9429 28.0687 46.032 28.0996 46.1246 28.1122C46.2172 28.1249 46.3113 28.1191 46.4017 28.0952C46.492 28.0713 46.5767 28.0298 46.6509 27.9731C46.7252 27.9163 46.7874 27.8454 46.8341 27.7645C46.8809 27.6836 46.9111 27.5942 46.9232 27.5016C46.9352 27.4089 46.9288 27.3148 46.9043 27.2246C46.8798 27.1344 46.8378 27.05 46.7805 26.9762C46.7233 26.9023 46.652 26.8405 46.5708 26.7943L43.6257 25.0939C40.8738 17.467 33.5638 12 25 12C16.003 12 8.38988 18.0341 5.99231 26.2676L5.04656 24.6297C4.95194 24.4683 4.79732 24.3508 4.61644 24.303C4.43556 24.2552 4.24311 24.2809 4.08109 24.3744C3.91906 24.4679 3.80062 24.6218 3.7516 24.8023C3.70258 24.9829 3.72696 25.1755 3.81943 25.3382L5.51852 28.281C5.31031 29.4403 5.20578 30.6159 5.20617 31.7938C5.20617 39.2201 9.30547 45.9582 15.9043 49.3784C16.0085 49.4324 16.1198 49.4581 16.2297 49.4581C16.3885 49.4582 16.5427 49.405 16.6676 49.307C16.7926 49.209 16.881 49.0718 16.9186 48.9176C16.9563 48.7633 16.9411 48.6008 16.8753 48.4563C16.8096 48.3117 16.6973 48.1934 16.5563 48.1203C10.4293 44.9446 6.62308 38.6887 6.62308 31.7937C6.62308 30.7069 6.71852 29.6421 6.90041 28.6066L9.79049 26.9381C9.95189 26.8434 10.0693 26.6888 10.1171 26.5079C10.165 26.3271 10.1393 26.1346 10.0457 25.9726C9.95219 25.8106 9.79836 25.6921 9.6178 25.6431C9.43724 25.5941 9.24463 25.6185 9.08198 25.7109L7.33634 26.7188C9.54413 19.0463 16.6268 13.417 25 13.417C32.925 13.417 39.6941 18.4596 42.268 25.5047L40.5997 28.3943C40.552 28.475 40.5207 28.5642 40.5078 28.657C40.4948 28.7498 40.5004 28.8442 40.5241 28.9349C40.5479 29.0255 40.5894 29.1105 40.6462 29.1849C40.7031 29.2594 40.7741 29.3219 40.8552 29.3687C40.9364 29.4156 41.026 29.4458 41.1189 29.4578C41.2118 29.4698 41.3062 29.4632 41.3965 29.4385C41.4869 29.4137 41.5714 29.3713 41.6453 29.3137C41.7192 29.2561 41.7809 29.1844 41.8268 29.1027L42.8343 27.3577C43.1952 28.8087 43.3775 30.2985 43.3769 31.7937C43.3769 35.8673 42.0717 39.726 39.6021 42.9524C39.4879 43.1016 39.4377 43.2901 39.4624 43.4764C39.4872 43.6626 39.5849 43.8314 39.7341 43.9456C39.808 44.0022 39.8923 44.0437 39.9822 44.0677C40.0721 44.0917 40.1658 44.0977 40.2581 44.0854C40.3503 44.0732 40.4392 44.0429 40.5197 43.9962C40.6003 43.9496 40.6708 43.8876 40.7273 43.8137C43.3878 40.3378 44.7939 36.1814 44.7939 31.7936C44.7944 30.2038 44.603 28.6197 44.2241 27.0757ZM40.3887 46.5931L40.4385 52.888C40.4316 55.4175 39.3751 57.8552 37.5401 59.5833C35.874 61.1523 33.7247 61.9999 31.44 62C31.263 62 31.0856 61.9949 30.9071 61.9847C26.3514 61.7239 24.9453 60.5464 22.6159 58.5954C21.817 57.9264 20.9116 57.168 19.7083 56.2949C18.3037 55.2759 17.9453 53.344 18.8924 51.897C19.7681 50.5588 21.0342 50.4675 22.2135 50.7151L22.2119 35.3964C22.2123 34.6492 22.5052 33.9459 23.0364 33.4154C23.5671 32.8855 24.27 32.5936 25.016 32.5936H25.0177C25.7644 32.5941 26.4677 32.8868 26.9982 33.418C27.5288 33.9492 27.8208 34.6528 27.8202 35.3996L27.8109 44.176C28.2346 43.9227 28.7131 43.7875 29.2068 43.7875H29.2089C29.9554 43.7881 30.6586 44.0807 31.1891 44.6116C31.2279 44.6506 31.2656 44.6904 31.3019 44.7312C31.3389 44.6898 31.3771 44.6492 31.4167 44.6097C31.9472 44.0796 32.6502 43.7877 33.3962 43.7877H33.3982C34.1455 43.7882 34.8494 44.0813 35.3801 44.6133C35.4182 44.6516 35.4552 44.6908 35.4908 44.7308C35.5274 44.6897 35.5653 44.6495 35.6046 44.6103C36.1351 44.0799 36.8382 43.7877 37.5845 43.7877H37.5865C38.333 43.788 39.0364 44.0807 39.567 44.6118C40.0975 45.1427 40.3893 45.8465 40.3887 46.5931ZM39.0216 52.8916L38.9718 46.5981C38.9721 46.2238 38.8274 45.8761 38.5644 45.6129C38.3013 45.3496 37.9537 45.2045 37.5856 45.2043H37.5846C37.2166 45.2043 36.8693 45.3491 36.6064 45.6119C36.3445 45.8738 36.1999 46.2195 36.199 46.586V46.5925C36.1986 46.7802 36.1238 46.96 35.991 47.0926C35.8581 47.2251 35.6782 47.2996 35.4905 47.2996H35.49C35.3022 47.2995 35.1222 47.2248 34.9895 47.0921C34.8568 46.9593 34.7821 46.7793 34.782 46.5916V46.586C34.7818 46.2207 34.638 45.8755 34.3766 45.6136C34.1136 45.3499 33.7657 45.2045 33.3971 45.2043H33.3962C33.0283 45.2043 32.6812 45.3489 32.4182 45.6115C32.155 45.8747 32.01 46.2224 32.0102 46.591V46.5924C32.0099 46.7801 31.9351 46.96 31.8022 47.0926C31.6694 47.2252 31.4894 47.2997 31.3017 47.2997H31.3012C31.1134 47.2996 30.9334 47.2249 30.8006 47.0921C30.6679 46.9593 30.5933 46.7792 30.5932 46.5914V46.5849C30.5925 46.2197 30.4482 45.8746 30.1866 45.6129C29.9236 45.3496 29.576 45.2046 29.2078 45.2043H29.2069C28.8552 45.2043 28.514 45.3524 28.2461 45.6216C27.9703 45.8983 27.8114 46.2687 27.8083 46.6402V46.662C27.8081 46.8496 27.7335 47.0294 27.601 47.162C27.4684 47.2947 27.2887 47.3694 27.1011 47.3697H27.0997C26.9124 47.3697 26.7327 47.2956 26.5999 47.1634C26.4672 47.0313 26.3921 46.852 26.3912 46.6647V46.6348L26.403 35.3979C26.4033 35.0301 26.2586 34.6824 25.9956 34.419C25.7325 34.1557 25.3849 34.0105 25.0167 34.0103H25.0159C24.6482 34.0103 24.3008 34.1551 24.0377 34.4177C23.7743 34.6808 23.6292 35.0282 23.6289 35.3964L23.6306 51.6454C23.6305 51.7577 23.6039 51.8683 23.5528 51.9682C23.5017 52.0681 23.4276 52.1544 23.3366 52.2201C23.2456 52.2858 23.1403 52.3289 23.0294 52.3459C22.9185 52.3629 22.8051 52.3533 22.6986 52.3179C22.0704 52.1091 21.6045 52.024 21.2494 52.024C20.5805 52.024 20.3049 52.326 20.078 52.6726C19.5455 53.4861 19.7488 54.5734 20.5405 55.1478C21.7837 56.0499 22.7091 56.825 23.5257 57.5088C25.7732 59.3911 26.9013 60.3359 30.9882 60.5698C33.0774 60.6901 35.0595 59.9728 36.5686 58.5516C38.1217 57.0893 39.0157 55.0262 39.0216 52.8916Z" fill="white"/>
<defs>
<linearGradient id="paint0_linear_4048_5" x1="55" y1="-52.7692" x2="20" y2="56" gradientUnits="userSpaceOnUse">
<stop stop-color="#FFDC73"/>
<stop offset="1" stop-color="#FFDC73" stop-opacity="0"/>
</linearGradient>
</defs>
</svg>
