<svg width="614" height="693" viewBox="0 0 614 693" fill="none" xmlns="http://www.w3.org/2000/svg">
<path d="M209.519 24.6243C209.519 21.9446 210.929 20.3403 212.877 20.3403C214.826 20.3403 216.245 21.9446 216.245 24.6243C216.245 27.304 214.826 28.9082 212.877 28.9082C210.929 28.9082 209.519 27.304 209.519 24.6243ZM215.354 24.6243C215.354 22.3765 214.341 21.1337 212.877 21.1337C211.414 21.1337 210.401 22.3765 210.401 24.6243C210.401 26.872 211.414 28.1149 212.877 28.1149C214.341 28.1149 215.354 26.872 215.354 24.6243Z" fill="#FFBA19"/>
<path d="M217.479 24.6243C217.479 21.9446 218.889 20.3403 220.837 20.3403C222.785 20.3403 224.205 21.9446 224.205 24.6243C224.205 27.304 222.785 28.9082 220.837 28.9082C218.889 28.9082 217.479 27.304 217.479 24.6243ZM223.314 24.6243C223.314 22.3765 222.301 21.1337 220.837 21.1337C219.374 21.1337 218.36 22.3765 218.36 24.6243C218.36 26.872 219.374 28.1149 220.837 28.1149C222.301 28.1149 223.314 26.872 223.314 24.6243Z" fill="#FFBA19"/>
<path d="M227.748 20.4197V28.8377H226.884V21.1866H224.901V20.4197H227.748Z" fill="#FFBA19"/>
<path d="M229.757 24.6243C229.757 21.9446 231.168 20.3403 233.116 20.3403C235.064 20.3403 236.483 21.9446 236.483 24.6243C236.483 27.304 235.064 28.9082 233.116 28.9082C231.168 28.9082 229.757 27.304 229.757 24.6243ZM235.593 24.6243C235.593 22.3765 234.579 21.1337 233.116 21.1337C231.652 21.1337 230.639 22.3765 230.639 24.6243C230.639 26.872 231.652 28.1149 233.116 28.1149C234.579 28.1149 235.593 26.872 235.593 24.6243Z" fill="#FFBA19"/>
<path d="M240.027 20.4197V28.8377H239.163V21.1866H237.18V20.4197H240.036H240.027Z" fill="#FFBA19"/>
<path d="M201.233 36.5769C201.233 33.8972 202.644 32.293 204.592 32.293C206.54 32.293 207.959 33.8884 207.959 36.5769C207.959 39.2654 206.54 40.8609 204.592 40.8609C202.644 40.8609 201.233 39.2566 201.233 36.5769ZM207.069 36.5769C207.069 34.3292 206.055 33.0863 204.592 33.0863C203.129 33.0863 202.115 34.3292 202.115 36.5769C202.115 38.8247 203.129 40.0676 204.592 40.0676C206.055 40.0676 207.069 38.8247 207.069 36.5769Z" fill="#FFBA19"/>
<path d="M209.193 36.5769C209.193 33.8972 210.603 32.293 212.551 32.293C214.499 32.293 215.919 33.8884 215.919 36.5769C215.919 39.2654 214.499 40.8609 212.551 40.8609C210.603 40.8609 209.193 39.2566 209.193 36.5769ZM215.028 36.5769C215.028 34.3292 214.015 33.0863 212.551 33.0863C211.088 33.0863 210.074 34.3292 210.074 36.5769C210.074 38.8247 211.088 40.0676 212.551 40.0676C214.015 40.0676 215.028 38.8247 215.028 36.5769Z" fill="#FFBA19"/>
<path d="M219.462 32.3635V40.7816H218.599V33.1304H216.615V32.3635H219.462Z" fill="#FFBA19"/>
<path d="M221.472 36.5769C221.472 33.8972 222.882 32.293 224.83 32.293C226.778 32.293 228.197 33.8884 228.197 36.5769C228.197 39.2654 226.778 40.8609 224.83 40.8609C222.882 40.8609 221.472 39.2566 221.472 36.5769ZM227.307 36.5769C227.307 34.3292 226.293 33.0863 224.83 33.0863C223.367 33.0863 222.353 34.3292 222.353 36.5769C222.353 38.8247 223.367 40.0676 224.83 40.0676C226.293 40.0676 227.307 38.8247 227.307 36.5769Z" fill="#FFBA19"/>
<path d="M231.741 32.3635V40.7816H230.877V33.1304H228.894V32.3635H231.741Z" fill="#FFBA19"/>
<path d="M236.087 32.3635V40.7816H235.223V33.1304H233.24V32.3635H236.087Z" fill="#FFBA19"/>
<path d="M238.088 36.5769C238.088 33.8972 239.498 32.293 241.446 32.293C243.394 32.293 244.814 33.8884 244.814 36.5769C244.814 39.2654 243.394 40.8609 241.446 40.8609C239.498 40.8609 238.088 39.2566 238.088 36.5769ZM243.923 36.5769C243.923 34.3292 242.91 33.0863 241.446 33.0863C239.983 33.0863 238.969 34.3292 238.969 36.5769C238.969 38.8247 239.983 40.0676 241.446 40.0676C242.91 40.0676 243.923 38.8247 243.923 36.5769Z" fill="#FFBA19"/>
<path d="M248.366 32.3635V40.7816H247.502V33.1304H245.519V32.3635H248.375H248.366Z" fill="#FFBA19"/>
<path d="M209.519 48.124C209.519 45.4444 210.929 43.8401 212.877 43.8401C214.826 43.8401 216.245 45.4444 216.245 48.124C216.245 50.8037 214.826 52.408 212.877 52.408C210.929 52.408 209.519 50.8037 209.519 48.124ZM215.354 48.124C215.354 45.8763 214.341 44.6334 212.877 44.6334C211.414 44.6334 210.401 45.8763 210.401 48.124C210.401 50.3718 211.414 51.6147 212.877 51.6147C214.341 51.6147 215.354 50.3718 215.354 48.124Z" fill="#FFBA19"/>
<path d="M219.797 43.9194V52.3375H218.933V44.6863H216.95V43.9194H219.797Z" fill="#FFBA19"/>
<path d="M224.134 43.9194V52.3375H223.27V44.6863H221.287V43.9194H224.134Z" fill="#FFBA19"/>
<path d="M228.48 43.9194V52.3375H227.616V44.6863H225.633V43.9194H228.48Z" fill="#FFBA19"/>
<path d="M230.48 48.124C230.48 45.4444 231.891 43.8401 233.839 43.8401C235.787 43.8401 237.206 45.4444 237.206 48.124C237.206 50.8037 235.787 52.408 233.839 52.408C231.891 52.408 230.48 50.8037 230.48 48.124ZM236.316 48.124C236.316 45.8763 235.302 44.6334 233.839 44.6334C232.376 44.6334 231.362 45.8763 231.362 48.124C231.362 50.3718 232.376 51.6147 233.839 51.6147C235.302 51.6147 236.316 50.3718 236.316 48.124Z" fill="#FFBA19"/>
<path d="M240.75 43.9194V52.3375H239.886V44.6863H237.902V43.9194H240.758H240.75Z" fill="#FFBA19"/>
<path d="M257.709 66.9437C257.709 66.9437 257.303 66.9438 256.598 67.0848C255.911 67.2346 254.906 67.6577 254.051 68.6009C253.628 69.0681 253.248 69.6675 253.037 70.3727C252.834 71.0778 252.799 71.8888 253.037 72.6909C253.478 74.2688 254.941 75.8202 256.854 76.0582C258.775 76.2609 260.547 75.0797 261.34 73.6429C261.755 72.9201 261.913 72.1268 261.869 71.3864C261.825 70.6459 261.587 69.976 261.279 69.4295C260.653 68.3188 259.78 67.6754 259.137 67.3757C258.493 67.0672 258.079 67.0231 258.088 66.9878C258.088 66.979 258.194 66.9878 258.379 67.0143C258.476 67.0231 258.59 67.0495 258.722 67.0936C258.863 67.1289 259.013 67.1817 259.181 67.2523C259.86 67.5255 260.794 68.1514 261.481 69.3061C261.816 69.879 262.081 70.5754 262.143 71.3687C262.195 72.1533 262.046 73.0259 261.605 73.8016C261.182 74.5773 260.512 75.2825 259.674 75.7585C258.846 76.2521 257.823 76.5077 256.792 76.4019C255.761 76.2697 254.826 75.7849 254.139 75.1238C253.434 74.4627 252.94 73.6341 252.711 72.7791C252.455 71.9241 252.508 71.0426 252.737 70.2933C252.975 69.5353 253.398 68.9182 253.848 68.4334C254.773 67.4638 255.831 67.0672 256.554 66.9526C256.739 66.9173 256.898 66.9085 257.039 66.8997C257.18 66.8909 257.303 66.8909 257.4 66.8997C257.594 66.9173 257.691 66.9261 257.691 66.9437H257.709Z" fill="#FFBA19"/>
<path d="M262.619 47.1018C262.619 47.1018 262.645 46.899 262.725 46.5024C262.804 46.0969 262.919 45.5151 263.069 44.7482C263.148 44.3604 263.227 43.9373 263.324 43.4613C263.395 42.9853 263.43 42.4564 263.492 41.8834C263.545 41.3105 263.606 40.7023 263.668 40.0412C263.712 39.715 263.721 39.3712 263.712 39.0187C263.712 38.6661 263.712 38.3047 263.712 37.9345C263.8 34.9639 263.342 31.3146 262.178 27.2598C260.997 23.2227 258.926 18.7889 255.62 14.6283C255.206 14.1083 254.783 13.5882 254.36 13.0593C253.901 12.5569 253.408 12.0809 252.932 11.5784C252.685 11.3316 252.447 11.0848 252.2 10.8292C251.953 10.5736 251.715 10.3179 251.433 10.1064C250.887 9.64802 250.34 9.18965 249.785 8.72247C249.503 8.49329 249.229 8.24648 248.947 8.02611C248.648 7.82337 248.339 7.61181 248.039 7.40026C247.431 6.98597 246.814 6.56286 246.197 6.13094C245.563 5.72546 244.884 5.39051 244.214 5.01147C243.879 4.82636 243.544 4.64125 243.2 4.45614C243.033 4.368 242.865 4.26222 242.689 4.18289L242.151 3.95371C240.714 3.3543 239.278 2.65794 237.717 2.24365C236.942 2.01447 236.175 1.74121 235.382 1.54729C234.579 1.38862 233.768 1.22114 232.958 1.05366C232.552 0.974331 232.147 0.868554 231.732 0.82448C231.318 0.780407 230.895 0.745148 230.481 0.701075C229.643 0.630557 228.797 0.507151 227.951 0.471892C226.241 0.498336 224.504 0.39256 222.768 0.648187C222.336 0.692261 221.895 0.736334 221.454 0.780407C221.234 0.806852 221.014 0.815666 220.793 0.850925L220.141 0.983146C219.268 1.15944 218.396 1.33573 217.514 1.51203C216.641 1.7324 215.786 2.02328 214.914 2.27891C214.482 2.41995 214.032 2.51691 213.618 2.6932L212.349 3.21327C210.621 3.83911 209.008 4.77347 207.351 5.63732C206.566 6.14857 205.782 6.66864 204.997 7.18871L204.407 7.57656C204.222 7.71759 204.036 7.86744 203.851 8.01729L202.741 8.90758L201.621 9.80668L200.59 10.8116L199.559 11.8253L199.038 12.3277C198.88 12.504 198.721 12.6979 198.571 12.883C197.945 13.6235 197.32 14.3727 196.685 15.1131C196.13 15.9153 195.574 16.7262 195.019 17.5372C192.903 20.8603 191.282 24.5449 190.224 28.4586C189.263 32.39 188.91 36.4095 189.148 40.3409C189.245 41.3193 189.342 42.2977 189.439 43.2674C189.633 44.2282 189.818 45.1801 190.012 46.1321L190.162 46.8461L190.374 47.5425L190.797 48.9264L191.22 50.3015L191.766 51.6237L192.313 52.9459L192.586 53.5982L192.921 54.2241C193.362 55.0615 193.803 55.89 194.234 56.7186C195.266 58.2788 196.227 59.8743 197.434 61.2582L198.289 62.3248C198.571 62.6862 198.915 62.9859 199.224 63.3208C199.867 63.9643 200.475 64.6342 201.128 65.2425C201.815 65.8242 202.494 66.3972 203.173 66.9701L203.684 67.4021C203.86 67.5343 204.045 67.6577 204.23 67.7811C204.592 68.0279 204.953 68.2835 205.315 68.5303C206.716 69.5881 208.285 70.3374 209.775 71.1836C210.542 71.5626 211.335 71.8623 212.102 72.2061C212.49 72.3736 212.878 72.541 213.257 72.6997C213.644 72.8584 214.05 72.9553 214.447 73.0876C215.24 73.3344 216.024 73.5812 216.809 73.828C217.593 74.0395 218.404 74.1718 219.189 74.3392C220.758 74.7359 222.345 74.8152 223.896 74.9827L224.478 75.0444C224.672 75.0532 224.866 75.0444 225.06 75.0444C225.447 75.0444 225.826 75.0444 226.214 75.0444C226.981 75.0356 227.739 75.0709 228.488 75.018C229.238 74.9475 229.978 74.8681 230.719 74.7976C231.089 74.7624 231.45 74.7271 231.812 74.6918C232.173 74.6213 232.526 74.5508 232.887 74.4803C233.601 74.3392 234.297 74.1982 234.994 74.066C235.346 74.0131 235.681 73.9073 236.016 73.8015C236.351 73.7046 236.686 73.5988 237.021 73.5018C237.682 73.2991 238.352 73.114 238.987 72.8936C239.613 72.638 240.238 72.3824 240.847 72.1268C245.748 70.0729 249.697 67.1905 252.685 64.2199C253.064 63.8497 253.443 63.4971 253.796 63.1357C254.122 62.7479 254.448 62.3689 254.765 61.9898C255.082 61.6196 255.391 61.2494 255.699 60.888C255.849 60.7029 256.008 60.5354 256.149 60.3503C256.281 60.1564 256.413 59.9713 256.537 59.7861C257.048 59.0457 257.542 58.3317 258.009 57.653C258.458 56.9654 258.802 56.2514 259.172 55.608C259.349 55.2818 259.525 54.9645 259.701 54.6648C259.878 54.3651 260.036 54.0566 260.16 53.7569C260.424 53.1487 260.662 52.5845 260.891 52.0644C261.112 51.5356 261.341 51.0596 261.508 50.61C261.658 50.1517 261.79 49.7374 261.905 49.3583C262.143 48.6179 262.328 48.0538 262.452 47.6659C262.575 47.2869 262.645 47.0929 262.645 47.0929C262.645 47.0929 262.593 47.2957 262.478 47.6747C262.363 48.0714 262.187 48.6355 261.967 49.3848C261.852 49.7638 261.72 50.1781 261.579 50.6453C261.42 51.1036 261.191 51.5796 260.98 52.1173C260.759 52.6462 260.512 53.2192 260.257 53.8274C260.142 54.1359 259.983 54.4444 259.807 54.7441C259.64 55.0526 259.463 55.37 259.287 55.6961C258.917 56.3396 258.573 57.0536 258.132 57.7499C257.665 58.4375 257.172 59.1515 256.66 59.9007C256.528 60.0858 256.405 60.2798 256.272 60.4649C256.14 60.65 255.973 60.8263 255.832 61.0114C255.523 61.3728 255.215 61.743 254.897 62.122C254.58 62.5011 254.254 62.8801 253.928 63.2768C253.575 63.647 253.196 63.9996 252.817 64.3786C249.829 67.3756 245.862 70.2933 240.935 72.3736C240.318 72.6292 239.692 72.8848 239.057 73.1493C238.414 73.3696 237.744 73.5547 237.074 73.7663C236.739 73.8721 236.404 73.969 236.069 74.0748C235.734 74.1806 235.39 74.2864 235.038 74.3481C234.341 74.4891 233.627 74.6301 232.913 74.7712C232.552 74.8417 232.199 74.921 231.838 74.9827C231.468 75.018 231.106 75.0532 230.736 75.0973C229.996 75.1678 229.247 75.2472 228.497 75.3265C227.739 75.3794 226.972 75.3441 226.205 75.3529C225.818 75.3529 225.43 75.3529 225.042 75.3529C224.848 75.3529 224.654 75.3529 224.46 75.3529L223.878 75.2912C222.318 75.1238 220.714 75.0444 219.136 74.6478C218.343 74.4715 217.532 74.3481 216.738 74.1365C215.954 73.8897 215.161 73.6429 214.358 73.3961C213.962 73.2638 213.547 73.1581 213.16 73.0082C212.772 72.8407 212.384 72.6733 211.987 72.5146C211.212 72.1708 210.409 71.8623 209.634 71.4921C208.135 70.6459 206.549 69.8878 205.138 68.8212C204.777 68.5744 204.407 68.3188 204.045 68.072C203.86 67.9486 203.675 67.8252 203.499 67.6929L202.987 67.261C202.3 66.6881 201.612 66.1063 200.925 65.5245C200.264 64.9075 199.647 64.2376 199.003 63.5853C198.695 63.2503 198.342 62.9418 198.06 62.5804L197.196 61.505C195.971 60.1035 195.001 58.4992 193.961 56.9302C193.52 56.0928 193.08 55.2554 192.63 54.4092L192.295 53.7745L192.022 53.1134L191.475 51.7824L190.929 50.4425L190.506 49.0498L190.083 47.6571L189.871 46.9607L189.721 46.2467C189.527 45.2859 189.333 44.3251 189.14 43.3555C189.043 42.3771 188.946 41.3898 188.84 40.4026C188.593 36.4359 188.954 32.3812 189.915 28.4146C190.982 24.4744 192.63 20.7457 194.755 17.3962C195.319 16.5764 195.883 15.7654 196.438 14.9545C197.073 14.1964 197.707 13.4472 198.342 12.6979C198.501 12.5128 198.651 12.3189 198.818 12.1426L199.338 11.6313L200.378 10.6088L201.418 9.59513L202.547 8.68721L203.666 7.78811C203.851 7.63826 204.036 7.48841 204.23 7.33856L204.83 6.9419C205.623 6.42183 206.416 5.90176 207.21 5.38169C208.885 4.50904 210.506 3.56586 212.252 2.94001L213.53 2.41113C213.953 2.23484 214.403 2.12906 214.843 1.98802C215.725 1.7324 216.589 1.44151 217.461 1.22114C218.352 1.04485 219.233 0.868554 220.106 0.69226L220.767 0.560039C220.987 0.52478 221.207 0.515966 221.428 0.489522C221.869 0.445448 222.309 0.401375 222.75 0.357301C224.504 0.110489 226.258 0.207451 227.977 0.189821C228.832 0.233895 229.687 0.348486 230.533 0.427819C230.957 0.471893 231.38 0.515966 231.794 0.560039C232.208 0.612928 232.623 0.718705 233.028 0.798037C233.848 0.965517 234.659 1.133 235.47 1.30048C236.272 1.4944 237.039 1.77647 237.823 2.00565C239.401 2.41994 240.838 3.12512 242.292 3.73334L242.83 3.96252C243.006 4.05067 243.174 4.14763 243.341 4.24459C243.685 4.4297 244.02 4.62363 244.364 4.80873C245.034 5.18777 245.721 5.53154 246.356 5.93702C246.982 6.36894 247.599 6.79205 248.207 7.21515C248.515 7.42671 248.815 7.63826 249.124 7.84981C249.415 8.079 249.688 8.32581 249.97 8.55499C250.525 9.02217 251.081 9.48935 251.627 9.95653C251.909 10.1769 252.156 10.4325 252.403 10.6882C252.65 10.9438 252.896 11.1906 253.134 11.4462C253.619 11.9487 254.113 12.4335 254.571 12.9447C254.994 13.4824 255.417 14.0025 255.841 14.5226C259.155 18.7184 261.217 23.1874 262.39 27.251C263.545 31.3234 263.977 34.9991 263.871 37.9785C263.871 38.3487 263.871 38.7101 263.871 39.0627C263.871 39.4153 263.871 39.7591 263.818 40.0852C263.747 40.7463 263.686 41.3546 263.624 41.9275C263.562 42.5005 263.518 43.0294 263.448 43.5054C263.351 43.9813 263.254 44.4045 263.174 44.7923C263.016 45.5504 262.883 46.1321 262.804 46.5376C262.716 46.9343 262.663 47.1282 262.663 47.1282L262.619 47.1018Z" fill="#FFBA19"/>
<path d="M346.516 689.795C322.53 678.462 313.005 651.487 309.598 626.388C309.042 622.147 307.86 617.836 309.181 613.873C310.572 609.841 314.743 606.573 318.776 607.685C322.113 608.659 324.129 611.996 326.354 614.707C329.274 618.253 333.307 620.965 337.687 622.355C340.607 623.329 344.014 623.607 346.377 621.73C349.645 619.088 349.228 614.082 348.533 609.91C347.142 602.216 345.775 594.499 344.431 586.758C343.735 582.656 342.971 578.415 343.596 574.243C344.222 570.072 346.447 565.97 350.201 564.162C353.956 562.424 359.24 563.884 360.769 567.778C361.395 569.377 361.325 571.184 361.743 572.922C362.16 574.591 363.272 576.399 365.01 576.607C366.748 576.816 368.208 575.356 369.251 573.896C372.797 569.029 374.813 563.119 376.621 557.279C378.429 551.439 380.097 545.529 383.226 540.315C386.355 535.1 391.082 530.581 396.992 529.191C402.832 527.87 409.785 530.442 412.288 536.074C414.791 541.636 412.357 548.171 409.507 553.525C405.127 561.451 399.704 568.751 393.307 575.147C392.125 576.26 390.943 577.511 390.665 579.18C390.248 582.1 393.307 584.394 396.227 584.811C399.495 585.298 402.763 584.464 406.1 584.255C409.368 584.116 413.122 584.95 414.86 587.801C417.294 591.764 414.443 596.77 411.453 600.316C405.474 607.268 398.313 613.247 390.318 617.836C387.467 619.435 384.408 620.965 382.322 623.537C380.167 626.11 379.333 630.073 381.349 632.715C383.296 635.426 387.259 635.704 390.387 634.522C393.446 633.41 396.019 631.185 398.869 629.516C404.223 626.457 411.662 625.553 416.112 629.864C419.101 632.715 420.075 637.164 419.519 641.266C418.962 645.299 417.016 649.053 414.93 652.529C407.63 664.835 397.409 675.403 384.964 682.286C372.519 689.1 360.422 692.368 346.516 689.795Z" fill="#F5F5F5"/>
<path d="M350.271 673.039C351.87 659.83 354.721 645.438 358.266 630.559C359.193 626.805 360.097 623.12 360.978 619.505C361.812 615.889 362.716 612.274 363.759 608.867C365.914 601.915 368.487 595.449 371.059 589.33C373.701 583.212 376.413 577.511 378.985 572.227C381.558 566.943 384.061 562.076 386.563 557.696C391.5 548.936 396.297 542.401 399.773 538.021C401.511 535.796 402.902 534.127 403.875 533.015C404.339 532.505 404.686 532.088 404.918 531.763C405.196 531.485 405.335 531.346 405.335 531.346C405.335 531.392 405.219 531.555 404.988 531.833C404.756 532.157 404.408 532.598 403.945 533.154C403.041 534.266 401.651 536.004 399.982 538.16C396.575 542.609 391.847 549.214 387.05 557.974C384.617 562.355 382.114 567.221 379.541 572.505C377.038 577.859 374.327 583.56 371.754 589.609C369.112 595.727 366.61 602.193 364.524 609.076C363.411 612.483 362.577 616.098 361.673 619.713C360.793 623.329 359.912 627.013 359.031 630.768C355.485 645.646 352.565 659.969 351.036 673.179" fill="#E0E0E0"/>
<path d="M363.968 608.798C363.968 608.798 363.69 608.172 363.272 607.06C362.855 605.947 362.299 604.348 361.673 602.332C360.422 598.299 358.823 592.668 357.085 586.48C355.347 580.223 353.747 574.661 352.357 570.698C351.731 568.681 351.175 567.013 350.758 565.97C350.341 564.788 350.202 564.162 350.202 564.162C350.271 564.162 350.549 564.719 351.036 565.831C351.523 566.874 352.148 568.473 352.913 570.489C354.373 574.452 356.111 580.014 357.849 586.272C359.518 592.39 361.048 597.952 362.23 602.193C362.739 604.093 363.18 605.692 363.551 606.99C363.898 608.103 364.037 608.798 363.968 608.798Z" fill="#E0E0E0"/>
<path d="M415.625 589.817C415.625 589.817 414.93 590.095 413.539 590.443C412.218 590.791 410.271 591.277 407.838 591.972C403.041 593.293 396.505 595.379 389.344 598.021C382.253 600.663 375.856 603.375 371.337 605.46C369.043 606.434 367.235 607.338 365.984 607.894C364.732 608.52 364.037 608.798 363.967 608.798C363.967 608.728 364.663 608.311 365.844 607.616C367.096 606.99 368.834 606.017 371.128 604.904C375.578 602.749 381.974 599.968 389.066 597.326C396.227 594.684 402.832 592.668 407.699 591.416C410.132 590.791 412.079 590.373 413.47 590.095C414.86 589.887 415.625 589.748 415.625 589.817Z" fill="#E0E0E0"/>
<path d="M350.757 671.997C350.757 671.997 350.618 671.788 350.34 671.371C349.969 670.907 349.552 670.328 349.088 669.633C347.976 668.034 346.516 665.809 344.708 662.958C341.093 657.257 336.365 649.262 331.29 640.362C326.145 631.463 321.487 623.468 318.01 617.697C316.342 614.916 314.951 612.622 313.908 610.953C313.445 610.211 313.074 609.586 312.796 609.076C312.518 608.659 312.402 608.427 312.448 608.381C312.448 608.381 312.587 608.589 312.866 609.006C313.236 609.47 313.654 610.049 314.117 610.745C315.229 612.344 316.689 614.568 318.497 617.419C322.112 623.12 326.84 631.116 331.916 640.015C337.061 648.914 341.719 656.91 345.195 662.68C346.864 665.461 348.254 667.756 349.297 669.424C349.761 670.166 350.131 670.792 350.409 671.301C350.688 671.719 350.803 671.95 350.757 671.997Z" fill="#E0E0E0"/>
<path d="M417.781 637.164C417.781 637.164 417.572 637.303 417.155 637.581C416.599 637.859 415.95 638.184 415.208 638.555C413.4 639.528 410.967 640.779 408.047 642.309C401.929 645.507 393.655 649.957 384.478 654.893C375.3 659.83 366.957 664.21 360.77 667.269C357.71 668.798 355.277 669.98 353.539 670.815C352.705 671.139 352.032 671.44 351.523 671.718C351.059 671.904 350.804 671.997 350.758 671.997C350.758 671.95 350.99 671.811 351.453 671.579C351.963 671.301 352.612 670.954 353.4 670.537C355.207 669.563 357.571 668.312 360.561 666.782C366.61 663.584 374.953 659.134 384.13 654.198C393.308 649.262 401.651 644.881 407.769 641.822C410.828 640.293 413.331 639.111 415.069 638.346C415.857 637.975 416.529 637.651 417.085 637.373C417.549 637.187 417.781 637.118 417.781 637.164Z" fill="#E0E0E0"/>
<path d="M172.632 391.322C172.632 391.322 156.085 393.616 165.402 429.839C174.649 465.992 182.505 484.625 182.505 484.625C182.505 484.625 183.756 492.829 177.152 492.62C170.547 492.342 157.059 486.989 152.539 494.081C147.812 501.52 151.914 510.419 162.273 519.736C172.632 529.052 194.602 550.327 196.549 552.274C198.496 554.151 200.025 558.183 195.437 558.739C190.918 559.296 158.797 555.472 157.893 570.837C156.989 586.202 190.153 607.477 193.768 609.841C197.314 612.274 197.87 614.082 197.105 616.168C196.271 618.253 185.564 615.959 176.387 615.264C167.209 614.569 156.433 615.403 156.641 624.302C156.92 633.202 174.301 655.728 225.055 672.484L249.111 678.671L266.84 661.151C302.576 621.452 306.469 593.224 302.298 585.368C298.057 577.581 288.323 582.239 280.675 587.384C273.027 592.529 264.893 599.829 263.155 598.439C261.417 597.048 261 595.171 262.946 591.277C264.823 587.454 283.039 552.552 274.627 539.62C266.283 526.758 240.211 546.016 236.04 547.754C231.799 549.562 231.103 545.321 231.868 542.749C232.564 540.037 241.046 510.697 245.426 497.487C249.806 484.208 248.972 474.405 241.185 470.372C233.676 466.479 224.638 477.812 219.006 481.288C213.444 484.834 210.454 477.047 210.454 477.047C210.454 477.047 208.021 456.954 198.079 420.939C188.137 384.925 172.285 391.391 172.285 391.391" fill="#EBEBEB"/>
<path d="M249.041 684.65C241.88 658.161 229.852 610.884 219.354 570.35C208.856 529.886 199.331 493.177 192.308 466.687C188.763 453.408 185.912 442.701 183.896 435.262C182.922 431.577 182.158 428.726 181.602 426.78C181.37 425.806 181.184 425.065 181.045 424.555C180.953 424.045 180.906 423.79 180.906 423.79C180.906 423.79 180.976 424.022 181.115 424.485C181.3 425.041 181.509 425.783 181.741 426.71C182.366 428.657 183.131 431.507 184.174 435.192C186.26 442.562 189.249 453.269 192.795 466.548C200.026 492.968 209.62 529.678 220.119 570.142C230.617 610.675 242.506 658.022 249.598 684.511" fill="#E0E0E0"/>
<path d="M171.033 502.354C171.102 502.354 171.658 502.632 172.632 503.188C173.605 503.814 175.065 504.718 176.803 505.83C180.28 508.055 184.938 511.253 190.083 514.869C195.158 518.484 199.677 521.752 203.223 524.255C204.799 525.367 206.12 526.294 207.186 527.036C208.159 527.731 208.646 528.079 208.646 528.148C208.577 528.148 208.02 527.87 207.047 527.314C206.004 526.688 204.614 525.784 202.875 524.672C199.469 522.447 194.811 519.179 189.666 515.494C184.59 511.949 180.002 508.75 176.456 506.247C174.88 505.135 173.559 504.208 172.493 503.466C171.519 502.771 171.033 502.424 171.033 502.354Z" fill="#E0E0E0"/>
<path d="M210.594 526.966C210.455 526.827 216.642 516.815 224.429 504.648C232.216 492.412 238.752 482.609 238.891 482.678C239.099 482.817 232.911 492.829 225.055 505.066C217.268 517.233 210.802 527.036 210.594 526.966Z" fill="#E0E0E0"/>
<path d="M223.942 589.887C223.873 589.887 224.359 589.4 225.263 588.635C226.283 587.755 227.534 586.666 229.017 585.368C232.146 582.587 236.526 578.763 241.184 574.313C245.843 569.933 249.875 565.762 252.795 562.772C254.186 561.335 255.345 560.13 256.272 559.157C257.106 558.322 257.593 557.905 257.593 557.905C257.662 557.975 257.245 558.461 256.48 559.365C255.715 560.269 254.603 561.52 253.212 563.12C250.362 566.248 246.329 570.42 241.671 574.869C237.013 579.319 232.633 583.073 229.365 585.785C227.696 587.106 226.375 588.149 225.472 588.844C224.498 589.609 223.942 589.957 223.942 589.887Z" fill="#E0E0E0"/>
<path d="M183.27 575.565C183.27 575.495 183.895 575.634 184.938 575.982C186.097 576.353 187.557 576.793 189.318 577.303C193.003 578.485 198.148 580.153 203.71 582.1C209.342 583.977 214.417 585.715 218.102 587.036C219.817 587.685 221.254 588.218 222.413 588.635C223.455 589.053 223.942 589.261 223.942 589.331C223.942 589.4 223.386 589.261 222.343 588.914C221.138 588.543 219.655 588.102 217.893 587.593C214.208 586.411 209.133 584.742 203.502 582.795C197.87 580.918 192.795 579.11 189.11 577.859C187.441 577.21 186.004 576.677 184.799 576.26C183.826 575.843 183.27 575.634 183.27 575.565Z" fill="#E0E0E0"/>
<path d="M187.998 632.645C187.998 632.576 188.762 632.784 190.083 633.132C191.543 633.619 193.421 634.175 195.715 634.87C200.443 636.4 207.048 638.485 214.278 640.849C221.439 643.213 227.975 645.368 232.703 647.037C234.927 647.802 236.805 648.497 238.265 648.984C239.586 649.471 240.281 649.749 240.281 649.818C240.281 649.818 239.516 649.679 238.195 649.262C236.735 648.845 234.788 648.219 232.564 647.524C227.766 646.064 221.231 643.978 214 641.545C206.769 639.181 200.234 637.025 195.576 635.426C193.281 634.592 191.404 633.966 189.944 633.41C188.693 632.993 187.928 632.645 187.998 632.645Z" fill="#E0E0E0"/>
<path d="M239.169 649.053C239.099 648.984 239.725 648.428 240.768 647.385C241.95 646.272 243.549 644.812 245.357 643.074C249.25 639.389 254.604 634.314 260.374 628.543C266.075 622.773 271.151 617.419 274.836 613.526C276.574 611.648 278.034 610.119 279.146 608.937C280.119 607.824 280.745 607.268 280.745 607.268C280.815 607.338 280.328 607.964 279.355 609.076C278.381 610.258 276.991 611.927 275.183 613.873C271.637 617.906 266.631 623.329 260.861 629.099C255.16 634.87 249.737 639.876 245.774 643.422C243.758 645.229 242.158 646.62 240.976 647.593C239.864 648.567 239.169 649.053 239.169 649.053Z" fill="#E0E0E0"/>
<g opacity="0.2">
<path d="M100.882 175.583L87.3246 171.342C87.3246 171.342 83.7788 182.744 71.8204 179.268C65.7021 177.391 63.7554 172.385 63.4078 168.909C62.9906 164.876 64.7287 160.913 67.7879 158.202C71.2642 155.142 77.3824 153.265 86.0731 157.715L95.5982 127.124L82.1797 122.952L76.6176 140.89C76.6176 140.89 56.2466 139.847 49.7807 160.635C43.5929 180.45 59.9315 190.601 67.5793 192.964C73.4195 194.772 93.6514 199.569 100.882 175.583Z" fill="#F5F5F5"/>
<path d="M87.9503 103.902L101.577 108.143L97.6143 120.866L83.9873 116.625L87.9503 103.902Z" fill="#F5F5F5"/>
</g>
<g opacity="0.2">
<path d="M138.356 141.029L143.779 139.569C143.779 139.569 142.597 135.05 147.256 133.659C149.759 133.033 151.427 134.285 152.262 135.397C153.235 136.649 153.513 138.317 153.026 139.847C152.54 141.655 150.871 143.532 147.047 143.879L150.315 156.116L155.668 154.725L153.791 147.564C153.791 147.564 160.813 143.601 158.588 135.328C156.503 127.332 148.855 127.402 145.865 128.167C143.501 128.792 135.714 131.434 138.356 141.029Z" fill="#EBEBEB"/>
<path d="M157.753 162.304L152.261 163.764L150.94 158.688L156.363 157.228L157.753 162.304Z" fill="#EBEBEB"/>
</g>
<g opacity="0.2">
<path d="M587.214 281.749L592.498 283.695C592.498 283.695 594.097 279.246 598.756 280.845C601.12 281.679 601.815 283.695 601.884 285.086C601.954 286.685 601.189 288.215 599.938 289.188C598.547 290.37 596.114 290.996 592.776 289.049L588.396 301.007L593.68 302.885L596.183 295.862C596.183 295.862 604.179 296.627 607.099 288.562C609.949 280.845 603.622 276.534 600.702 275.491C598.408 274.657 590.482 272.432 587.214 281.749Z" fill="#EBEBEB"/>
<path d="M591.038 310.324L585.754 308.377L587.493 303.441L592.846 305.318L591.038 310.324Z" fill="#EBEBEB"/>
</g>
<g opacity="0.2">
<path d="M26.4199 342.306L37.6136 337.995C37.6136 337.995 33.9983 328.609 43.6623 324.646C48.7377 322.63 52.6311 324.924 54.6474 327.08C57.0808 329.513 57.9846 333.059 57.3589 336.396C56.6636 340.29 53.6045 344.739 45.5395 346.269L55.2731 371.507L66.3277 367.265L60.6266 352.457C60.6266 352.457 74.6013 342.514 67.9963 325.411C61.739 309.072 45.609 310.88 39.3517 313.314C34.5545 315.191 18.6331 322.63 26.4199 342.306Z" fill="#F5F5F5"/>
<path d="M72.5149 382.839L61.3213 387.219L57.2192 376.721L68.4824 372.41L72.5149 382.839Z" fill="#F5F5F5"/>
</g>
<g opacity="0.2">
<path d="M591.524 384.716L583.598 387.775C583.598 387.775 586.171 394.38 579.288 397.161C575.742 398.621 572.961 397.022 571.501 395.493C569.832 393.755 569.207 391.252 569.624 388.888C570.11 386.107 572.266 382.978 577.967 381.866L571.084 363.998L563.297 366.987L567.329 377.486C567.329 377.486 557.387 384.577 562.046 396.675C566.565 408.216 577.967 406.964 582.417 405.226C585.823 403.905 597.086 398.621 591.524 384.716Z" fill="#F5F5F5"/>
<path d="M558.917 355.933L566.843 352.874L569.693 360.313L561.768 363.372L558.917 355.933Z" fill="#F5F5F5"/>
</g>
<path d="M613.912 692.159C613.912 692.368 476.46 692.576 306.956 692.576C137.383 692.576 0 692.368 0 692.159C0 692.02 137.383 691.812 306.956 691.812C476.46 691.812 613.912 692.02 613.912 692.159Z" fill="#263238"/>
<path d="M88.1593 656.075C89.4803 650.93 86.0735 645.855 82.3191 642.101C78.5647 638.416 74.1151 635.079 72.1684 630.212C68.9702 622.216 73.2113 611.926 67.8578 605.322C64.6596 601.428 58.9585 600.107 56.1079 595.936C54.6479 593.78 54.1612 591.069 53.605 588.496C50.6154 575.356 44.0105 563.05 34.7635 553.316C34.1378 564.997 36.7103 576.816 42.1333 587.245C44.3581 591.416 47.0001 595.449 47.7648 600.107C48.9468 607.685 44.7057 615.472 46.5829 622.842C48.6687 631.324 58.1937 637.025 58.6804 645.785C59.028 653.155 52.6316 659.621 53.1183 666.991C53.3269 670.119 54.7869 673.04 56.386 675.751C62.0871 685.276 70.4997 691.812 83.223 691.603L98.7967 692.09L88.1593 656.075Z" fill="#FFBA19"/>
<g opacity="0.3">
<path d="M88.1593 656.075C89.4803 650.93 86.0735 645.855 82.3191 642.101C78.5647 638.416 74.1151 635.079 72.1684 630.212C68.9702 622.216 73.2113 611.926 67.8578 605.322C64.6596 601.428 58.9585 600.107 56.1079 595.936C54.6479 593.78 54.1612 591.069 53.605 588.496C50.6154 575.356 44.0105 563.05 34.7635 553.316C34.1378 564.997 36.7103 576.816 42.1333 587.245C44.3581 591.416 47.0001 595.449 47.7648 600.107C48.9468 607.685 44.7057 615.472 46.5829 622.842C48.6687 631.324 58.1937 637.025 58.6804 645.785C59.028 653.155 52.6316 659.621 53.1183 666.991C53.3269 670.119 54.7869 673.04 56.386 675.751C62.0871 685.276 70.4997 691.812 83.223 691.603L98.7967 692.09L88.1593 656.075Z" fill="black"/>
</g>
<path d="M101.925 692.507C101.925 692.507 103.385 692.854 106.235 692.437C107.626 692.229 109.294 691.881 111.241 691.186C113.188 690.421 115.413 689.448 117.498 687.709C118.541 686.875 119.515 685.763 120.071 684.303C120.627 682.843 120.697 681.313 120.836 679.644C120.905 678.045 120.905 676.307 121.183 674.639C121.461 672.9 122.087 671.232 123.06 669.633C124.938 666.365 127.997 663.306 128.97 658.926C130.013 654.615 129.248 649.957 128.553 645.299C127.788 640.64 127.093 635.565 128.901 630.698C130.569 625.831 133.976 621.382 135.714 615.959C137.383 610.397 136.618 604.418 136.966 598.508C137.105 595.588 137.661 592.598 138.982 589.887C140.233 587.106 141.971 584.533 143.362 581.613C146.143 575.773 146.63 569.099 147.325 562.633C147.696 559.342 148.066 556.028 148.437 552.69C148.854 549.284 149.133 545.946 150.175 542.679C151.149 539.411 152.539 536.282 153.93 533.084C154.625 531.416 155.32 529.817 155.737 528.009C156.016 526.201 156.155 524.463 156.224 522.655C156.433 519.11 156.294 515.494 155.807 511.879C155.39 508.333 154.764 504.718 154.347 501.172C154.347 500.94 154.324 500.732 154.277 500.546L154.208 499.781L153.582 500.129C150.245 501.798 147.394 504.301 145.17 507.221C142.945 510.071 141.346 513.339 140.025 516.676C137.452 523.351 136.479 530.373 135.227 537.047C133.906 543.791 132.238 550.327 128.831 555.889C127.093 558.67 125.007 561.242 123.199 563.884C121.392 566.596 119.862 569.585 119.376 572.783C118.402 579.388 122.087 585.159 121.322 590.999C121.044 593.919 119.862 596.631 118.472 599.064C117.081 601.567 115.413 603.861 113.813 606.156C112.214 608.52 110.754 610.883 109.642 613.386C108.53 615.889 107.904 618.531 107.695 621.173C107.348 626.457 108.112 631.394 107.695 636.121C107.417 640.849 105.748 645.09 103.871 648.914C101.994 652.738 99.9083 656.214 98.1007 659.551C97.2664 661.22 96.432 662.889 95.7368 664.557C95.0415 666.156 94.6939 667.825 94.4158 669.424C93.8596 672.692 93.9291 675.681 94.2768 678.323C94.972 683.677 96.9883 687.501 98.7264 689.656C99.1435 690.212 99.6302 690.629 99.9779 691.047C100.395 691.394 100.743 691.672 101.021 691.881C101.577 692.298 101.925 692.507 101.925 692.507C101.994 692.437 100.604 691.742 98.8654 689.517C97.1968 687.362 95.2501 683.538 94.6939 678.254C94.3463 675.681 94.3463 672.692 94.9025 669.494C95.1806 667.964 95.5282 666.295 96.2235 664.696C96.9187 663.097 97.753 661.498 98.6569 659.83C100.395 656.492 102.481 653.016 104.428 649.192C106.374 645.368 108.043 640.988 108.39 636.191C108.808 631.394 108.112 626.388 108.46 621.243C108.669 618.67 109.294 616.098 110.337 613.664C111.45 611.231 112.91 608.937 114.509 606.642C116.108 604.348 117.776 602.054 119.236 599.481C120.697 596.978 121.878 594.128 122.157 591.069C122.921 584.881 119.306 579.041 120.279 572.922C120.697 569.863 122.226 567.082 124.034 564.44C125.772 561.798 127.858 559.226 129.596 556.375C133.142 550.674 134.88 544 136.131 537.256C137.452 530.512 138.426 523.629 140.998 517.024C142.249 513.756 143.849 510.627 146.004 507.777C148.09 504.996 150.871 502.632 153.999 501.033L153.304 500.616C153.304 500.801 153.327 501.01 153.374 501.241C153.791 504.926 154.417 508.472 154.834 512.018C155.251 515.587 155.39 519.133 155.251 522.655C155.112 524.393 155.042 526.201 154.764 527.8C154.416 529.469 153.652 531.068 153.026 532.667C151.635 535.865 150.245 539.063 149.272 542.401C148.159 545.738 147.881 549.214 147.533 552.551C147.163 555.889 146.792 559.203 146.421 562.494C145.656 569.029 145.17 575.564 142.528 581.266C141.207 584.047 139.468 586.689 138.147 589.539C136.826 592.39 136.201 595.449 136.062 598.508C135.714 604.487 136.479 610.397 134.88 615.681C133.281 620.965 129.874 625.414 128.136 630.42C126.328 635.496 127.093 640.78 127.858 645.438C128.553 650.096 129.318 654.685 128.344 658.787C127.441 662.958 124.451 666.017 122.574 669.355C121.6 670.954 120.905 672.761 120.697 674.569C120.418 676.307 120.418 678.045 120.349 679.644C120.279 681.243 120.14 682.843 119.654 684.164C119.167 685.485 118.263 686.597 117.29 687.431C115.204 689.1 113.049 690.143 111.171 690.908C109.225 691.603 107.556 692.02 106.166 692.229C104.775 692.507 103.732 692.507 103.037 692.507C102.272 692.507 101.925 692.507 101.925 692.507Z" fill="#656565"/>
<path d="M151.079 509.098C151.079 509.098 151.033 509.26 150.94 509.585C150.847 509.955 150.731 510.419 150.592 510.975C150.314 512.157 149.967 514.034 149.341 516.329C148.715 518.692 147.325 521.265 146.143 524.463C144.891 527.661 143.57 531.346 142.458 535.518C141.206 539.689 140.163 544.278 139.051 549.214C137.939 554.151 136.826 559.435 134.115 564.44C132.794 566.943 131.403 569.516 130.221 572.366C129.109 575.147 128.414 578.206 127.996 581.266C127.232 587.453 126.119 593.711 124.659 600.107C121.531 612.83 118.541 624.997 115.829 636.052C113.048 647.106 110.546 657.049 108.46 665.392C106.443 673.735 104.775 680.479 103.593 685.207C103.037 687.524 102.596 689.332 102.272 690.63C102.179 691.186 102.087 691.649 101.994 692.02C101.947 692.345 101.924 692.507 101.924 692.507C101.924 692.507 101.971 692.368 102.063 692.09C102.202 691.719 102.341 691.255 102.481 690.699C102.851 689.401 103.338 687.617 103.941 685.346C105.192 680.618 107 673.874 109.155 665.6C111.31 657.257 113.883 647.315 116.733 636.33C119.445 625.275 122.504 613.108 125.633 600.316C127.093 593.919 128.275 587.523 128.97 581.405C129.387 578.346 130.013 575.425 131.125 572.714C132.238 569.933 133.628 567.43 134.949 564.858C137.661 559.782 138.773 554.359 139.885 549.423C140.928 544.486 141.971 539.898 143.084 535.726C144.196 531.555 145.447 527.87 146.629 524.672C147.811 521.473 149.132 518.831 149.758 516.468C150.245 514.104 150.592 512.227 150.801 510.975C150.894 510.419 150.986 509.955 151.079 509.585C151.125 509.26 151.125 509.098 151.079 509.098Z" fill="#656565"/>
<path d="M104.637 692.576C114.857 686.528 117.777 668.173 113.536 657.118C109.295 646.064 101.856 635.982 100.674 624.233C99.8393 615.194 102.759 605.878 100.674 597.048C97.823 585.09 86.1427 575.843 86.2817 563.537C86.3513 556.654 90.3142 550.188 89.9666 543.305C89.619 534.892 83.1531 528.218 79.1206 520.778C73.0023 509.376 72.5852 495.958 70.4994 483.165C68.3441 470.442 63.4773 456.745 52.2141 450.488C50.5455 461.334 47.695 468.704 48.5988 483.373C48.8769 488.657 54.9952 498.739 55.8295 510.28C56.3857 517.232 56.6638 524.116 57.1505 530.999C57.4981 537.743 57.9848 544.626 60.3487 550.883C62.2259 555.68 65.2155 560.06 66.5364 565.066C69.1089 574.452 65.7717 584.533 67.8574 594.058C69.5956 602.054 75.1576 609.006 76.27 617.141C77.8691 628.613 70.4994 640.502 74.2538 651.417C76.131 656.84 80.5806 661.151 81.9016 666.782C82.875 671.093 81.7626 675.682 82.6664 680.062C84.1264 687.084 97.4754 692.576 104.637 692.09" fill="#FFBA19"/>
<path d="M54.9946 461.195C54.9946 461.241 55.0178 461.45 55.0641 461.82C55.1105 462.284 55.18 462.886 55.2727 463.628C55.4813 465.158 55.7594 467.452 56.3156 470.442C56.8718 473.431 58.4014 476.768 59.6529 480.87C60.9043 484.903 62.2253 489.561 63.3377 494.776C64.5197 499.99 65.493 505.761 66.5359 512.018C67.5788 518.136 68.6217 524.95 71.7503 531.416C73.1408 534.683 74.7399 537.951 75.9914 541.427C77.1733 544.904 77.7295 548.589 78.0772 552.412C78.6334 560.06 79.6763 568.056 81.0668 576.121C84.1954 592.181 87.185 607.407 89.8965 621.382C92.7471 635.218 95.25 647.663 97.4748 658.231C99.6301 668.659 101.368 677.142 102.62 683.051C103.269 685.925 103.755 688.173 104.08 689.795C104.265 690.491 104.404 691.07 104.497 691.533C104.59 691.904 104.636 692.09 104.636 692.09C104.682 692.09 104.659 691.904 104.566 691.533C104.52 691.07 104.427 690.467 104.288 689.726C103.964 688.103 103.547 685.855 103.037 682.982C101.855 677.003 100.186 668.52 98.1006 658.092C96.0148 647.524 93.5119 635.009 90.8004 621.173C88.0889 607.268 85.1688 591.973 82.1097 575.912C80.6496 567.917 79.6067 559.991 79.0505 552.343C78.7029 548.45 78.1467 544.626 76.8952 541.08C75.6438 537.603 73.9751 534.336 72.5846 531.068C69.5255 524.672 68.4131 518.067 67.3702 511.879C66.2578 505.622 65.2844 499.851 64.033 494.637C62.851 489.422 61.53 484.694 60.1395 480.662C58.8881 476.629 57.289 473.292 56.6632 470.372C56.107 467.452 55.7594 465.158 55.4813 463.559C55.3423 462.863 55.2264 462.284 55.1337 461.82C55.0873 461.403 55.041 461.195 54.9946 461.195Z" fill="#263238"/>
<path d="M545.359 170.716H539.867C539.867 170.716 539.867 175.374 535 175.513C532.497 175.513 531.246 173.845 530.689 172.593C530.064 171.133 530.272 169.465 531.107 168.144C532.01 166.614 534.096 165.154 537.781 165.849V153.335H532.358V160.704C532.358 160.704 524.641 162.651 524.641 171.133C524.641 179.198 531.941 181.075 535 181.075C537.433 181.075 545.498 180.519 545.359 170.716Z" fill="#E8505B"/>
<path d="M532.289 145.617H537.851V150.762H532.289V145.617Z" fill="#E8505B"/>
<path d="M575.743 163.347C575.743 163.347 575.743 163.115 575.743 162.651C575.696 162.141 575.673 161.446 575.673 160.566C575.673 160.148 575.673 159.592 575.604 159.036C575.511 158.48 575.418 157.877 575.326 157.228C575.233 156.579 575.14 155.884 575.047 155.143C574.862 154.401 574.654 153.613 574.422 152.779C573.587 149.441 572.127 145.409 569.416 141.307C566.774 137.205 563.02 132.894 557.875 129.418C552.73 126.011 546.264 123.369 539.033 122.674C537.156 122.604 535.348 122.396 533.471 122.604C532.498 122.674 531.594 122.604 530.621 122.744C529.694 122.883 528.743 123.022 527.77 123.161C523.946 123.995 520.122 125.107 516.437 127.054C512.822 128.931 509.415 131.434 506.356 134.424C503.297 137.483 500.724 141.098 498.708 145.061C496.692 149.024 495.232 153.404 494.745 157.993C494.467 159.105 494.467 160.287 494.398 161.469C494.328 162.582 494.328 163.764 494.328 164.946C494.421 167.31 494.722 169.65 495.232 171.968C496.344 176.974 498.361 181.701 501.072 185.873V185.456C499.125 190.276 497.225 195.004 495.371 199.639L495.023 200.473L495.927 200.195C501.118 198.805 506.171 197.437 511.084 196.093L510.667 195.954C515.951 199.987 521.999 202.49 528.048 203.532C531.038 204.089 534.027 204.297 536.878 204.089C538.338 204.019 539.798 203.95 541.188 203.671C541.884 203.579 542.556 203.486 543.205 203.393C543.9 203.254 544.595 203.046 545.221 202.907C555.928 200.126 563.784 193.59 568.304 187.055C570.598 183.787 572.266 180.589 573.309 177.669C573.541 176.927 573.773 176.209 574.005 175.514C574.19 174.818 574.375 174.146 574.561 173.497C574.7 172.848 574.839 172.246 574.978 171.69C575.117 171.064 575.187 170.508 575.256 169.951C575.395 168.909 575.604 167.935 575.604 167.101C575.65 166.313 575.673 165.618 575.673 165.015C575.72 164.505 575.743 164.088 575.743 163.764C575.743 163.486 575.743 163.347 575.743 163.347C575.696 163.347 575.673 163.486 575.673 163.764C575.627 164.088 575.581 164.505 575.534 165.015C575.488 165.618 575.441 166.313 575.395 167.101C575.326 167.935 575.117 168.839 574.978 169.951C574.213 174.123 572.545 180.38 567.886 186.777C563.367 193.104 555.58 199.569 545.082 202.211C544.387 202.35 543.761 202.559 543.066 202.629C542.417 202.768 541.745 202.883 541.049 202.976C539.659 203.254 538.268 203.254 536.878 203.324C534.027 203.532 531.107 203.254 528.187 202.768C522.277 201.725 516.368 199.222 511.223 195.328L511.014 195.189H510.806C505.939 196.533 500.887 197.924 495.649 199.361L496.205 199.987C498.059 195.352 499.96 190.624 501.906 185.803L501.976 185.595L501.837 185.386C499.195 181.284 497.179 176.695 496.136 171.759C495.672 169.488 495.394 167.194 495.302 164.876C495.232 163.764 495.232 162.651 495.371 161.469C495.371 160.357 495.371 159.245 495.649 158.132C496.136 153.613 497.526 149.372 499.473 145.478C501.489 141.585 503.992 138.039 506.912 135.05C509.971 132.129 513.309 129.696 516.854 127.819C520.4 125.872 524.224 124.76 527.909 123.995C528.836 123.856 529.763 123.717 530.69 123.578C531.663 123.439 532.567 123.439 533.471 123.369C535.348 123.161 537.156 123.369 538.964 123.439C546.055 124.065 552.452 126.637 557.527 129.974C562.602 133.311 566.357 137.553 568.999 141.585C571.71 145.617 573.17 149.58 574.074 152.848C574.306 153.682 574.514 154.47 574.7 155.212C574.839 155.954 574.955 156.649 575.047 157.298C575.187 157.947 575.302 158.549 575.395 159.105C575.395 159.662 575.465 160.148 575.465 160.566C575.557 161.446 575.604 162.141 575.604 162.651C575.65 163.115 575.696 163.347 575.743 163.347Z" fill="#F4FBFF"/>
<path d="M161.022 327.358H241.324C241.324 327.358 241.324 259.918 311.406 258.736C347.837 258.041 366.679 281.888 374.326 300.173C383.226 321.379 380.584 345.574 368.625 365.249C354.998 387.706 325.658 410.233 271.567 400.708L271.011 579.597H350.479V473.57C350.479 473.57 461.79 444.787 461.79 322.004C461.79 204.575 366.887 179.268 315.786 177.599C287.419 176.696 277.129 175.444 242.019 180.45C197.244 186.846 160.118 238.782 161.022 327.358Z" fill="#E8505B"/>
<path d="M351.383 692.159H270.803V616.932H351.383V692.159Z" fill="#E8505B"/>
<path opacity="0.1" d="M351.383 692.159H270.803V616.932H351.383V692.159Z" fill="black"/>
<path opacity="0.1" d="M161.022 327.358H241.324C241.324 327.358 241.324 259.918 311.406 258.736C347.837 258.041 366.679 281.888 374.326 300.173C383.226 321.379 380.584 345.574 368.625 365.249C354.998 387.706 325.658 410.233 271.567 400.708L271.011 579.597H350.479V473.57C350.479 473.57 461.79 444.787 461.79 322.004C461.79 204.575 366.887 179.268 315.786 177.599C287.419 176.696 277.129 175.444 242.019 180.45C197.244 186.846 160.118 238.782 161.022 327.358Z" fill="black"/>
<path d="M127.789 327.358H208.091C208.091 327.358 208.091 259.918 278.173 258.736C314.535 258.041 333.446 281.888 341.094 300.173C349.993 321.379 347.281 345.574 335.393 365.249C321.765 387.706 291.869 408.077 237.778 398.552V579.597H317.177V473.57C317.177 473.57 428.557 444.787 428.557 322.004C428.557 204.575 323.226 177.321 278.173 177.321C243.688 177.321 126.259 185.664 127.789 327.358Z" fill="#E8505B"/>
<path opacity="0.3" d="M127.789 327.358H208.091C208.091 327.358 208.091 259.918 278.173 258.736C314.535 258.041 333.446 281.888 341.094 300.173C349.993 321.379 347.281 345.574 335.393 365.249C321.765 387.706 291.869 408.077 237.778 398.552V579.597H317.177V473.57C317.177 473.57 428.557 444.787 428.557 322.004C428.557 204.575 323.226 177.321 278.173 177.321C243.688 177.321 126.259 185.664 127.789 327.358Z" fill="black"/>
<path d="M318.151 692.159H237.57V616.932H318.151V692.159Z" fill="#E8505B"/>
<path opacity="0.3" d="M318.151 692.159H237.57V616.932H318.151V692.159Z" fill="black"/>
<path d="M287.211 259.083C287.211 259.083 286.817 259.06 286.029 259.014C285.264 258.944 284.082 258.736 282.622 258.736C279.633 258.527 275.322 258.597 270.038 259.222C264.754 259.918 258.497 261.239 251.822 263.533C248.555 264.715 245.078 266.106 241.741 267.913C238.265 269.582 234.928 271.737 231.799 274.31C228.67 276.812 226.028 279.802 223.664 282.861C221.37 285.92 219.354 288.979 217.616 292.039C214.209 298.226 211.845 304.136 210.455 309.281C208.925 314.426 208.299 318.667 208.021 321.657C207.813 323.117 207.813 324.299 207.743 325.063C207.697 325.851 207.674 326.245 207.674 326.245C207.627 326.245 207.604 325.851 207.604 325.063C207.604 324.299 207.604 323.117 207.743 321.657C207.952 318.667 208.508 314.287 209.968 309.142C211.358 303.997 213.653 297.948 217.06 291.761C218.798 288.632 220.814 285.503 223.108 282.444C225.472 279.315 228.114 276.326 231.312 273.753C234.51 271.111 237.917 268.956 241.394 267.218C244.8 265.41 248.277 264.089 251.614 262.907C258.358 260.613 264.615 259.362 269.969 258.736C275.253 258.18 279.633 258.18 282.622 258.458C284.152 258.527 285.264 258.736 286.029 258.875C286.817 258.968 287.211 259.037 287.211 259.083Z" fill="#263238"/>
<path d="M408.255 244.761C408.208 244.761 408.116 244.645 407.977 244.414C407.791 244.182 407.56 243.857 407.281 243.44C406.633 242.56 405.752 241.308 404.64 239.686C404.014 238.921 403.458 237.948 402.693 236.974C401.905 236.047 401.07 235.051 400.19 233.985C399.309 232.872 398.359 231.69 397.339 230.439C396.296 229.257 395.045 228.075 393.863 226.754C392.612 225.503 391.36 224.112 389.97 222.791C388.533 221.493 387.026 220.126 385.45 218.689C384.686 217.994 383.921 217.299 383.087 216.603C382.206 215.908 381.348 215.213 380.514 214.518C378.706 213.197 376.968 211.737 375.091 210.346C367.443 204.853 358.544 199.5 348.741 194.772C346.284 193.66 343.851 192.571 341.441 191.505C338.938 190.531 336.504 189.581 334.14 188.654C331.777 187.681 329.343 186.985 326.979 186.221C324.685 185.456 322.391 184.621 320.096 184.065C317.825 183.509 315.6 182.93 313.422 182.327C311.266 181.771 309.181 181.423 307.095 181.006C305.079 180.589 303.062 180.102 301.185 179.894C299.239 179.616 297.384 179.338 295.623 179.059C292.147 178.434 288.879 178.364 286.098 178.086C284.638 177.947 283.387 177.808 282.135 177.738C280.93 177.692 279.841 177.669 278.867 177.669C276.874 177.576 275.345 177.53 274.279 177.53C273.769 177.484 273.352 177.46 273.027 177.46C272.796 177.414 272.68 177.391 272.68 177.391C272.68 177.391 272.796 177.391 273.027 177.391C273.352 177.391 273.769 177.368 274.279 177.321C275.345 177.368 276.874 177.391 278.867 177.391C279.841 177.391 280.93 177.391 282.135 177.391C283.387 177.46 284.708 177.53 286.098 177.669C288.949 177.877 292.147 178.017 295.693 178.573C297.454 178.805 299.308 179.059 301.255 179.338C303.201 179.546 305.148 180.033 307.234 180.38C309.25 180.867 311.406 181.145 313.63 181.701C315.762 182.304 317.987 182.883 320.305 183.44C322.599 183.996 324.894 184.83 327.257 185.525C329.552 186.29 331.985 186.985 334.349 188.028C336.759 188.955 339.216 189.882 341.719 190.809C344.129 191.922 346.586 193.034 349.088 194.147C358.892 198.874 367.791 204.228 375.439 209.79C377.385 211.18 379.124 212.71 380.862 214.031C381.742 214.726 382.623 215.421 383.504 216.117C384.338 216.812 385.103 217.577 385.868 218.272C387.397 219.662 388.88 221.03 390.317 222.374C391.708 223.695 392.959 225.155 394.211 226.406C395.393 227.727 396.644 228.909 397.687 230.161C398.66 231.412 399.61 232.594 400.537 233.707C401.418 234.819 402.229 235.839 402.971 236.766C403.666 237.739 404.292 238.713 404.848 239.547C405.914 241.169 406.748 242.444 407.351 243.371C407.629 243.788 407.861 244.136 408.046 244.414C408.185 244.645 408.255 244.761 408.255 244.761Z" fill="#263238"/>
<path d="M399.843 417.185C399.889 417.185 399.704 417.463 399.287 418.019C398.777 418.575 398.151 419.34 397.409 420.314C396.575 421.287 395.602 422.538 394.35 423.859C393.168 425.18 391.778 426.779 390.179 428.448C388.58 430.117 386.842 431.924 384.895 433.732C382.948 435.679 380.793 437.556 378.568 439.572C373.91 443.535 368.695 447.707 362.925 451.739C357.154 455.702 351.383 459.109 346.03 461.959C343.388 463.35 340.816 464.74 338.382 465.853C335.949 467.035 333.585 468.008 331.499 468.912C329.413 469.816 327.397 470.511 325.728 471.206C324.06 471.832 322.53 472.388 321.348 472.736C320.143 473.107 319.193 473.408 318.498 473.64C317.849 473.872 317.524 473.964 317.524 473.918C317.524 473.918 317.826 473.779 318.428 473.501C319.123 473.269 320.051 472.921 321.209 472.458C322.461 472.041 323.921 471.484 325.589 470.789C327.258 470.094 329.205 469.399 331.29 468.425C333.376 467.522 335.671 466.479 338.104 465.297C340.537 464.184 343.04 462.794 345.752 461.403C351.036 458.483 356.737 455.076 362.508 451.113C368.278 447.15 373.493 442.979 378.081 439.085C380.376 437.069 382.531 435.192 384.478 433.315C386.424 431.507 388.232 429.7 389.831 428.1C391.43 426.501 392.821 424.902 394.072 423.581C395.324 422.26 396.367 421.078 397.201 420.105C397.989 419.178 398.638 418.436 399.148 417.88C399.611 417.37 399.843 417.139 399.843 417.185Z" fill="#263238"/>
<path d="M315.787 573.34C315.578 573.34 315.439 550.953 315.439 523.42C315.439 495.888 315.578 473.57 315.787 473.57C315.995 473.57 316.134 495.888 316.134 523.42C316.134 550.953 315.995 573.34 315.787 573.34Z" fill="#263238"/>
<path d="M318.845 687.084C318.637 687.084 318.498 671.441 318.498 652.113C318.498 632.715 318.637 617.072 318.845 617.072C319.054 617.072 319.193 632.715 319.193 652.113C319.193 671.441 319.054 687.084 318.845 687.084Z" fill="#263238"/>
<path d="M397.896 316.651C396.505 319.432 401.72 321.726 404.709 322.63C407.699 323.534 410.897 323.464 414.026 323.256C418.128 323.047 422.438 322.63 426.054 320.614C429.252 318.737 431.616 315.747 433.284 312.479C434.953 309.142 435.996 305.596 436.969 302.051C436.969 302.051 404.153 304.206 397.896 316.651Z" fill="#FFBA19"/>
<g opacity="0.4">
<path d="M397.896 316.651C396.505 319.432 401.72 321.726 404.709 322.63C407.699 323.534 410.897 323.464 414.026 323.256C418.128 323.047 422.438 322.63 426.054 320.614C429.252 318.737 431.616 315.747 433.284 312.479C434.953 309.142 435.996 305.596 436.969 302.051C436.969 302.051 404.153 304.206 397.896 316.651Z" fill="black"/>
</g>
<path d="M490.712 307.751C496.066 311.575 502.671 313.661 509.276 313.592C512.404 313.522 515.742 312.966 518.106 310.811C519.148 309.837 519.983 308.586 521.026 307.612C521.79 306.987 522.694 306.5 523.389 305.805C524.085 305.109 524.641 304.136 524.432 303.163C524.224 302.189 523.39 300.59 522.486 300.104C518.731 297.948 514.212 298.018 509.902 298.157C505.521 298.226 501.28 299.269 497.178 300.66C493.772 301.772 490.295 303.371 488.557 306.5" fill="#FFBA19"/>
<g opacity="0.4">
<path d="M524.432 303.162C524.224 302.189 522.833 300.868 521.929 300.381C518.175 298.226 514.212 298.017 509.902 298.157C505.521 298.226 501.28 299.269 497.178 300.659C493.772 301.772 490.295 303.371 488.557 306.5L490.712 307.751C496.066 311.575 502.671 313.661 509.276 313.591C512.404 313.522 515.742 312.966 518.106 310.81C519.148 309.837 519.983 308.585 521.026 307.612C521.79 306.986 522.694 306.5 523.389 305.804C524.085 305.109 524.641 304.136 524.432 303.162Z" fill="black"/>
</g>
<path d="M426.54 357.671L495.857 358.575C496.483 358.575 496.9 358.019 496.761 357.393L488.626 332.085C488.626 332.085 489.808 319.362 491.477 304.136C493.98 280.984 497.317 251.853 497.387 251.992C492.659 238.643 464.64 236.418 464.64 236.418L432.797 238.295L431.685 236.418L422.508 240.729C420.468 241.656 418.545 242.722 416.737 243.927C410.688 248.029 396.088 257.276 393.376 267.635C387.258 291.622 397.687 318.389 397.687 318.389L404.361 313.174C406.099 311.853 407.768 310.741 409.645 309.629L423.133 345.643C423.133 345.643 420.283 347.312 420.213 350.232C420.074 353.152 421.604 356.698 426.54 357.671Z" fill="#FFBA19"/>
<g opacity="0.3">
<path d="M456.298 315.26C458.453 303.441 457.34 291.274 456.159 279.316C452.335 289.119 452.474 300.104 448.372 309.837C447.955 310.88 447.468 311.923 447.259 313.036C447.12 314.148 447.398 315.399 448.233 316.164C449.345 317.207 450.944 316.651 452.474 316.442C454.003 316.234 454.838 315.747 456.298 315.26Z" fill="black"/>
</g>
<g opacity="0.4">
<path d="M430.781 342.584C436.343 344.531 442.253 340.915 448.093 340.29C451.986 339.873 455.88 340.776 459.773 341.402C467.56 342.654 475.556 342.862 483.412 341.958C484.594 341.819 485.845 341.68 486.888 341.054C487.931 340.498 488.765 338.83 488.696 337.648C475.625 336.257 462.554 335.492 449.414 334.102C446.146 333.824 442.739 333.476 439.611 334.45C435.648 335.701 432.589 338.76 429.808 341.819" fill="black"/>
</g>
<path d="M522.416 298.574C516.715 285.851 496.761 250.601 496.761 250.601L481.326 269.93L484.942 307.96C484.942 307.96 493.076 298.852 515.95 298.713C521.234 298.644 524.432 303.163 524.432 303.163L522.416 298.574Z" fill="#FFBA19"/>
<path d="M429.669 291.83C429.46 291.9 428.278 288.215 427.027 283.557C425.775 278.898 424.941 275.074 425.15 275.074C425.289 275.005 426.471 278.69 427.722 283.348C428.974 288.006 429.808 291.83 429.669 291.83Z" fill="#263238"/>
<path d="M480.144 267.357C480.214 267.357 480.701 267.774 481.604 268.609C482.439 269.443 483.69 270.694 485.011 272.363C487.723 275.7 491.06 280.915 492.45 287.45C493.076 290.718 493.215 293.916 492.868 296.767C492.52 299.617 491.964 302.12 491.616 304.275C491.268 306.361 490.99 308.099 490.921 309.281C490.782 310.463 490.782 311.158 490.712 311.158C490.643 311.158 490.643 310.463 490.643 309.281C490.643 308.099 490.782 306.292 491.129 304.206C491.408 302.051 491.894 299.548 492.172 296.697C492.52 293.916 492.381 290.787 491.686 287.659C490.365 281.262 487.166 276.048 484.663 272.711C482.091 269.304 480.075 267.496 480.144 267.357Z" fill="#263238"/>
<path d="M466.03 354.612C466.03 354.681 465.474 354.82 464.501 355.099C464.014 355.238 463.388 355.377 462.693 355.446C461.998 355.516 461.164 355.655 460.26 355.724C458.452 355.933 456.297 355.933 453.933 355.724C451.5 355.446 448.927 354.959 446.285 354.195C443.574 353.291 441.21 352.248 439.054 351.066C436.969 349.884 435.231 348.702 433.84 347.52C433.075 346.964 432.519 346.408 431.963 345.921C431.476 345.434 430.989 344.948 430.711 344.6C430.016 343.835 429.668 343.418 429.668 343.349C429.808 343.279 431.268 344.948 434.118 347.103C435.509 348.215 437.316 349.397 439.402 350.51C441.488 351.622 443.852 352.665 446.494 353.499C449.066 354.264 451.639 354.751 454.002 355.029C456.297 355.238 458.452 355.307 460.26 355.238C463.806 355.029 465.961 354.473 466.03 354.612Z" fill="#263238"/>
<path d="M487.445 346.686C487.514 346.686 487.792 347.451 487.931 348.772C488.14 350.023 488.14 351.9 487.584 353.778C487.028 355.794 485.846 357.323 484.872 358.088C483.829 358.992 483.065 359.201 482.995 359.131C482.995 359.061 483.621 358.644 484.525 357.74C485.359 356.837 486.402 355.446 486.889 353.638C487.931 349.954 487.167 346.755 487.445 346.686Z" fill="#263238"/>
<path d="M483.621 351.622C483.829 351.553 484.177 353.569 483.273 355.863C482.439 358.158 480.77 359.409 480.701 359.27C480.492 359.131 481.813 357.741 482.647 355.655C483.482 353.5 483.412 351.622 483.621 351.622Z" fill="#263238"/>
<path d="M471.245 305.874C471.384 306.013 470.133 307.473 468.742 309.42C467.421 311.367 466.518 313.105 466.309 313.036C466.17 312.966 466.796 311.019 468.186 309.003C469.577 306.987 471.106 305.735 471.245 305.874Z" fill="#263238"/>
<path d="M423.69 272.154C423.62 272.293 422.508 271.39 420.561 270.138C418.684 268.887 415.972 267.357 412.705 266.175C409.506 264.924 406.447 264.298 404.153 264.02C401.928 263.742 400.538 263.672 400.538 263.533C400.538 263.464 401.928 263.325 404.222 263.533C406.517 263.672 409.645 264.228 412.983 265.48C416.25 266.731 419.031 268.33 420.909 269.721C422.716 271.111 423.69 272.154 423.69 272.154Z" fill="#263238"/>
<path d="M496.761 250.115C496.9 250.323 493.146 252.618 489.739 256.72C486.333 260.752 484.733 264.854 484.525 264.715C484.386 264.715 484.733 263.672 485.429 262.073C486.193 260.474 487.445 258.319 489.183 256.233C490.991 254.147 492.868 252.548 494.328 251.575C495.788 250.532 496.761 250.045 496.761 250.115Z" fill="#263238"/>
<path d="M468.186 238.643C468.186 238.643 468.279 238.875 468.464 239.338C468.696 239.755 468.928 240.404 469.159 241.285C469.576 242.954 469.785 245.665 469.09 248.794C468.395 251.922 466.656 255.538 463.458 258.388C460.26 261.239 455.532 262.977 450.666 262.908C445.729 262.908 441.071 261.239 437.734 258.597C434.327 256.024 432.033 252.826 430.642 249.976C429.182 247.125 428.556 244.622 428.278 242.815C428.093 241.934 428 241.262 428 240.798C427.954 240.335 427.954 240.103 428 240.103C428.07 240.103 428.139 241.076 428.556 242.815C428.904 244.483 429.599 246.986 431.059 249.767C432.519 252.548 434.814 255.607 438.151 258.11C441.419 260.544 445.868 262.143 450.666 262.212C455.393 262.212 459.912 260.613 462.972 257.902C466.1 255.19 467.838 251.644 468.603 248.655C469.368 245.596 469.229 243.023 468.881 241.355C468.534 239.616 468.116 238.713 468.186 238.643Z" fill="#263238"/>
<g opacity="0.3">
<path d="M473.053 308.308C472.984 307.612 472.914 306.778 472.288 306.431C471.941 306.222 471.454 306.291 471.037 306.5C470.689 306.709 470.342 306.987 470.063 307.334C468.395 309.142 467.213 310.95 466.309 313.244L473.123 312.688C473.123 311.228 473.053 309.768 473.053 308.308Z" fill="black"/>
</g>
<g opacity="0.3">
<path d="M495.649 293.985C495.162 290.092 493.146 286.546 490.712 283.417C493.632 293.012 492.659 298.505 490.991 305.04L491.408 304.136C493.285 300.312 496.205 297.879 495.649 293.985Z" fill="black"/>
</g>
<path d="M482.022 617.21L477.92 679.575L450.805 679.297L446.494 614.429L482.022 617.21Z" fill="#FFBE9D"/>
<path d="M478.684 671.371V673.179C478.684 673.179 509.206 685.485 509.554 691.255L448.858 690.908L449.762 670.745C458.8 674.986 468.256 675.473 478.684 671.371Z" fill="#E8505B"/>
<path d="M455.88 677.211C454.698 677.559 453.933 678.88 454.142 680.062C454.42 681.244 455.741 682.078 456.923 681.8C458.105 681.522 459.147 679.923 458.73 678.81C458.383 677.628 456.714 676.725 455.671 677.281" fill="white"/>
<path d="M448.857 690.908L449.066 686.111L507.19 688.196C507.19 688.196 509.901 689.378 509.553 691.256L448.857 690.908Z" fill="#263238"/>
<path d="M478.893 673.387C478.893 673.665 477.363 673.805 475.903 674.708C474.443 675.612 473.678 676.933 473.4 676.794C473.122 676.725 473.609 674.986 475.347 673.874C477.155 672.692 478.962 673.109 478.893 673.387Z" fill="#263238"/>
<path d="M485.22 676.029C485.289 676.307 484.038 676.794 482.995 678.046C481.952 679.297 481.674 680.618 481.396 680.618C481.118 680.688 480.909 678.949 482.23 677.42C483.482 675.89 485.22 675.751 485.22 676.029Z" fill="#263238"/>
<path d="M488.835 683.677C488.557 683.747 488.14 682.217 488.904 680.618C489.669 679.019 491.06 678.393 491.199 678.602C491.338 678.88 490.434 679.714 489.808 681.105C489.182 682.426 489.113 683.677 488.835 683.677Z" fill="#263238"/>
<path d="M477.085 161.122C478.684 157.228 476.738 152.501 473.4 149.998C469.994 147.564 465.475 147.008 461.303 147.634C457.201 148.329 453.308 150.067 449.484 151.736C446.007 148.26 440.515 146.939 435.787 148.468C431.129 149.998 427.444 154.308 426.679 159.175C423.69 158.41 420.352 159.453 418.267 161.748C416.181 164.042 415.555 167.518 416.598 170.369L435.37 176.974L455.95 213.058C461.929 218.202 471.732 218.063 477.572 212.779C483.482 207.495 484.594 197.762 480.075 191.226C481.257 190.253 482.23 189.002 482.995 187.681C486.263 185.664 488.766 182.536 489.6 178.781C491.408 170.855 485.15 162.095 477.085 161.122Z" fill="#263238"/>
<path d="M464.64 236.418C463.458 230.509 462.694 226.476 462.694 226.546C462.694 226.546 473.748 222.235 472.984 206.731C472.636 199.083 469.716 186.916 466.935 177.043C464.501 168.214 456.228 158.41 447.468 161.261L420.978 174.193C418.336 175.027 417.919 177.53 418.545 180.241V181.562L428.835 224.251L433.215 243.301C435.162 251.366 442.948 256.65 451.152 255.468C460.33 254.147 466.448 245.457 464.64 236.418Z" fill="#FFBE9D"/>
<path d="M466.795 187.333C467.073 188.376 466.378 189.419 465.335 189.697C464.292 189.975 463.249 189.349 462.971 188.376C462.763 187.403 463.388 186.36 464.431 186.082C465.474 185.734 466.517 186.36 466.795 187.333Z" fill="#263238"/>
<path d="M465.683 184.413C465.474 184.691 463.805 183.926 461.72 184.343C459.634 184.761 458.382 186.151 458.104 185.943C457.965 185.873 458.104 185.386 458.661 184.761C459.217 184.135 460.19 183.44 461.511 183.161C462.763 182.883 463.945 183.161 464.709 183.509C465.405 183.857 465.752 184.274 465.683 184.413Z" fill="#263238"/>
<path d="M446.703 191.991C446.911 192.965 446.286 194.008 445.243 194.286C444.2 194.564 443.157 194.008 442.879 192.965C442.601 191.991 443.296 190.948 444.339 190.67C445.382 190.392 446.425 190.948 446.703 191.991Z" fill="#263238"/>
<path d="M445.66 189.28C445.452 189.627 443.783 188.863 441.697 189.28C439.681 189.697 438.36 191.087 438.082 190.879C437.943 190.74 438.082 190.253 438.638 189.627C439.194 189.002 440.237 188.306 441.489 188.098C442.81 187.82 443.992 188.028 444.687 188.376C445.452 188.793 445.73 189.141 445.66 189.28Z" fill="#263238"/>
<path d="M456.159 202.351C456.089 202.281 457.341 201.794 459.357 201.099C459.844 200.891 460.33 200.682 460.4 200.334C460.4 199.917 460.052 199.361 459.704 198.805C458.917 197.646 458.105 196.418 457.271 195.12C453.934 189.836 451.361 185.525 451.57 185.386C451.779 185.247 454.699 189.419 458.036 194.633C458.87 195.931 459.658 197.183 460.4 198.388C460.747 198.944 461.234 199.57 461.095 200.404C461.025 200.821 460.747 201.169 460.4 201.377C460.052 201.516 459.774 201.586 459.565 201.655C457.48 202.212 456.159 202.49 456.159 202.351Z" fill="#263238"/>
<path d="M462.694 226.546C462.694 226.546 452.751 229.327 441.488 225.433C441.488 225.433 448.788 234.889 463.458 230.37L462.694 226.546Z" fill="#EB996E"/>
<path d="M446.077 186.36C445.938 186.986 443.783 186.916 441.349 187.542C438.916 188.098 437.039 189.071 436.622 188.585C436.483 188.376 436.761 187.75 437.456 187.125C438.221 186.499 439.403 185.804 440.863 185.456C442.323 185.108 443.713 185.178 444.617 185.456C445.59 185.665 446.077 186.082 446.077 186.36Z" fill="#263238"/>
<path d="M464.849 177.808C464.501 178.364 462.763 178.225 460.747 178.643C458.661 178.99 457.062 179.755 456.575 179.338C456.297 179.129 456.506 178.643 457.132 178.017C457.827 177.391 458.939 176.765 460.33 176.557C461.72 176.279 463.041 176.487 463.876 176.765C464.64 177.113 464.988 177.53 464.849 177.808Z" fill="#263238"/>
<path d="M427.514 164.251C428.14 167.24 430.156 169.882 432.867 171.342C435.509 172.802 438.916 173.011 441.697 171.829C443.922 170.925 446.216 169.257 448.441 170.091C450.805 170.925 451.5 174.054 453.725 175.236C456.854 177.044 460.608 173.984 464.154 174.262C466.865 174.541 469.021 176.626 471.176 178.364C473.331 180.103 476.321 181.563 478.754 180.242C478.129 177.947 477.433 175.653 476.251 173.567C475.139 171.481 473.401 169.604 471.176 168.77C469.994 168.283 468.673 168.075 467.491 167.518C464.988 166.197 463.876 163.277 461.999 161.122C459.635 158.341 455.88 156.881 452.265 157.229C449.275 157.576 446.425 159.036 443.366 158.967C441.141 158.828 438.986 157.854 436.761 157.854C432.381 157.924 429.113 161.748 426.749 165.433" fill="#263238"/>
<path d="M442.184 167.379C440.167 167.24 436.065 166.823 434.744 165.432C431.824 162.304 427.444 160.705 423.551 161.748C419.657 162.79 416.529 166.684 416.598 170.994C411.801 172.037 407.768 176 406.447 181.006C405.057 185.943 406.447 191.783 409.924 195.607C410.828 196.58 412.218 198.874 412.218 198.874C412.218 198.874 410.41 201.099 409.715 202.629C406.517 209.651 415.138 212.362 415.138 212.362C415.208 217.09 419.518 217.09 422.369 217.09C425.011 217.021 426.679 224.529 428.835 224.251L426.679 201.169C426.911 201.308 427.236 201.377 427.653 201.377C432.937 201.447 431.546 191.505 429.878 188.932C431.338 186.916 432.867 184.9 433.841 182.536C434.744 180.241 434.814 174.332 433.98 171.898C435.857 171.62 443.018 167.449 442.184 167.379Z" fill="#263238"/>
<path d="M427.444 202.42C426.61 199.222 422.717 197.831 420.283 199.987C418.962 201.238 418.128 203.185 418.962 206.592C421.257 215.491 429.739 211.389 429.669 211.18C429.669 210.972 428.418 206.105 427.444 202.42Z" fill="#FFBE9D"/>
<path d="M426.123 208.469C426.053 208.469 425.984 208.608 425.775 208.816C425.497 208.955 425.08 209.164 424.593 209.094C423.55 209.025 422.369 207.704 421.951 206.105C421.743 205.271 421.673 204.436 421.812 203.741C421.951 203.046 422.229 202.49 422.716 202.281C423.133 202.003 423.55 202.211 423.69 202.49C423.898 202.698 423.898 202.837 423.968 202.907C423.968 202.907 424.107 202.698 423.898 202.35C423.829 202.142 423.689 202.003 423.411 201.864C423.203 201.725 422.855 201.725 422.508 201.864C421.812 202.072 421.395 202.837 421.256 203.602C421.048 204.436 421.048 205.34 421.326 206.244C421.812 208.052 423.203 209.512 424.593 209.581C425.219 209.581 425.706 209.234 425.914 208.955C426.123 208.677 426.123 208.469 426.123 208.469Z" fill="#EB996E"/>
<path d="M475.417 189.905C475.417 189.836 476.251 189.28 477.433 187.889C478.545 186.499 479.866 184.135 480.214 180.937C480.353 179.338 480.283 177.53 479.727 175.792C479.101 173.984 478.128 172.246 476.529 170.855C473.4 168.005 468.325 166.753 463.736 168.353C463.319 168.492 462.902 168.7 462.554 168.839C462.137 169.048 461.79 169.256 461.442 169.465L460.886 169.813V169.187C460.886 168.074 460.469 167.032 459.773 166.267C459.078 165.432 458.174 164.807 457.201 164.39C455.254 163.555 453.168 163.555 451.222 163.972C447.398 164.876 444.13 166.614 441.071 166.962C438.012 167.379 435.509 166.614 434.118 165.571C433.423 165.085 433.006 164.529 432.728 164.181C432.542 163.81 432.45 163.602 432.45 163.555C432.519 163.486 432.867 164.459 434.257 165.363C435.648 166.267 438.081 166.892 441.001 166.475C442.461 166.267 443.991 165.711 445.66 165.085C447.328 164.529 449.066 163.764 451.083 163.347C452.056 163.138 453.099 162.999 454.211 162.999C455.324 163.069 456.436 163.347 457.479 163.764C458.522 164.25 459.495 164.876 460.33 165.78C461.094 166.684 461.581 167.935 461.581 169.187L461.025 168.839C461.442 168.631 461.79 168.422 462.207 168.213C462.624 168.005 463.041 167.796 463.528 167.657C468.395 165.919 473.748 167.379 476.946 170.369C478.615 171.829 479.727 173.706 480.283 175.583C480.84 177.46 480.909 179.338 480.701 181.006C480.283 184.343 478.823 186.707 477.641 188.098C477.016 188.724 476.459 189.21 476.042 189.488C475.672 189.766 475.463 189.905 475.417 189.905Z" fill="#455A64"/>
<path d="M473.609 158.48C473.609 158.549 472.705 157.785 470.759 157.506C469.785 157.367 468.603 157.367 467.352 157.785C466.031 158.202 464.71 159.036 463.806 160.357L463.459 160.844L463.25 160.287C462.138 157.298 458.87 154.447 454.768 153.961C451.709 153.613 448.928 155.003 446.633 156.324C444.269 157.715 442.184 159.036 440.167 159.662C438.151 160.357 436.413 160.496 435.231 160.287C434.675 160.148 434.258 160.009 433.98 159.94C433.702 159.801 433.562 159.708 433.562 159.662C433.562 159.592 434.188 159.87 435.301 160.009C436.413 160.079 438.082 159.94 439.959 159.245C441.906 158.549 443.922 157.159 446.286 155.768C447.468 155.073 448.719 154.378 450.179 153.891C451.639 153.335 453.238 153.126 454.837 153.265C459.218 153.752 462.694 156.811 463.806 160.079L463.32 160.009C464.362 158.549 465.822 157.715 467.143 157.298C468.534 156.881 469.785 156.95 470.828 157.089C471.802 157.298 472.566 157.645 472.984 157.924C473.47 158.271 473.679 158.48 473.609 158.48Z" fill="#455A64"/>
<path d="M455.324 206.522C454.698 205.896 453.725 205.688 452.89 205.757C452.056 205.896 451.083 206.592 450.526 207.495C450.526 207.495 450.526 207.519 450.526 207.565C450.48 207.611 450.457 207.634 450.457 207.634C450.248 207.982 450.179 208.33 450.179 208.677C450.318 209.512 450.943 210.207 451.639 210.555C452.821 211.18 454.42 210.972 455.324 210.068C456.227 209.095 456.297 207.426 455.324 206.522Z" fill="#E8505B"/>
<path d="M456.019 210.833C455.88 210.833 455.81 210.416 455.393 209.859C455.046 209.234 454.42 208.538 453.446 208.121C452.543 207.704 451.569 207.635 450.874 207.774C450.179 207.843 449.762 208.052 449.762 207.982C449.692 207.913 450.04 207.565 450.805 207.287C451.5 207.009 452.682 206.939 453.794 207.426C454.907 207.913 455.602 208.886 455.88 209.581C456.158 210.346 456.088 210.833 456.019 210.833Z" fill="#263238"/>
<path d="M427.652 212.571C427.722 212.501 428.07 213.266 427.513 214.309C427.235 214.796 426.749 215.352 426.053 215.63C425.289 215.908 424.315 215.838 423.55 215.352C422.855 214.865 422.299 214.031 422.229 213.266C422.229 212.432 422.508 211.806 422.855 211.319C423.55 210.415 424.385 210.415 424.385 210.485C424.385 210.554 423.759 210.763 423.272 211.597C422.994 212.014 422.855 212.571 422.925 213.196C422.994 213.753 423.411 214.378 423.968 214.726C424.593 215.074 425.289 215.213 425.845 215.004C426.401 214.796 426.818 214.448 427.096 214.031C427.652 213.196 427.513 212.571 427.652 212.571Z" fill="#E8505B"/>
<path d="M422.925 212.015C422.994 212.015 422.925 212.501 422.299 212.779C422.021 212.918 421.604 212.988 421.117 212.918C420.7 212.779 420.283 212.432 420.005 212.015C419.727 211.528 419.727 210.972 419.866 210.554C420.005 210.068 420.352 209.79 420.631 209.651C421.187 209.303 421.604 209.442 421.604 209.512C421.604 209.651 421.256 209.72 420.909 210.068C420.561 210.346 420.283 211.041 420.631 211.667C420.978 212.293 421.673 212.432 422.16 212.293C422.577 212.223 422.855 211.945 422.925 212.015Z" fill="#E8505B"/>
<path d="M438.22 335.492C438.22 335.492 472.636 337.508 493.007 337.648C508.789 337.856 515.811 333.615 518.94 323.534C521.582 314.982 515.95 298.713 515.95 298.713C505.243 298.783 498.708 300.243 491.825 303.441L493.632 310.88L438.151 315.677L438.22 335.492Z" fill="#FFBE9D"/>
<path d="M505.243 318.876C505.035 319.015 503.436 315.956 500.029 313.661C496.692 311.367 493.285 310.95 493.355 310.741C493.355 310.672 494.189 310.602 495.51 310.95C496.9 311.228 498.708 311.923 500.446 313.105C502.184 314.287 503.505 315.747 504.201 316.859C505.035 318.041 505.313 318.806 505.243 318.876Z" fill="#EB996E"/>
<path d="M425.636 303.371C425.636 303.371 414.999 305.944 407.143 311.158L415.486 333.754C418.267 341.193 426.749 344.878 433.493 340.985C443.991 335.006 447.676 317.555 447.676 317.555L459.148 267.635L440.098 255.746L425.636 303.371Z" fill="#FFBE9D"/>
<path d="M440.098 255.746L440.862 239.338L436.621 222.721C436.413 221.748 436.274 220.636 437.038 220.079C437.803 219.454 438.985 219.523 439.611 220.149C440.723 221.331 446.285 235.931 446.285 235.931C446.285 235.931 454.767 230.856 456.228 230.647C457.757 230.369 459.634 234.888 459.773 235.236C459.843 235.653 459.773 238.295 459.773 238.295C459.773 238.295 464.988 238.504 465.474 239.199C465.892 239.894 466.031 243.649 466.031 243.649C466.031 243.649 468.255 244.344 468.603 246.012C468.951 247.681 469.715 250.393 468.673 251.018C467.63 251.644 465.405 252.826 465.405 252.826C465.405 252.826 464.501 261.378 464.292 262.142C464.084 262.907 459.148 267.635 459.148 267.635L440.098 255.746Z" fill="#FFBE9D"/>
<path d="M422.369 341.332C422.438 341.332 422.925 341.68 423.968 342.028C425.08 342.375 426.749 342.653 428.904 342.375C431.059 342.097 433.632 341.193 435.996 339.108C438.36 337.022 440.654 334.241 442.601 330.695C443.574 328.957 444.478 327.08 445.173 324.994C445.938 322.908 446.425 320.683 446.981 318.319C448.093 313.638 449.275 308.609 450.527 303.232C453.029 292.525 455.811 280.497 458.87 267.566V267.496L458.939 267.427C459.913 266.5 460.863 265.526 461.79 264.506C462.3 264.043 462.763 263.533 463.18 262.977C463.458 262.768 463.667 262.49 463.876 262.212C464.015 262.073 464.015 261.725 464.084 261.378C464.432 258.597 464.779 255.677 465.057 252.826V252.618L465.266 252.548C466.1 252.038 466.981 251.528 467.908 251.018C468.117 250.949 468.395 250.81 468.534 250.671C468.603 250.601 468.742 250.462 468.742 250.184C468.881 249.767 468.812 249.28 468.812 248.794C468.673 247.82 468.395 246.638 468.186 245.734C467.838 244.9 466.865 244.274 465.961 243.927L465.683 243.857V243.649C465.683 242.814 465.637 241.98 465.544 241.146C465.498 240.729 465.428 240.335 465.336 239.964C465.266 239.755 465.266 239.547 465.196 239.408C465.127 239.338 465.127 239.408 465.057 239.338C464.988 239.338 464.988 239.269 464.849 239.269C463.319 238.851 461.512 238.782 459.773 238.712L459.426 238.643V238.295C459.426 237.461 459.495 236.488 459.426 235.584C459.426 235.375 459.217 234.958 459.078 234.68C458.939 234.309 458.8 233.961 458.661 233.637C458.313 233.011 457.896 232.386 457.479 231.829C457.271 231.551 457.062 231.273 456.784 231.134C456.506 230.995 456.367 230.926 456.019 231.065C455.393 231.273 454.768 231.621 454.072 231.968C451.5 233.289 448.997 234.749 446.494 236.209L446.146 236.488L446.007 236.07C444.663 232.78 443.365 229.535 442.114 226.337C441.465 224.715 440.816 223.115 440.167 221.54C439.959 220.775 439.402 220.288 438.638 220.149C437.942 219.94 437.178 220.149 436.83 220.775C436.691 221.053 436.621 221.4 436.621 221.748C436.691 222.096 436.83 222.582 436.9 222.93C437.131 223.718 437.34 224.506 437.525 225.294C437.942 226.916 438.36 228.492 438.777 230.022C439.611 233.174 440.422 236.233 441.21 239.199V239.269V239.338C440.932 245.039 440.677 250.509 440.445 255.746L440.376 255.816C435.161 272.919 430.781 287.102 427.722 297.044C426.193 301.981 425.011 305.805 424.176 308.516C423.759 309.814 423.435 310.811 423.203 311.506C422.994 312.201 422.855 312.549 422.855 312.549C422.855 312.549 422.925 312.201 423.133 311.506C423.319 310.764 423.597 309.745 423.968 308.447C424.802 305.735 425.914 301.911 427.375 296.905C430.434 286.963 434.675 272.78 439.82 255.607V255.677C440.051 250.485 440.306 245.016 440.584 239.269V239.408C439.796 236.395 438.985 233.336 438.151 230.23C437.734 228.654 437.317 227.078 436.9 225.503C436.668 224.715 436.459 223.927 436.274 223.139C436.135 222.652 435.996 222.374 435.926 221.818C435.926 221.331 435.996 220.844 436.274 220.427C436.482 220.01 436.9 219.662 437.386 219.454C437.873 219.315 438.36 219.315 438.846 219.454C439.263 219.523 439.75 219.732 440.098 220.08C440.445 220.427 440.723 220.914 440.862 221.261C441.465 222.837 442.091 224.436 442.74 226.059C444.037 229.257 445.335 232.501 446.633 235.792L446.146 235.653C448.649 234.124 451.152 232.664 453.794 231.273C454.42 230.995 455.046 230.647 455.811 230.369C456.019 230.3 456.228 230.23 456.506 230.3C456.784 230.3 456.992 230.439 457.201 230.508C457.549 230.786 457.827 231.065 458.035 231.412C458.522 231.968 458.939 232.664 459.287 233.359C459.472 233.683 459.634 234.008 459.773 234.332C459.913 234.749 460.121 235.028 460.191 235.514C460.191 236.557 460.191 237.461 460.121 238.365L459.773 237.948C461.581 238.087 463.319 238.087 465.127 238.573C465.196 238.573 465.336 238.643 465.475 238.712C465.544 238.782 465.753 238.99 465.822 239.06C465.961 239.338 465.961 239.547 466.031 239.825C466.123 240.242 466.193 240.659 466.239 241.076C466.332 241.957 466.402 242.791 466.448 243.579L466.17 243.301C467.213 243.649 468.325 244.274 468.812 245.456C469.159 246.638 469.368 247.612 469.507 248.724C469.577 249.211 469.577 249.767 469.438 250.393C469.368 250.671 469.229 251.018 468.951 251.227C468.673 251.436 468.464 251.505 468.256 251.644C467.329 252.154 466.448 252.664 465.614 253.174L465.753 252.896C465.475 255.816 465.127 258.666 464.779 261.447L464.71 262.004C464.64 262.143 464.571 262.49 464.432 262.629C464.223 262.907 463.945 263.185 463.736 263.464C463.273 263.973 462.786 264.483 462.276 264.993C461.349 266.013 460.399 266.986 459.426 267.913L459.495 267.774C456.436 280.636 453.586 292.664 451.083 303.371C449.785 308.702 448.58 313.731 447.467 318.458C446.911 320.753 446.425 323.047 445.66 325.133C444.895 327.219 443.991 329.165 443.018 330.904C441.002 334.449 438.638 337.23 436.204 339.316C433.771 341.402 431.129 342.375 428.904 342.584C426.749 342.862 425.011 342.514 423.968 342.097C423.412 341.912 423.018 341.726 422.786 341.541C422.508 341.402 422.369 341.332 422.369 341.332Z" fill="#EB996E"/>
<path d="M459.774 238.295C459.774 238.365 459.287 238.434 458.592 238.504C457.827 238.504 456.854 238.574 455.811 238.782C454.768 239.06 453.933 239.616 453.447 240.103C452.96 240.52 452.682 240.937 452.613 240.937C452.543 240.868 452.543 240.381 453.03 239.755C453.516 239.06 454.42 238.434 455.602 238.087C456.784 237.809 457.827 237.878 458.592 237.948C459.356 238.087 459.774 238.226 459.774 238.295Z" fill="#EB996E"/>
<path d="M455.672 238.434C455.533 238.365 455.463 237.948 455.672 237.461C455.811 237.044 456.158 236.696 456.297 236.766C456.506 236.835 456.506 237.252 456.367 237.739C456.158 238.226 455.88 238.504 455.672 238.434Z" fill="#EB996E"/>
<path d="M466.309 243.51C466.309 243.718 464.432 243.927 462.137 244.066C461.025 244.135 460.191 244.553 459.843 245.178C459.496 245.735 459.635 246.221 459.496 246.221C459.426 246.291 459.078 245.804 459.426 244.97C459.565 244.553 459.913 244.135 460.399 243.857C460.886 243.579 461.512 243.44 462.068 243.371C464.432 243.162 466.309 243.301 466.309 243.51Z" fill="#EB996E"/>
<path d="M465.336 248.516C465.544 248.516 465.683 249.558 465.614 250.81C465.544 252.061 465.336 253.035 465.127 253.035C464.988 253.035 464.849 251.992 464.918 250.74C464.918 249.489 465.127 248.516 465.336 248.516Z" fill="#EB996E"/>
<path d="M471.106 285.92L472.357 281.679C472.636 280.845 473.678 280.567 474.304 281.193L475.973 282.861L476.946 278.829C477.224 277.786 478.684 277.647 479.101 278.62L481.396 283.348L471.106 285.92Z" fill="white"/>
<path d="M481.396 285.155C481.465 285.364 479.241 286.059 476.529 286.755C473.748 287.45 471.454 287.867 471.454 287.658C471.384 287.45 473.609 286.755 476.321 286.059C479.102 285.364 481.396 285.016 481.396 285.155Z" fill="white"/>
<path d="M398.73 261.447C398.8 261.447 398.244 261.934 397.479 263.046C396.784 264.159 396.019 265.966 395.602 268.33C395.184 270.694 395.184 273.475 395.393 276.673C395.532 279.802 395.741 283.278 396.158 286.894C396.923 294.124 398.104 300.59 399.078 305.248C399.565 307.612 400.051 309.49 400.329 310.741C400.468 311.344 400.584 311.853 400.677 312.271C400.77 312.595 400.816 312.757 400.816 312.757C400.816 312.757 400.746 312.595 400.607 312.271C400.515 311.853 400.399 311.367 400.26 310.811C399.912 309.49 399.425 307.612 398.869 305.318C397.826 300.66 396.644 294.124 395.88 286.894C395.463 283.278 395.254 279.802 395.115 276.673C394.906 273.545 394.976 270.625 395.393 268.261C395.81 265.897 396.644 264.089 397.409 262.977C398.174 261.864 398.73 261.447 398.73 261.447Z" fill="white"/>
<path d="M428 242.536C428 242.536 427.884 242.583 427.652 242.675C427.374 242.814 427.073 242.954 426.748 243.093C425.984 243.51 424.802 244.066 423.411 244.831C420.63 246.291 416.945 248.655 412.982 251.366C409.019 254.078 405.473 256.65 402.901 258.527C401.742 259.362 400.746 260.08 399.911 260.683C399.587 260.868 399.286 261.053 399.008 261.239C398.822 261.378 398.729 261.447 398.729 261.447C398.729 261.401 398.822 261.308 399.008 261.169C399.239 260.984 399.517 260.775 399.842 260.544C400.676 259.941 401.673 259.199 402.832 258.319C405.334 256.442 408.88 253.869 412.843 251.088C416.806 248.377 420.561 246.082 423.342 244.622C424.732 243.927 425.914 243.371 426.748 243.023C427.073 242.884 427.374 242.745 427.652 242.606C427.884 242.513 428 242.49 428 242.536Z" fill="white"/>
<path d="M494.328 251.575C494.328 251.575 494.235 251.505 494.05 251.366C493.864 251.227 493.656 251.042 493.424 250.81C492.937 250.393 492.103 249.697 490.99 249.002C488.905 247.612 485.707 245.943 482.091 244.483C478.406 243.023 475 241.98 472.566 241.354C471.315 241.007 470.272 240.729 469.577 240.59C469.298 240.497 469.044 240.427 468.812 240.381C468.626 240.335 468.534 240.288 468.534 240.242C468.534 240.242 468.626 240.265 468.812 240.311C469.044 240.358 469.322 240.404 469.646 240.451C470.341 240.59 471.315 240.798 472.566 241.146C475.069 241.772 478.545 242.745 482.161 244.205C485.846 245.665 489.044 247.334 491.13 248.863C493.285 250.323 494.328 251.575 494.328 251.575Z" fill="white"/>
<path d="M428.418 357.671C428.371 357.717 428.186 357.671 427.861 357.532C427.514 357.393 427.027 357.115 426.471 356.767C425.358 356.072 423.898 354.751 423.412 352.665C422.995 350.649 423.412 348.772 423.968 347.59C424.246 346.964 424.524 346.547 424.802 346.269C425.011 345.921 425.15 345.782 425.15 345.852C425.219 345.852 424.663 346.477 424.176 347.659C423.69 348.841 423.273 350.718 423.759 352.596C424.176 354.542 425.567 355.863 426.61 356.628C427.653 357.323 428.418 357.671 428.418 357.671Z" fill="white"/>
<path d="M423.967 342.653C424.037 342.653 424.315 343.418 424.593 344.391C424.941 345.365 425.08 346.199 425.01 346.199C424.941 346.269 424.663 345.434 424.315 344.461C424.037 343.488 423.898 342.653 423.967 342.653Z" fill="white"/>
<path d="M442.74 654.407L485.15 654.198L484.386 507.568L484.038 358.366L426.54 357.671L416.25 377.138C412.079 384.995 409.228 393.546 408.324 402.376C407.56 409.12 412.635 431.09 414.373 436.652L430.225 486.85L442.74 654.407Z" fill="#263238"/>
<path d="M496.483 358.575L543.065 485.668C548.558 502.702 546.681 519.527 537.295 535.309L483.204 640.919L452.751 602.819L498.082 508.194L458.174 443.535L464.849 358.714L483.69 358.436L496.483 358.575Z" fill="#263238"/>
<path d="M480.145 401.125C480.145 401.125 480.168 401.356 480.215 401.82C480.261 402.283 480.307 402.909 480.354 403.697C480.423 405.435 480.562 407.938 480.701 411.067C481.049 417.533 481.466 426.78 482.022 438.182C482.578 449.653 483.204 463.281 483.899 478.368C484.247 485.946 484.595 493.872 484.942 502.076C485.22 506.247 485.081 510.419 485.151 514.66C485.151 518.924 485.151 523.235 485.151 527.592C485.22 562.563 485.29 594.197 485.359 617.141C485.29 628.543 485.29 637.79 485.29 644.256C485.29 647.454 485.29 649.888 485.22 651.626C485.22 652.46 485.22 653.109 485.22 653.572C485.22 653.99 485.197 654.198 485.151 654.198C485.151 654.198 485.151 653.99 485.151 653.572C485.151 653.109 485.128 652.46 485.081 651.626C485.081 649.888 485.081 647.454 485.012 644.256C484.942 637.79 484.873 628.543 484.803 617.141C484.734 594.197 484.595 562.563 484.456 527.592C484.456 523.235 484.432 518.924 484.386 514.66C484.386 510.419 484.525 506.247 484.247 502.145C483.899 493.872 483.552 485.946 483.204 478.368C482.578 463.281 482.022 449.653 481.536 438.182C481.049 426.78 480.701 417.533 480.423 411.067C480.354 407.938 480.215 405.435 480.215 403.697C480.168 402.909 480.145 402.283 480.145 401.82C480.145 401.356 480.145 401.125 480.145 401.125Z" fill="#455A64"/>
<path d="M479.102 361.078C479.102 361.078 479.241 361.564 479.38 362.468C479.519 363.372 479.658 364.693 479.867 366.292C480.214 369.49 480.631 373.94 480.84 378.876C481.049 383.813 481.118 388.332 481.049 391.53C480.979 393.129 480.91 394.45 480.84 395.354C480.771 396.258 480.771 396.744 480.701 396.744C480.562 396.744 480.562 394.798 480.492 391.53C480.423 388.332 480.353 383.882 480.145 378.946C479.936 374.009 479.589 369.56 479.38 366.362C479.102 363.094 478.963 361.078 479.102 361.078Z" fill="#455A64"/>
<path d="M469.716 363.928C469.786 364.067 469.021 364.415 468.812 365.527C468.673 366.084 468.812 366.779 469.299 367.266C469.855 367.683 470.69 367.961 471.385 367.613C472.15 367.266 472.497 366.501 472.497 365.805C472.497 365.11 472.01 364.554 471.593 364.276C470.55 363.72 469.786 364.067 469.716 363.928C469.716 363.928 469.855 363.789 470.272 363.65C470.62 363.581 471.176 363.511 471.802 363.789C472.428 364.067 473.123 364.763 473.123 365.736C473.192 366.709 472.775 367.752 471.732 368.308C470.69 368.726 469.508 368.378 468.882 367.752C468.187 367.057 468.117 366.084 468.326 365.458C468.465 364.763 468.882 364.345 469.16 364.137C469.508 363.928 469.716 363.928 469.716 363.928Z" fill="#455A64"/>
<path d="M447.468 361.425C447.537 361.425 447.677 361.912 447.885 362.746C448.024 363.65 448.163 364.971 447.955 366.57C447.816 368.169 447.329 370.046 446.356 371.924C445.452 373.87 443.922 375.748 441.906 377.208C439.89 378.598 437.595 379.432 435.51 379.711C433.424 380.058 431.477 379.919 429.878 379.502C428.348 379.154 427.097 378.668 426.332 378.181C425.567 377.764 425.22 377.486 425.22 377.416C425.289 377.277 426.958 378.459 430.017 379.015C433.007 379.641 437.595 379.363 441.489 376.582C445.382 373.801 447.051 369.49 447.468 366.501C447.885 363.372 447.329 361.425 447.468 361.425Z" fill="#455A64"/>
<path d="M502.045 373.592C502.045 373.662 501.003 373.731 499.334 373.314C497.735 372.828 495.649 371.715 493.911 369.768C492.173 367.891 491.199 365.666 490.921 363.998C490.643 362.329 490.782 361.286 490.852 361.286C490.991 361.286 490.991 362.329 491.408 363.928C491.825 365.458 492.798 367.474 494.398 369.282C496.066 371.089 498.013 372.271 499.542 372.828C501.002 373.384 502.045 373.453 502.045 373.592Z" fill="#455A64"/>
<path d="M518.592 510.558C518.662 510.628 517.827 511.531 516.159 512.574C515.324 513.061 514.281 513.617 512.96 513.895C511.709 514.243 510.179 514.312 508.719 513.826C505.73 512.852 503.922 510.628 502.74 509.098C501.628 507.499 501.072 506.456 501.141 506.386C501.211 506.317 501.975 507.29 503.157 508.75C504.409 510.21 506.216 512.227 508.928 513.13C511.639 514.034 514.281 512.991 515.881 512.088C517.549 511.184 518.523 510.488 518.592 510.558Z" fill="#455A64"/>
<path d="M507.955 518.692C507.816 518.832 505.869 516.329 503.575 513.13C501.35 510.002 499.612 507.29 499.82 507.221C499.959 507.082 501.906 509.585 504.2 512.713C506.425 515.911 508.163 518.553 507.955 518.692Z" fill="#455A64"/>
<path d="M436.761 406.061C436.552 406.13 436.065 405.366 435.648 404.323C435.161 403.21 435.022 402.307 435.161 402.237C435.37 402.168 435.857 402.932 436.274 404.045C436.691 405.088 436.9 405.991 436.761 406.061Z" fill="#FAFAFA"/>
<path d="M463.667 409.954C463.458 409.954 463.319 409.259 463.319 408.425C463.319 407.521 463.458 406.826 463.667 406.826C463.876 406.826 464.015 407.521 464.015 408.425C464.015 409.259 463.876 409.954 463.667 409.954Z" fill="#FAFAFA"/>
<path d="M452.612 424.555C452.404 424.555 452.195 423.72 452.126 422.678C452.056 421.565 452.126 420.731 452.334 420.731C452.543 420.661 452.751 421.565 452.821 422.608C452.89 423.651 452.751 424.555 452.612 424.555Z" fill="#FAFAFA"/>
<path d="M432.38 435.331C432.172 435.47 431.616 434.914 430.851 434.427C430.155 433.871 429.46 433.454 429.53 433.245C429.599 433.106 430.434 433.176 431.337 433.802C432.172 434.427 432.519 435.192 432.38 435.331Z" fill="#FAFAFA"/>
<path d="M467.977 448.889C467.838 448.819 468.047 448.193 468.464 447.568C468.881 446.942 469.368 446.455 469.577 446.594C469.716 446.733 469.507 447.29 469.09 447.985C468.673 448.611 468.186 449.028 467.977 448.889Z" fill="#FAFAFA"/>
<path d="M445.938 452.782C445.729 452.782 445.59 451.6 445.59 450.21C445.59 448.75 445.729 447.637 445.938 447.637C446.147 447.637 446.286 448.75 446.286 450.21C446.286 451.6 446.147 452.782 445.938 452.782Z" fill="#FAFAFA"/>
<path d="M438.777 468.356C438.707 468.495 437.943 468.217 437.178 467.591C436.413 467.035 435.857 466.479 435.996 466.27C436.135 466.131 436.83 466.479 437.595 467.035C438.36 467.591 438.916 468.217 438.777 468.356Z" fill="#FAFAFA"/>
<path d="M461.095 473.779C461.164 473.987 460.747 474.335 460.052 474.613C459.426 474.891 458.87 474.961 458.801 474.822C458.731 474.613 459.148 474.266 459.774 473.987C460.4 473.709 461.025 473.57 461.095 473.779Z" fill="#FAFAFA"/>
<path d="M445.938 499.156C445.799 499.225 445.034 498.182 444.339 496.792C443.644 495.332 443.226 494.15 443.366 494.011C443.574 493.941 444.269 495.054 444.965 496.444C445.729 497.835 446.147 499.086 445.938 499.156Z" fill="#FAFAFA"/>
<path d="M470.55 496.861C470.411 496.792 470.689 495.818 471.245 494.776C471.871 493.733 472.427 492.898 472.636 493.037C472.775 493.107 472.497 494.011 471.941 495.123C471.384 496.166 470.759 496.931 470.55 496.861Z" fill="#FAFAFA"/>
<path d="M459.774 518.414C459.565 518.345 459.635 517.302 459.426 515.981C459.218 514.66 458.87 513.617 459.009 513.548C459.218 513.409 459.913 514.382 460.121 515.842C460.33 517.302 459.982 518.414 459.774 518.414Z" fill="#FAFAFA"/>
<path d="M448.232 530.72C448.093 530.859 447.398 530.303 446.703 529.538C446.008 528.774 445.521 528.009 445.729 527.87C445.868 527.731 446.564 528.287 447.259 529.052C447.954 529.817 448.441 530.581 448.232 530.72Z" fill="#FAFAFA"/>
<path d="M476.251 535.379C476.112 535.24 476.668 534.475 477.433 533.71C478.198 532.945 478.893 532.389 479.101 532.528C479.24 532.667 478.684 533.432 477.919 534.197C477.155 534.961 476.39 535.518 476.251 535.379Z" fill="#FAFAFA"/>
<path d="M460.191 553.803C459.983 553.803 459.983 552.691 460.191 551.439C460.33 550.188 460.678 549.145 460.886 549.145C461.095 549.214 461.095 550.257 460.886 551.509C460.678 552.83 460.33 553.803 460.191 553.803Z" fill="#FAFAFA"/>
<path d="M449.345 562.772C449.136 562.841 448.51 562.146 447.954 561.103C447.398 560.13 447.05 559.296 447.259 559.157C447.398 559.087 448.024 559.782 448.58 560.756C449.136 561.729 449.484 562.633 449.345 562.772Z" fill="#FAFAFA"/>
<path d="M475.417 574.035C475.556 574.174 474.861 574.869 473.818 575.634C472.845 576.329 471.941 576.746 471.871 576.607C471.732 576.399 472.427 575.704 473.401 575.008C474.444 574.313 475.348 573.896 475.417 574.035Z" fill="#FAFAFA"/>
<path d="M453.655 588.635C453.516 588.566 453.725 587.453 453.864 586.063C454.003 584.742 453.933 583.56 454.142 583.56C454.35 583.49 454.698 584.672 454.559 586.132C454.42 587.662 453.864 588.774 453.655 588.635Z" fill="#FAFAFA"/>
<path d="M462.346 609.702C462.207 609.841 461.651 609.354 461.025 608.659C460.469 607.894 460.191 607.268 460.33 607.129C460.469 606.99 461.025 607.477 461.651 608.172C462.207 608.867 462.555 609.563 462.346 609.702Z" fill="#FAFAFA"/>
<path d="M452.89 623.815C452.682 623.885 451.917 623.051 451.152 621.938C450.387 620.826 449.901 619.783 450.04 619.713C450.248 619.574 451.013 620.409 451.778 621.521C452.543 622.634 453.029 623.676 452.89 623.815Z" fill="#FAFAFA"/>
<path d="M479.033 606.086C478.824 606.017 478.894 605.53 479.102 604.974C479.311 604.348 479.589 604.001 479.797 604.07C480.006 604.14 480.006 604.626 479.728 605.182C479.519 605.739 479.241 606.156 479.033 606.086Z" fill="#FAFAFA"/>
<path d="M467.491 639.667C467.282 639.598 467.63 638.624 467.908 637.373C468.186 636.121 468.325 635.079 468.534 635.079C468.742 635.079 468.951 636.191 468.673 637.512C468.325 638.833 467.63 639.806 467.491 639.667Z" fill="#FAFAFA"/>
<path d="M474.999 424.763C474.791 424.833 474.374 424.277 474.026 423.512C473.678 422.747 473.47 422.052 473.678 421.982C473.887 421.913 474.304 422.469 474.652 423.234C474.999 423.999 475.208 424.694 474.999 424.763Z" fill="#FAFAFA"/>
<path d="M455.671 381.449C455.811 381.657 454.837 382.422 453.794 383.535C452.751 384.647 452.056 385.69 451.848 385.551C451.709 385.481 452.126 384.23 453.238 383.048C454.351 381.866 455.602 381.31 455.671 381.449Z" fill="#FAFAFA"/>
<path d="M472.914 380.962C472.705 381.032 472.358 380.197 471.871 379.224C471.384 378.251 470.967 377.486 471.106 377.347C471.245 377.208 472.01 377.833 472.497 378.876C473.053 379.919 473.053 380.893 472.914 380.962Z" fill="#FAFAFA"/>
<path d="M419.38 395.076C419.171 395.006 419.38 394.102 419.797 393.06C420.214 391.947 420.701 391.182 420.909 391.252C421.048 391.321 420.909 392.225 420.423 393.268C420.005 394.381 419.519 395.145 419.38 395.076Z" fill="#FAFAFA"/>
<path d="M421.117 416.073C420.978 416.212 420.143 415.794 419.309 415.099C418.475 414.404 417.849 413.709 417.988 413.5C418.127 413.361 418.961 413.848 419.796 414.543C420.63 415.238 421.186 415.934 421.117 416.073Z" fill="#FAFAFA"/>
<path d="M456.228 364.832C456.019 364.902 455.672 364.345 455.393 363.65C455.115 362.955 454.976 362.329 455.185 362.26C455.393 362.19 455.741 362.677 456.019 363.372C456.297 364.067 456.367 364.762 456.228 364.832Z" fill="#FAFAFA"/>
<path d="M489.878 375.052C489.67 375.052 489.67 374.218 489.878 373.175C490.087 372.202 490.434 371.437 490.643 371.506C490.851 371.506 490.782 372.341 490.573 373.384C490.365 374.357 490.017 375.122 489.878 375.052Z" fill="#FAFAFA"/>
<path d="M497.735 390.974C497.596 390.904 497.804 389.861 498.291 388.61C498.778 387.428 499.334 386.524 499.542 386.594C499.751 386.663 499.473 387.706 498.986 388.888C498.499 390.14 497.943 391.043 497.735 390.974Z" fill="#FAFAFA"/>
<path d="M492.103 403.767C491.964 403.836 491.269 402.932 490.643 401.611C490.017 400.36 489.6 399.247 489.809 399.178C490.017 399.039 490.643 400.012 491.269 401.333C491.894 402.585 492.312 403.697 492.103 403.767Z" fill="#FAFAFA"/>
<path d="M504.131 416.629C503.992 416.559 504.131 415.725 504.479 414.821C504.826 413.848 505.243 413.222 505.452 413.292C505.661 413.361 505.521 414.126 505.174 415.03C504.757 416.003 504.339 416.698 504.131 416.629Z" fill="#FAFAFA"/>
<path d="M493.424 429.143C493.216 429.282 492.798 428.865 492.451 428.309C492.103 427.753 491.964 427.197 492.103 427.127C492.312 426.988 492.729 427.405 493.076 427.961C493.424 428.518 493.563 429.074 493.424 429.143Z" fill="#FAFAFA"/>
<path d="M495.718 455.077C495.579 455.216 494.676 454.52 493.772 453.547C492.868 452.504 492.242 451.6 492.381 451.461C492.52 451.322 493.355 452.017 494.258 453.06C495.232 454.034 495.857 454.937 495.718 455.077Z" fill="#FAFAFA"/>
<path d="M509.832 440.198C509.624 440.337 508.859 439.642 508.094 438.599C507.329 437.626 506.843 436.722 506.982 436.583C507.121 436.444 507.885 437.208 508.65 438.182C509.485 439.155 509.971 440.059 509.832 440.198Z" fill="#FAFAFA"/>
<path d="M517.549 460.708C517.34 460.639 517.688 459.596 518.244 458.414C518.8 457.162 519.426 456.258 519.635 456.398C519.774 456.467 519.496 457.51 518.939 458.692C518.314 459.874 517.758 460.847 517.549 460.708Z" fill="#FAFAFA"/>
<path d="M501.072 477.603C500.933 477.742 500.237 476.977 499.403 476.143C498.499 475.308 497.665 474.752 497.735 474.544C497.804 474.405 498.916 474.683 499.89 475.587C500.863 476.49 501.28 477.533 501.072 477.603Z" fill="#FAFAFA"/>
<path d="M502.114 495.054C502.114 495.262 501.419 495.401 500.585 495.401C499.75 495.401 499.055 495.262 499.055 495.054C499.055 494.845 499.75 494.706 500.585 494.706C501.419 494.706 502.114 494.845 502.114 495.054Z" fill="#FAFAFA"/>
<path d="M519.01 490.187C518.871 490.117 519.218 489.214 519.496 488.101C519.774 487.058 519.844 486.085 520.053 486.085C520.261 486.085 520.47 487.058 520.192 488.31C519.914 489.492 519.218 490.326 519.01 490.187Z" fill="#FAFAFA"/>
<path d="M535.835 496.027C535.696 496.097 535.14 495.123 534.723 493.872C534.236 492.62 534.028 491.508 534.236 491.438C534.445 491.369 534.932 492.342 535.418 493.594C535.835 494.915 536.044 495.958 535.835 496.027Z" fill="#FAFAFA"/>
<path d="M533.193 519.944C532.984 519.875 533.402 518.693 534.097 517.372C534.862 515.981 535.557 515.008 535.696 515.077C535.905 515.147 535.487 516.329 534.792 517.65C534.097 519.04 533.332 520.014 533.193 519.944Z" fill="#FAFAFA"/>
<path d="M517.828 533.988C517.619 534.058 517.063 533.154 516.576 531.833C516.02 530.581 515.742 529.539 515.951 529.4C516.159 529.33 516.715 530.303 517.202 531.555C517.758 532.876 518.036 533.919 517.828 533.988Z" fill="#FAFAFA"/>
<path d="M500.863 539.411C500.863 539.62 500.237 539.759 499.542 539.759C498.847 539.759 498.291 539.62 498.291 539.411C498.291 539.203 498.847 539.063 499.542 539.063C500.237 539.063 500.863 539.203 500.863 539.411Z" fill="#FAFAFA"/>
<path d="M510.597 561.729C510.388 561.799 509.971 560.964 509.693 559.921C509.415 558.809 509.345 557.905 509.554 557.905C509.762 557.836 510.11 558.67 510.388 559.713C510.666 560.756 510.736 561.66 510.597 561.729Z" fill="#FAFAFA"/>
<path d="M498.291 554.29C498.082 554.22 498.291 553.525 498.708 552.83C499.125 552.134 499.612 551.648 499.82 551.717C499.959 551.856 499.751 552.482 499.334 553.177C498.917 553.942 498.43 554.429 498.291 554.29Z" fill="#FAFAFA"/>
<path d="M498.013 578.902C497.804 578.902 497.526 577.998 497.387 576.746C497.248 575.565 497.318 574.591 497.526 574.522C497.665 574.522 497.943 575.495 498.083 576.677C498.222 577.928 498.222 578.902 498.013 578.902Z" fill="#FAFAFA"/>
</svg>
